<?xml version="1.0" encoding="utf-8" standalone="no"?>
<!DOCTYPE svg PUBLIC "-//W3C//DTD SVG 1.1//EN"
  "http://www.w3.org/Graphics/SVG/1.1/DTD/svg11.dtd">
<svg xmlns:xlink="http://www.w3.org/1999/xlink" width="1162.791563pt" height="375.200987pt" viewBox="0 0 1162.791563 375.200987" xmlns="http://www.w3.org/2000/svg" version="1.1">
 <metadata>
  <rdf:RDF xmlns:dc="http://purl.org/dc/elements/1.1/" xmlns:cc="http://creativecommons.org/ns#" xmlns:rdf="http://www.w3.org/1999/02/22-rdf-syntax-ns#">
   <cc:Work>
    <dc:type rdf:resource="http://purl.org/dc/dcmitype/StillImage"/>
    <dc:date>2026-06-07T20:06:57.312300</dc:date>
    <dc:format>image/svg+xml</dc:format>
    <dc:creator>
     <cc:Agent>
      <dc:title>Matplotlib v3.10.8, https://matplotlib.org/</dc:title>
     </cc:Agent>
    </dc:creator>
   </cc:Work>
  </rdf:RDF>
 </metadata>
 <defs>
  <style type="text/css">*{stroke-linejoin: round; stroke-linecap: butt}</style>
 </defs>
 <g id="figure_1">
  <g id="patch_1">
   <path d="M 0 375.200987 
L 1162.791563 375.200987 
L 1162.791563 0 
L 0 0 
z
" style="fill: #ffffff"/>
  </g>
  <g id="axes_1">
   <g id="patch_2">
    <path d="M 61.721562 288.831719 
L 1155.591563 288.831719 
L 1155.591563 22.671719 
L 61.721562 22.671719 
z
" style="fill: #ffffff"/>
   </g>
   <g id="patch_3">
    <path d="M 61.721562 22.671719 
L 134.646229 22.671719 
L 134.646229 75.903719 
L 61.721562 75.903719 
z
" clip-path="url(#p7dffdf640d)" style="fill: #f2f2f2; stroke: #ffffff; stroke-width: 1.2; stroke-linejoin: miter"/>
   </g>
   <g id="patch_4">
    <path d="M 134.646229 22.671719 
L 207.570896 22.671719 
L 207.570896 75.903719 
L 134.646229 75.903719 
z
" clip-path="url(#p7dffdf640d)" style="fill: #b5121b; stroke: #ffffff; stroke-width: 1.2; stroke-linejoin: miter"/>
   </g>
   <g id="patch_5">
    <path d="M 207.570896 22.671719 
L 280.495563 22.671719 
L 280.495563 75.903719 
L 207.570896 75.903719 
z
" clip-path="url(#p7dffdf640d)" style="fill: #b5121b; stroke: #ffffff; stroke-width: 1.2; stroke-linejoin: miter"/>
   </g>
   <g id="patch_6">
    <path d="M 280.495563 22.671719 
L 353.420229 22.671719 
L 353.420229 75.903719 
L 280.495563 75.903719 
z
" clip-path="url(#p7dffdf640d)" style="fill: #b5121b; stroke: #ffffff; stroke-width: 1.2; stroke-linejoin: miter"/>
   </g>
   <g id="patch_7">
    <path d="M 353.420229 22.671719 
L 426.344896 22.671719 
L 426.344896 75.903719 
L 353.420229 75.903719 
z
" clip-path="url(#p7dffdf640d)" style="fill: #b5121b; stroke: #ffffff; stroke-width: 1.2; stroke-linejoin: miter"/>
   </g>
   <g id="patch_8">
    <path d="M 426.344896 22.671719 
L 499.269563 22.671719 
L 499.269563 75.903719 
L 426.344896 75.903719 
z
" clip-path="url(#p7dffdf640d)" style="fill: #f2f2f2; stroke: #ffffff; stroke-width: 1.2; stroke-linejoin: miter"/>
   </g>
   <g id="patch_9">
    <path d="M 499.269563 22.671719 
L 572.194229 22.671719 
L 572.194229 75.903719 
L 499.269563 75.903719 
z
" clip-path="url(#p7dffdf640d)" style="fill: #f2f2f2; stroke: #ffffff; stroke-width: 1.2; stroke-linejoin: miter"/>
   </g>
   <g id="patch_10">
    <path d="M 572.194229 22.671719 
L 645.118896 22.671719 
L 645.118896 75.903719 
L 572.194229 75.903719 
z
" clip-path="url(#p7dffdf640d)" style="fill: #f2f2f2; stroke: #ffffff; stroke-width: 1.2; stroke-linejoin: miter"/>
   </g>
   <g id="patch_11">
    <path d="M 645.118896 22.671719 
L 718.043563 22.671719 
L 718.043563 75.903719 
L 645.118896 75.903719 
z
" clip-path="url(#p7dffdf640d)" style="fill: #f2f2f2; stroke: #ffffff; stroke-width: 1.2; stroke-linejoin: miter"/>
   </g>
   <g id="patch_12">
    <path d="M 718.043563 22.671719 
L 790.968229 22.671719 
L 790.968229 75.903719 
L 718.043563 75.903719 
z
" clip-path="url(#p7dffdf640d)" style="fill: #f2f2f2; stroke: #ffffff; stroke-width: 1.2; stroke-linejoin: miter"/>
   </g>
   <g id="patch_13">
    <path d="M 790.968229 22.671719 
L 863.892896 22.671719 
L 863.892896 75.903719 
L 790.968229 75.903719 
z
" clip-path="url(#p7dffdf640d)" style="fill: #f2f2f2; stroke: #ffffff; stroke-width: 1.2; stroke-linejoin: miter"/>
   </g>
   <g id="patch_14">
    <path d="M 863.892896 22.671719 
L 936.817563 22.671719 
L 936.817563 75.903719 
L 863.892896 75.903719 
z
" clip-path="url(#p7dffdf640d)" style="fill: #f2f2f2; stroke: #ffffff; stroke-width: 1.2; stroke-linejoin: miter"/>
   </g>
   <g id="patch_15">
    <path d="M 936.817563 22.671719 
L 1009.742229 22.671719 
L 1009.742229 75.903719 
L 936.817563 75.903719 
z
" clip-path="url(#p7dffdf640d)" style="fill: #f2f2f2; stroke: #ffffff; stroke-width: 1.2; stroke-linejoin: miter"/>
   </g>
   <g id="patch_16">
    <path d="M 1009.742229 22.671719 
L 1082.666896 22.671719 
L 1082.666896 75.903719 
L 1009.742229 75.903719 
z
" clip-path="url(#p7dffdf640d)" style="fill: #f2f2f2; stroke: #ffffff; stroke-width: 1.2; stroke-linejoin: miter"/>
   </g>
   <g id="patch_17">
    <path d="M 1082.666896 22.671719 
L 1155.591562 22.671719 
L 1155.591562 75.903719 
L 1082.666896 75.903719 
z
" clip-path="url(#p7dffdf640d)" style="fill: #f2f2f2; stroke: #ffffff; stroke-width: 1.2; stroke-linejoin: miter"/>
   </g>
   <g id="patch_18">
    <path d="M 61.721562 75.903719 
L 134.646229 75.903719 
L 134.646229 129.135719 
L 61.721562 129.135719 
z
" clip-path="url(#p7dffdf640d)" style="fill: #86bc25; stroke: #ffffff; stroke-width: 1.2; stroke-linejoin: miter"/>
   </g>
   <g id="patch_19">
    <path d="M 134.646229 75.903719 
L 207.570896 75.903719 
L 207.570896 129.135719 
L 134.646229 129.135719 
z
" clip-path="url(#p7dffdf640d)" style="fill: #86bc25; stroke: #ffffff; stroke-width: 1.2; stroke-linejoin: miter"/>
   </g>
   <g id="patch_20">
    <path d="M 207.570896 75.903719 
L 280.495563 75.903719 
L 280.495563 129.135719 
L 207.570896 129.135719 
z
" clip-path="url(#p7dffdf640d)" style="fill: #86bc25; stroke: #ffffff; stroke-width: 1.2; stroke-linejoin: miter"/>
   </g>
   <g id="patch_21">
    <path d="M 280.495563 75.903719 
L 353.420229 75.903719 
L 353.420229 129.135719 
L 280.495563 129.135719 
z
" clip-path="url(#p7dffdf640d)" style="fill: #86bc25; stroke: #ffffff; stroke-width: 1.2; stroke-linejoin: miter"/>
   </g>
   <g id="patch_22">
    <path d="M 353.420229 75.903719 
L 426.344896 75.903719 
L 426.344896 129.135719 
L 353.420229 129.135719 
z
" clip-path="url(#p7dffdf640d)" style="fill: #86bc25; stroke: #ffffff; stroke-width: 1.2; stroke-linejoin: miter"/>
   </g>
   <g id="patch_23">
    <path d="M 426.344896 75.903719 
L 499.269563 75.903719 
L 499.269563 129.135719 
L 426.344896 129.135719 
z
" clip-path="url(#p7dffdf640d)" style="fill: #f2f2f2; stroke: #ffffff; stroke-width: 1.2; stroke-linejoin: miter"/>
   </g>
   <g id="patch_24">
    <path d="M 499.269563 75.903719 
L 572.194229 75.903719 
L 572.194229 129.135719 
L 499.269563 129.135719 
z
" clip-path="url(#p7dffdf640d)" style="fill: #b5121b; stroke: #ffffff; stroke-width: 1.2; stroke-linejoin: miter"/>
   </g>
   <g id="patch_25">
    <path d="M 572.194229 75.903719 
L 645.118896 75.903719 
L 645.118896 129.135719 
L 572.194229 129.135719 
z
" clip-path="url(#p7dffdf640d)" style="fill: #b5121b; stroke: #ffffff; stroke-width: 1.2; stroke-linejoin: miter"/>
   </g>
   <g id="patch_26">
    <path d="M 645.118896 75.903719 
L 718.043563 75.903719 
L 718.043563 129.135719 
L 645.118896 129.135719 
z
" clip-path="url(#p7dffdf640d)" style="fill: #b5121b; stroke: #ffffff; stroke-width: 1.2; stroke-linejoin: miter"/>
   </g>
   <g id="patch_27">
    <path d="M 718.043563 75.903719 
L 790.968229 75.903719 
L 790.968229 129.135719 
L 718.043563 129.135719 
z
" clip-path="url(#p7dffdf640d)" style="fill: #f2f2f2; stroke: #ffffff; stroke-width: 1.2; stroke-linejoin: miter"/>
   </g>
   <g id="patch_28">
    <path d="M 790.968229 75.903719 
L 863.892896 75.903719 
L 863.892896 129.135719 
L 790.968229 129.135719 
z
" clip-path="url(#p7dffdf640d)" style="fill: #b5121b; stroke: #ffffff; stroke-width: 1.2; stroke-linejoin: miter"/>
   </g>
   <g id="patch_29">
    <path d="M 863.892896 75.903719 
L 936.817563 75.903719 
L 936.817563 129.135719 
L 863.892896 129.135719 
z
" clip-path="url(#p7dffdf640d)" style="fill: #f2f2f2; stroke: #ffffff; stroke-width: 1.2; stroke-linejoin: miter"/>
   </g>
   <g id="patch_30">
    <path d="M 936.817563 75.903719 
L 1009.742229 75.903719 
L 1009.742229 129.135719 
L 936.817563 129.135719 
z
" clip-path="url(#p7dffdf640d)" style="fill: #f2f2f2; stroke: #ffffff; stroke-width: 1.2; stroke-linejoin: miter"/>
   </g>
   <g id="patch_31">
    <path d="M 1009.742229 75.903719 
L 1082.666896 75.903719 
L 1082.666896 129.135719 
L 1009.742229 129.135719 
z
" clip-path="url(#p7dffdf640d)" style="fill: #f2f2f2; stroke: #ffffff; stroke-width: 1.2; stroke-linejoin: miter"/>
   </g>
   <g id="patch_32">
    <path d="M 1082.666896 75.903719 
L 1155.591562 75.903719 
L 1155.591562 129.135719 
L 1082.666896 129.135719 
z
" clip-path="url(#p7dffdf640d)" style="fill: #f2f2f2; stroke: #ffffff; stroke-width: 1.2; stroke-linejoin: miter"/>
   </g>
   <g id="patch_33">
    <path d="M 61.721562 129.135719 
L 134.646229 129.135719 
L 134.646229 182.367719 
L 61.721562 182.367719 
z
" clip-path="url(#p7dffdf640d)" style="fill: #f2f2f2; stroke: #ffffff; stroke-width: 1.2; stroke-linejoin: miter"/>
   </g>
   <g id="patch_34">
    <path d="M 134.646229 129.135719 
L 207.570896 129.135719 
L 207.570896 182.367719 
L 134.646229 182.367719 
z
" clip-path="url(#p7dffdf640d)" style="fill: #f2f2f2; stroke: #ffffff; stroke-width: 1.2; stroke-linejoin: miter"/>
   </g>
   <g id="patch_35">
    <path d="M 207.570896 129.135719 
L 280.495563 129.135719 
L 280.495563 182.367719 
L 207.570896 182.367719 
z
" clip-path="url(#p7dffdf640d)" style="fill: #b5121b; stroke: #ffffff; stroke-width: 1.2; stroke-linejoin: miter"/>
   </g>
   <g id="patch_36">
    <path d="M 280.495563 129.135719 
L 353.420229 129.135719 
L 353.420229 182.367719 
L 280.495563 182.367719 
z
" clip-path="url(#p7dffdf640d)" style="fill: #f2f2f2; stroke: #ffffff; stroke-width: 1.2; stroke-linejoin: miter"/>
   </g>
   <g id="patch_37">
    <path d="M 353.420229 129.135719 
L 426.344896 129.135719 
L 426.344896 182.367719 
L 353.420229 182.367719 
z
" clip-path="url(#p7dffdf640d)" style="fill: #f2f2f2; stroke: #ffffff; stroke-width: 1.2; stroke-linejoin: miter"/>
   </g>
   <g id="patch_38">
    <path d="M 426.344896 129.135719 
L 499.269563 129.135719 
L 499.269563 182.367719 
L 426.344896 182.367719 
z
" clip-path="url(#p7dffdf640d)" style="fill: #f2f2f2; stroke: #ffffff; stroke-width: 1.2; stroke-linejoin: miter"/>
   </g>
   <g id="patch_39">
    <path d="M 499.269563 129.135719 
L 572.194229 129.135719 
L 572.194229 182.367719 
L 499.269563 182.367719 
z
" clip-path="url(#p7dffdf640d)" style="fill: #f2f2f2; stroke: #ffffff; stroke-width: 1.2; stroke-linejoin: miter"/>
   </g>
   <g id="patch_40">
    <path d="M 572.194229 129.135719 
L 645.118896 129.135719 
L 645.118896 182.367719 
L 572.194229 182.367719 
z
" clip-path="url(#p7dffdf640d)" style="fill: #f2f2f2; stroke: #ffffff; stroke-width: 1.2; stroke-linejoin: miter"/>
   </g>
   <g id="patch_41">
    <path d="M 645.118896 129.135719 
L 718.043563 129.135719 
L 718.043563 182.367719 
L 645.118896 182.367719 
z
" clip-path="url(#p7dffdf640d)" style="fill: #f2f2f2; stroke: #ffffff; stroke-width: 1.2; stroke-linejoin: miter"/>
   </g>
   <g id="patch_42">
    <path d="M 718.043563 129.135719 
L 790.968229 129.135719 
L 790.968229 182.367719 
L 718.043563 182.367719 
z
" clip-path="url(#p7dffdf640d)" style="fill: #f2f2f2; stroke: #ffffff; stroke-width: 1.2; stroke-linejoin: miter"/>
   </g>
   <g id="patch_43">
    <path d="M 790.968229 129.135719 
L 863.892896 129.135719 
L 863.892896 182.367719 
L 790.968229 182.367719 
z
" clip-path="url(#p7dffdf640d)" style="fill: #b5121b; stroke: #ffffff; stroke-width: 1.2; stroke-linejoin: miter"/>
   </g>
   <g id="patch_44">
    <path d="M 863.892896 129.135719 
L 936.817563 129.135719 
L 936.817563 182.367719 
L 863.892896 182.367719 
z
" clip-path="url(#p7dffdf640d)" style="fill: #f2f2f2; stroke: #ffffff; stroke-width: 1.2; stroke-linejoin: miter"/>
   </g>
   <g id="patch_45">
    <path d="M 936.817563 129.135719 
L 1009.742229 129.135719 
L 1009.742229 182.367719 
L 936.817563 182.367719 
z
" clip-path="url(#p7dffdf640d)" style="fill: #b5121b; stroke: #ffffff; stroke-width: 1.2; stroke-linejoin: miter"/>
   </g>
   <g id="patch_46">
    <path d="M 1009.742229 129.135719 
L 1082.666896 129.135719 
L 1082.666896 182.367719 
L 1009.742229 182.367719 
z
" clip-path="url(#p7dffdf640d)" style="fill: #b5121b; stroke: #ffffff; stroke-width: 1.2; stroke-linejoin: miter"/>
   </g>
   <g id="patch_47">
    <path d="M 1082.666896 129.135719 
L 1155.591562 129.135719 
L 1155.591562 182.367719 
L 1082.666896 182.367719 
z
" clip-path="url(#p7dffdf640d)" style="fill: #b5121b; stroke: #ffffff; stroke-width: 1.2; stroke-linejoin: miter"/>
   </g>
   <g id="patch_48">
    <path d="M 61.721562 182.367719 
L 134.646229 182.367719 
L 134.646229 235.599719 
L 61.721562 235.599719 
z
" clip-path="url(#p7dffdf640d)" style="fill: #f2f2f2; stroke: #ffffff; stroke-width: 1.2; stroke-linejoin: miter"/>
   </g>
   <g id="patch_49">
    <path d="M 134.646229 182.367719 
L 207.570896 182.367719 
L 207.570896 235.599719 
L 134.646229 235.599719 
z
" clip-path="url(#p7dffdf640d)" style="fill: #f2f2f2; stroke: #ffffff; stroke-width: 1.2; stroke-linejoin: miter"/>
   </g>
   <g id="patch_50">
    <path d="M 207.570896 182.367719 
L 280.495563 182.367719 
L 280.495563 235.599719 
L 207.570896 235.599719 
z
" clip-path="url(#p7dffdf640d)" style="fill: #f2f2f2; stroke: #ffffff; stroke-width: 1.2; stroke-linejoin: miter"/>
   </g>
   <g id="patch_51">
    <path d="M 280.495563 182.367719 
L 353.420229 182.367719 
L 353.420229 235.599719 
L 280.495563 235.599719 
z
" clip-path="url(#p7dffdf640d)" style="fill: #f2f2f2; stroke: #ffffff; stroke-width: 1.2; stroke-linejoin: miter"/>
   </g>
   <g id="patch_52">
    <path d="M 353.420229 182.367719 
L 426.344896 182.367719 
L 426.344896 235.599719 
L 353.420229 235.599719 
z
" clip-path="url(#p7dffdf640d)" style="fill: #f2f2f2; stroke: #ffffff; stroke-width: 1.2; stroke-linejoin: miter"/>
   </g>
   <g id="patch_53">
    <path d="M 426.344896 182.367719 
L 499.269563 182.367719 
L 499.269563 235.599719 
L 426.344896 235.599719 
z
" clip-path="url(#p7dffdf640d)" style="fill: #f2f2f2; stroke: #ffffff; stroke-width: 1.2; stroke-linejoin: miter"/>
   </g>
   <g id="patch_54">
    <path d="M 499.269563 182.367719 
L 572.194229 182.367719 
L 572.194229 235.599719 
L 499.269563 235.599719 
z
" clip-path="url(#p7dffdf640d)" style="fill: #b5121b; stroke: #ffffff; stroke-width: 1.2; stroke-linejoin: miter"/>
   </g>
   <g id="patch_55">
    <path d="M 572.194229 182.367719 
L 645.118896 182.367719 
L 645.118896 235.599719 
L 572.194229 235.599719 
z
" clip-path="url(#p7dffdf640d)" style="fill: #f2f2f2; stroke: #ffffff; stroke-width: 1.2; stroke-linejoin: miter"/>
   </g>
   <g id="patch_56">
    <path d="M 645.118896 182.367719 
L 718.043563 182.367719 
L 718.043563 235.599719 
L 645.118896 235.599719 
z
" clip-path="url(#p7dffdf640d)" style="fill: #b5121b; stroke: #ffffff; stroke-width: 1.2; stroke-linejoin: miter"/>
   </g>
   <g id="patch_57">
    <path d="M 718.043563 182.367719 
L 790.968229 182.367719 
L 790.968229 235.599719 
L 718.043563 235.599719 
z
" clip-path="url(#p7dffdf640d)" style="fill: #f2f2f2; stroke: #ffffff; stroke-width: 1.2; stroke-linejoin: miter"/>
   </g>
   <g id="patch_58">
    <path d="M 790.968229 182.367719 
L 863.892896 182.367719 
L 863.892896 235.599719 
L 790.968229 235.599719 
z
" clip-path="url(#p7dffdf640d)" style="fill: #b5121b; stroke: #ffffff; stroke-width: 1.2; stroke-linejoin: miter"/>
   </g>
   <g id="patch_59">
    <path d="M 863.892896 182.367719 
L 936.817563 182.367719 
L 936.817563 235.599719 
L 863.892896 235.599719 
z
" clip-path="url(#p7dffdf640d)" style="fill: #b5121b; stroke: #ffffff; stroke-width: 1.2; stroke-linejoin: miter"/>
   </g>
   <g id="patch_60">
    <path d="M 936.817563 182.367719 
L 1009.742229 182.367719 
L 1009.742229 235.599719 
L 936.817563 235.599719 
z
" clip-path="url(#p7dffdf640d)" style="fill: #b5121b; stroke: #ffffff; stroke-width: 1.2; stroke-linejoin: miter"/>
   </g>
   <g id="patch_61">
    <path d="M 1009.742229 182.367719 
L 1082.666896 182.367719 
L 1082.666896 235.599719 
L 1009.742229 235.599719 
z
" clip-path="url(#p7dffdf640d)" style="fill: #b5121b; stroke: #ffffff; stroke-width: 1.2; stroke-linejoin: miter"/>
   </g>
   <g id="patch_62">
    <path d="M 1082.666896 182.367719 
L 1155.591562 182.367719 
L 1155.591562 235.599719 
L 1082.666896 235.599719 
z
" clip-path="url(#p7dffdf640d)" style="fill: #b5121b; stroke: #ffffff; stroke-width: 1.2; stroke-linejoin: miter"/>
   </g>
   <g id="patch_63">
    <path d="M 61.721562 235.599719 
L 134.646229 235.599719 
L 134.646229 288.831719 
L 61.721562 288.831719 
z
" clip-path="url(#p7dffdf640d)" style="fill: #f2f2f2; stroke: #ffffff; stroke-width: 1.2; stroke-linejoin: miter"/>
   </g>
   <g id="patch_64">
    <path d="M 134.646229 235.599719 
L 207.570896 235.599719 
L 207.570896 288.831719 
L 134.646229 288.831719 
z
" clip-path="url(#p7dffdf640d)" style="fill: #86bc25; stroke: #ffffff; stroke-width: 1.2; stroke-linejoin: miter"/>
   </g>
   <g id="patch_65">
    <path d="M 207.570896 235.599719 
L 280.495563 235.599719 
L 280.495563 288.831719 
L 207.570896 288.831719 
z
" clip-path="url(#p7dffdf640d)" style="fill: #f2f2f2; stroke: #ffffff; stroke-width: 1.2; stroke-linejoin: miter"/>
   </g>
   <g id="patch_66">
    <path d="M 280.495563 235.599719 
L 353.420229 235.599719 
L 353.420229 288.831719 
L 280.495563 288.831719 
z
" clip-path="url(#p7dffdf640d)" style="fill: #f2f2f2; stroke: #ffffff; stroke-width: 1.2; stroke-linejoin: miter"/>
   </g>
   <g id="patch_67">
    <path d="M 353.420229 235.599719 
L 426.344896 235.599719 
L 426.344896 288.831719 
L 353.420229 288.831719 
z
" clip-path="url(#p7dffdf640d)" style="fill: #f2f2f2; stroke: #ffffff; stroke-width: 1.2; stroke-linejoin: miter"/>
   </g>
   <g id="patch_68">
    <path d="M 426.344896 235.599719 
L 499.269563 235.599719 
L 499.269563 288.831719 
L 426.344896 288.831719 
z
" clip-path="url(#p7dffdf640d)" style="fill: #f2f2f2; stroke: #ffffff; stroke-width: 1.2; stroke-linejoin: miter"/>
   </g>
   <g id="patch_69">
    <path d="M 499.269563 235.599719 
L 572.194229 235.599719 
L 572.194229 288.831719 
L 499.269563 288.831719 
z
" clip-path="url(#p7dffdf640d)" style="fill: #f2f2f2; stroke: #ffffff; stroke-width: 1.2; stroke-linejoin: miter"/>
   </g>
   <g id="patch_70">
    <path d="M 572.194229 235.599719 
L 645.118896 235.599719 
L 645.118896 288.831719 
L 572.194229 288.831719 
z
" clip-path="url(#p7dffdf640d)" style="fill: #b5121b; stroke: #ffffff; stroke-width: 1.2; stroke-linejoin: miter"/>
   </g>
   <g id="patch_71">
    <path d="M 645.118896 235.599719 
L 718.043563 235.599719 
L 718.043563 288.831719 
L 645.118896 288.831719 
z
" clip-path="url(#p7dffdf640d)" style="fill: #b5121b; stroke: #ffffff; stroke-width: 1.2; stroke-linejoin: miter"/>
   </g>
   <g id="patch_72">
    <path d="M 718.043563 235.599719 
L 790.968229 235.599719 
L 790.968229 288.831719 
L 718.043563 288.831719 
z
" clip-path="url(#p7dffdf640d)" style="fill: #f2f2f2; stroke: #ffffff; stroke-width: 1.2; stroke-linejoin: miter"/>
   </g>
   <g id="patch_73">
    <path d="M 790.968229 235.599719 
L 863.892896 235.599719 
L 863.892896 288.831719 
L 790.968229 288.831719 
z
" clip-path="url(#p7dffdf640d)" style="fill: #86bc25; stroke: #ffffff; stroke-width: 1.2; stroke-linejoin: miter"/>
   </g>
   <g id="patch_74">
    <path d="M 863.892896 235.599719 
L 936.817563 235.599719 
L 936.817563 288.831719 
L 863.892896 288.831719 
z
" clip-path="url(#p7dffdf640d)" style="fill: #f2f2f2; stroke: #ffffff; stroke-width: 1.2; stroke-linejoin: miter"/>
   </g>
   <g id="patch_75">
    <path d="M 936.817563 235.599719 
L 1009.742229 235.599719 
L 1009.742229 288.831719 
L 936.817563 288.831719 
z
" clip-path="url(#p7dffdf640d)" style="fill: #f2f2f2; stroke: #ffffff; stroke-width: 1.2; stroke-linejoin: miter"/>
   </g>
   <g id="patch_76">
    <path d="M 1009.742229 235.599719 
L 1082.666896 235.599719 
L 1082.666896 288.831719 
L 1009.742229 288.831719 
z
" clip-path="url(#p7dffdf640d)" style="fill: #f2f2f2; stroke: #ffffff; stroke-width: 1.2; stroke-linejoin: miter"/>
   </g>
   <g id="patch_77">
    <path d="M 1082.666896 235.599719 
L 1155.591562 235.599719 
L 1155.591562 288.831719 
L 1082.666896 288.831719 
z
" clip-path="url(#p7dffdf640d)" style="fill: #86bc25; stroke: #ffffff; stroke-width: 1.2; stroke-linejoin: miter"/>
   </g>
   <g id="matplotlib.axis_1">
    <g id="xtick_1">
     <g id="line2d_1"/>
     <g id="text_1">
      <!-- q0.10 -->
      <g style="fill: #44546a" transform="translate(82.905086 310.552093) rotate(-45) scale(0.08 -0.08)">
       <defs>
        <path id="ArialMT-71" d="M 2538 -1272 
L 2538 353 
Q 2406 169 2170 47 
Q 1934 -75 1669 -75 
Q 1078 -75 651 397 
Q 225 869 225 1691 
Q 225 2191 398 2587 
Q 572 2984 901 3189 
Q 1231 3394 1625 3394 
Q 2241 3394 2594 2875 
L 2594 3319 
L 3100 3319 
L 3100 -1272 
L 2538 -1272 
z
M 803 1669 
Q 803 1028 1072 708 
Q 1341 388 1716 388 
Q 2075 388 2334 692 
Q 2594 997 2594 1619 
Q 2594 2281 2320 2615 
Q 2047 2950 1678 2950 
Q 1313 2950 1058 2639 
Q 803 2328 803 1669 
z
" transform="scale(0.015625)"/>
        <path id="ArialMT-30" d="M 266 2259 
Q 266 3072 433 3567 
Q 600 4063 929 4331 
Q 1259 4600 1759 4600 
Q 2128 4600 2406 4451 
Q 2684 4303 2865 4023 
Q 3047 3744 3150 3342 
Q 3253 2941 3253 2259 
Q 3253 1453 3087 958 
Q 2922 463 2592 192 
Q 2263 -78 1759 -78 
Q 1097 -78 719 397 
Q 266 969 266 2259 
z
M 844 2259 
Q 844 1131 1108 757 
Q 1372 384 1759 384 
Q 2147 384 2411 759 
Q 2675 1134 2675 2259 
Q 2675 3391 2411 3762 
Q 2147 4134 1753 4134 
Q 1366 4134 1134 3806 
Q 844 3388 844 2259 
z
" transform="scale(0.015625)"/>
        <path id="ArialMT-2e" d="M 581 0 
L 581 641 
L 1222 641 
L 1222 0 
L 581 0 
z
" transform="scale(0.015625)"/>
        <path id="ArialMT-31" d="M 2384 0 
L 1822 0 
L 1822 3584 
Q 1619 3391 1289 3197 
Q 959 3003 697 2906 
L 697 3450 
Q 1169 3672 1522 3987 
Q 1875 4303 2022 4600 
L 2384 4600 
L 2384 0 
z
" transform="scale(0.015625)"/>
       </defs>
       <use xlink:href="#ArialMT-71"/>
       <use xlink:href="#ArialMT-30" transform="translate(55.615234 0)"/>
       <use xlink:href="#ArialMT-2e" transform="translate(111.230469 0)"/>
       <use xlink:href="#ArialMT-31" transform="translate(139.013672 0)"/>
       <use xlink:href="#ArialMT-30" transform="translate(194.628906 0)"/>
      </g>
     </g>
    </g>
    <g id="xtick_2">
     <g id="line2d_2"/>
     <g id="text_2">
      <!-- q0.25 -->
      <g style="fill: #44546a" transform="translate(155.829753 310.552093) rotate(-45) scale(0.08 -0.08)">
       <defs>
        <path id="ArialMT-32" d="M 3222 541 
L 3222 0 
L 194 0 
Q 188 203 259 391 
Q 375 700 629 1000 
Q 884 1300 1366 1694 
Q 2113 2306 2375 2664 
Q 2638 3022 2638 3341 
Q 2638 3675 2398 3904 
Q 2159 4134 1775 4134 
Q 1369 4134 1125 3890 
Q 881 3647 878 3216 
L 300 3275 
Q 359 3922 746 4261 
Q 1134 4600 1788 4600 
Q 2447 4600 2831 4234 
Q 3216 3869 3216 3328 
Q 3216 3053 3103 2787 
Q 2991 2522 2730 2228 
Q 2469 1934 1863 1422 
Q 1356 997 1212 845 
Q 1069 694 975 541 
L 3222 541 
z
" transform="scale(0.015625)"/>
        <path id="ArialMT-35" d="M 266 1200 
L 856 1250 
Q 922 819 1161 601 
Q 1400 384 1738 384 
Q 2144 384 2425 690 
Q 2706 997 2706 1503 
Q 2706 1984 2436 2262 
Q 2166 2541 1728 2541 
Q 1456 2541 1237 2417 
Q 1019 2294 894 2097 
L 366 2166 
L 809 4519 
L 3088 4519 
L 3088 3981 
L 1259 3981 
L 1013 2750 
Q 1425 3038 1878 3038 
Q 2478 3038 2890 2622 
Q 3303 2206 3303 1553 
Q 3303 931 2941 478 
Q 2500 -78 1738 -78 
Q 1113 -78 717 272 
Q 322 622 266 1200 
z
" transform="scale(0.015625)"/>
       </defs>
       <use xlink:href="#ArialMT-71"/>
       <use xlink:href="#ArialMT-30" transform="translate(55.615234 0)"/>
       <use xlink:href="#ArialMT-2e" transform="translate(111.230469 0)"/>
       <use xlink:href="#ArialMT-32" transform="translate(139.013672 0)"/>
       <use xlink:href="#ArialMT-35" transform="translate(194.628906 0)"/>
      </g>
     </g>
    </g>
    <g id="xtick_3">
     <g id="line2d_3"/>
     <g id="text_3">
      <!-- q0.50 -->
      <g style="fill: #44546a" transform="translate(228.754419 310.552093) rotate(-45) scale(0.08 -0.08)">
       <use xlink:href="#ArialMT-71"/>
       <use xlink:href="#ArialMT-30" transform="translate(55.615234 0)"/>
       <use xlink:href="#ArialMT-2e" transform="translate(111.230469 0)"/>
       <use xlink:href="#ArialMT-35" transform="translate(139.013672 0)"/>
       <use xlink:href="#ArialMT-30" transform="translate(194.628906 0)"/>
      </g>
     </g>
    </g>
    <g id="xtick_4">
     <g id="line2d_4"/>
     <g id="text_4">
      <!-- q0.75 -->
      <g style="fill: #44546a" transform="translate(301.679086 310.552093) rotate(-45) scale(0.08 -0.08)">
       <defs>
        <path id="ArialMT-37" d="M 303 3981 
L 303 4522 
L 3269 4522 
L 3269 4084 
Q 2831 3619 2401 2847 
Q 1972 2075 1738 1259 
Q 1569 684 1522 0 
L 944 0 
Q 953 541 1156 1306 
Q 1359 2072 1739 2783 
Q 2119 3494 2547 3981 
L 303 3981 
z
" transform="scale(0.015625)"/>
       </defs>
       <use xlink:href="#ArialMT-71"/>
       <use xlink:href="#ArialMT-30" transform="translate(55.615234 0)"/>
       <use xlink:href="#ArialMT-2e" transform="translate(111.230469 0)"/>
       <use xlink:href="#ArialMT-37" transform="translate(139.013672 0)"/>
       <use xlink:href="#ArialMT-35" transform="translate(194.628906 0)"/>
      </g>
     </g>
    </g>
    <g id="xtick_5">
     <g id="line2d_5"/>
     <g id="text_5">
      <!-- q0.90 -->
      <g style="fill: #44546a" transform="translate(374.603753 310.552093) rotate(-45) scale(0.08 -0.08)">
       <defs>
        <path id="ArialMT-39" d="M 350 1059 
L 891 1109 
Q 959 728 1153 556 
Q 1347 384 1650 384 
Q 1909 384 2104 503 
Q 2300 622 2425 820 
Q 2550 1019 2634 1356 
Q 2719 1694 2719 2044 
Q 2719 2081 2716 2156 
Q 2547 1888 2255 1720 
Q 1963 1553 1622 1553 
Q 1053 1553 659 1965 
Q 266 2378 266 3053 
Q 266 3750 677 4175 
Q 1088 4600 1706 4600 
Q 2153 4600 2523 4359 
Q 2894 4119 3086 3673 
Q 3278 3228 3278 2384 
Q 3278 1506 3087 986 
Q 2897 466 2520 194 
Q 2144 -78 1638 -78 
Q 1100 -78 759 220 
Q 419 519 350 1059 
z
M 2653 3081 
Q 2653 3566 2395 3850 
Q 2138 4134 1775 4134 
Q 1400 4134 1122 3828 
Q 844 3522 844 3034 
Q 844 2597 1108 2323 
Q 1372 2050 1759 2050 
Q 2150 2050 2401 2323 
Q 2653 2597 2653 3081 
z
" transform="scale(0.015625)"/>
       </defs>
       <use xlink:href="#ArialMT-71"/>
       <use xlink:href="#ArialMT-30" transform="translate(55.615234 0)"/>
       <use xlink:href="#ArialMT-2e" transform="translate(111.230469 0)"/>
       <use xlink:href="#ArialMT-39" transform="translate(139.013672 0)"/>
       <use xlink:href="#ArialMT-30" transform="translate(194.628906 0)"/>
      </g>
     </g>
    </g>
    <g id="xtick_6">
     <g id="line2d_6"/>
     <g id="text_6">
      <!-- q0.10 -->
      <g style="fill: #44546a" transform="translate(447.528419 310.552093) rotate(-45) scale(0.08 -0.08)">
       <use xlink:href="#ArialMT-71"/>
       <use xlink:href="#ArialMT-30" transform="translate(55.615234 0)"/>
       <use xlink:href="#ArialMT-2e" transform="translate(111.230469 0)"/>
       <use xlink:href="#ArialMT-31" transform="translate(139.013672 0)"/>
       <use xlink:href="#ArialMT-30" transform="translate(194.628906 0)"/>
      </g>
     </g>
    </g>
    <g id="xtick_7">
     <g id="line2d_7"/>
     <g id="text_7">
      <!-- q0.25 -->
      <g style="fill: #44546a" transform="translate(520.453086 310.552093) rotate(-45) scale(0.08 -0.08)">
       <use xlink:href="#ArialMT-71"/>
       <use xlink:href="#ArialMT-30" transform="translate(55.615234 0)"/>
       <use xlink:href="#ArialMT-2e" transform="translate(111.230469 0)"/>
       <use xlink:href="#ArialMT-32" transform="translate(139.013672 0)"/>
       <use xlink:href="#ArialMT-35" transform="translate(194.628906 0)"/>
      </g>
     </g>
    </g>
    <g id="xtick_8">
     <g id="line2d_8"/>
     <g id="text_8">
      <!-- q0.50 -->
      <g style="fill: #44546a" transform="translate(593.377753 310.552093) rotate(-45) scale(0.08 -0.08)">
       <use xlink:href="#ArialMT-71"/>
       <use xlink:href="#ArialMT-30" transform="translate(55.615234 0)"/>
       <use xlink:href="#ArialMT-2e" transform="translate(111.230469 0)"/>
       <use xlink:href="#ArialMT-35" transform="translate(139.013672 0)"/>
       <use xlink:href="#ArialMT-30" transform="translate(194.628906 0)"/>
      </g>
     </g>
    </g>
    <g id="xtick_9">
     <g id="line2d_9"/>
     <g id="text_9">
      <!-- q0.75 -->
      <g style="fill: #44546a" transform="translate(666.302419 310.552093) rotate(-45) scale(0.08 -0.08)">
       <use xlink:href="#ArialMT-71"/>
       <use xlink:href="#ArialMT-30" transform="translate(55.615234 0)"/>
       <use xlink:href="#ArialMT-2e" transform="translate(111.230469 0)"/>
       <use xlink:href="#ArialMT-37" transform="translate(139.013672 0)"/>
       <use xlink:href="#ArialMT-35" transform="translate(194.628906 0)"/>
      </g>
     </g>
    </g>
    <g id="xtick_10">
     <g id="line2d_10"/>
     <g id="text_10">
      <!-- q0.90 -->
      <g style="fill: #44546a" transform="translate(739.227086 310.552093) rotate(-45) scale(0.08 -0.08)">
       <use xlink:href="#ArialMT-71"/>
       <use xlink:href="#ArialMT-30" transform="translate(55.615234 0)"/>
       <use xlink:href="#ArialMT-2e" transform="translate(111.230469 0)"/>
       <use xlink:href="#ArialMT-39" transform="translate(139.013672 0)"/>
       <use xlink:href="#ArialMT-30" transform="translate(194.628906 0)"/>
      </g>
     </g>
    </g>
    <g id="xtick_11">
     <g id="line2d_11"/>
     <g id="text_11">
      <!-- q0.10 -->
      <g style="fill: #44546a" transform="translate(812.151753 310.552093) rotate(-45) scale(0.08 -0.08)">
       <use xlink:href="#ArialMT-71"/>
       <use xlink:href="#ArialMT-30" transform="translate(55.615234 0)"/>
       <use xlink:href="#ArialMT-2e" transform="translate(111.230469 0)"/>
       <use xlink:href="#ArialMT-31" transform="translate(139.013672 0)"/>
       <use xlink:href="#ArialMT-30" transform="translate(194.628906 0)"/>
      </g>
     </g>
    </g>
    <g id="xtick_12">
     <g id="line2d_12"/>
     <g id="text_12">
      <!-- q0.25 -->
      <g style="fill: #44546a" transform="translate(885.076419 310.552093) rotate(-45) scale(0.08 -0.08)">
       <use xlink:href="#ArialMT-71"/>
       <use xlink:href="#ArialMT-30" transform="translate(55.615234 0)"/>
       <use xlink:href="#ArialMT-2e" transform="translate(111.230469 0)"/>
       <use xlink:href="#ArialMT-32" transform="translate(139.013672 0)"/>
       <use xlink:href="#ArialMT-35" transform="translate(194.628906 0)"/>
      </g>
     </g>
    </g>
    <g id="xtick_13">
     <g id="line2d_13"/>
     <g id="text_13">
      <!-- q0.50 -->
      <g style="fill: #44546a" transform="translate(958.001086 310.552093) rotate(-45) scale(0.08 -0.08)">
       <use xlink:href="#ArialMT-71"/>
       <use xlink:href="#ArialMT-30" transform="translate(55.615234 0)"/>
       <use xlink:href="#ArialMT-2e" transform="translate(111.230469 0)"/>
       <use xlink:href="#ArialMT-35" transform="translate(139.013672 0)"/>
       <use xlink:href="#ArialMT-30" transform="translate(194.628906 0)"/>
      </g>
     </g>
    </g>
    <g id="xtick_14">
     <g id="line2d_14"/>
     <g id="text_14">
      <!-- q0.75 -->
      <g style="fill: #44546a" transform="translate(1030.925753 310.552093) rotate(-45) scale(0.08 -0.08)">
       <use xlink:href="#ArialMT-71"/>
       <use xlink:href="#ArialMT-30" transform="translate(55.615234 0)"/>
       <use xlink:href="#ArialMT-2e" transform="translate(111.230469 0)"/>
       <use xlink:href="#ArialMT-37" transform="translate(139.013672 0)"/>
       <use xlink:href="#ArialMT-35" transform="translate(194.628906 0)"/>
      </g>
     </g>
    </g>
    <g id="xtick_15">
     <g id="line2d_15"/>
     <g id="text_15">
      <!-- q0.90 -->
      <g style="fill: #44546a" transform="translate(1103.850419 310.552093) rotate(-45) scale(0.08 -0.08)">
       <use xlink:href="#ArialMT-71"/>
       <use xlink:href="#ArialMT-30" transform="translate(55.615234 0)"/>
       <use xlink:href="#ArialMT-2e" transform="translate(111.230469 0)"/>
       <use xlink:href="#ArialMT-39" transform="translate(139.013672 0)"/>
       <use xlink:href="#ArialMT-30" transform="translate(194.628906 0)"/>
      </g>
     </g>
    </g>
   </g>
   <g id="matplotlib.axis_2">
    <g id="ytick_1">
     <g id="line2d_16"/>
     <g id="text_16">
      <!-- ΔVSTOXX -->
      <g style="fill: #44546a" transform="translate(15.856875 52.508734) scale(0.09 -0.09)">
       <defs>
        <path id="ArialMT-394" d="M -6 0 
L 1753 4581 
L 2406 4581 
L 4281 0 
L -6 0 
z
M 834 541 
L 3381 541 
L 2391 3150 
Q 2169 3738 2066 4100 
Q 1981 3675 1819 3225 
L 834 541 
z
" transform="scale(0.015625)"/>
        <path id="ArialMT-56" d="M 1803 0 
L 28 4581 
L 684 4581 
L 1875 1253 
Q 2019 853 2116 503 
Q 2222 878 2363 1253 
L 3600 4581 
L 4219 4581 
L 2425 0 
L 1803 0 
z
" transform="scale(0.015625)"/>
        <path id="ArialMT-53" d="M 288 1472 
L 859 1522 
Q 900 1178 1048 958 
Q 1197 738 1509 602 
Q 1822 466 2213 466 
Q 2559 466 2825 569 
Q 3091 672 3220 851 
Q 3350 1031 3350 1244 
Q 3350 1459 3225 1620 
Q 3100 1781 2813 1891 
Q 2628 1963 1997 2114 
Q 1366 2266 1113 2400 
Q 784 2572 623 2826 
Q 463 3081 463 3397 
Q 463 3744 659 4045 
Q 856 4347 1234 4503 
Q 1613 4659 2075 4659 
Q 2584 4659 2973 4495 
Q 3363 4331 3572 4012 
Q 3781 3694 3797 3291 
L 3216 3247 
Q 3169 3681 2898 3903 
Q 2628 4125 2100 4125 
Q 1550 4125 1298 3923 
Q 1047 3722 1047 3438 
Q 1047 3191 1225 3031 
Q 1400 2872 2139 2705 
Q 2878 2538 3153 2413 
Q 3553 2228 3743 1945 
Q 3934 1663 3934 1294 
Q 3934 928 3725 604 
Q 3516 281 3123 101 
Q 2731 -78 2241 -78 
Q 1619 -78 1198 103 
Q 778 284 539 648 
Q 300 1013 288 1472 
z
" transform="scale(0.015625)"/>
        <path id="ArialMT-54" d="M 1659 0 
L 1659 4041 
L 150 4041 
L 150 4581 
L 3781 4581 
L 3781 4041 
L 2266 4041 
L 2266 0 
L 1659 0 
z
" transform="scale(0.015625)"/>
        <path id="ArialMT-4f" d="M 309 2231 
Q 309 3372 921 4017 
Q 1534 4663 2503 4663 
Q 3138 4663 3647 4359 
Q 4156 4056 4423 3514 
Q 4691 2972 4691 2284 
Q 4691 1588 4409 1038 
Q 4128 488 3612 205 
Q 3097 -78 2500 -78 
Q 1853 -78 1343 234 
Q 834 547 571 1087 
Q 309 1628 309 2231 
z
M 934 2222 
Q 934 1394 1379 917 
Q 1825 441 2497 441 
Q 3181 441 3623 922 
Q 4066 1403 4066 2288 
Q 4066 2847 3877 3264 
Q 3688 3681 3323 3911 
Q 2959 4141 2506 4141 
Q 1863 4141 1398 3698 
Q 934 3256 934 2222 
z
" transform="scale(0.015625)"/>
        <path id="ArialMT-58" d="M 28 0 
L 1800 2388 
L 238 4581 
L 959 4581 
L 1791 3406 
Q 2050 3041 2159 2844 
Q 2313 3094 2522 3366 
L 3444 4581 
L 4103 4581 
L 2494 2422 
L 4228 0 
L 3478 0 
L 2325 1634 
Q 2228 1775 2125 1941 
Q 1972 1691 1906 1597 
L 756 0 
L 28 0 
z
" transform="scale(0.015625)"/>
       </defs>
       <use xlink:href="#ArialMT-394"/>
       <use xlink:href="#ArialMT-56" transform="translate(66.796875 0)"/>
       <use xlink:href="#ArialMT-53" transform="translate(133.496094 0)"/>
       <use xlink:href="#ArialMT-54" transform="translate(200.195312 0)"/>
       <use xlink:href="#ArialMT-4f" transform="translate(259.529297 0)"/>
       <use xlink:href="#ArialMT-58" transform="translate(337.3125 0)"/>
       <use xlink:href="#ArialMT-58" transform="translate(404.011719 0)"/>
      </g>
     </g>
    </g>
    <g id="ytick_2">
     <g id="line2d_17"/>
     <g id="text_17">
      <!-- ΔBund 10Y -->
      <g style="fill: #44546a" transform="translate(12.67875 105.740734) scale(0.09 -0.09)">
       <defs>
        <path id="ArialMT-42" d="M 469 0 
L 469 4581 
L 2188 4581 
Q 2713 4581 3030 4442 
Q 3347 4303 3526 4014 
Q 3706 3725 3706 3409 
Q 3706 3116 3547 2856 
Q 3388 2597 3066 2438 
Q 3481 2316 3704 2022 
Q 3928 1728 3928 1328 
Q 3928 1006 3792 729 
Q 3656 453 3456 303 
Q 3256 153 2954 76 
Q 2653 0 2216 0 
L 469 0 
z
M 1075 2656 
L 2066 2656 
Q 2469 2656 2644 2709 
Q 2875 2778 2992 2937 
Q 3109 3097 3109 3338 
Q 3109 3566 3000 3739 
Q 2891 3913 2687 3977 
Q 2484 4041 1991 4041 
L 1075 4041 
L 1075 2656 
z
M 1075 541 
L 2216 541 
Q 2509 541 2628 563 
Q 2838 600 2978 687 
Q 3119 775 3209 942 
Q 3300 1109 3300 1328 
Q 3300 1584 3169 1773 
Q 3038 1963 2805 2039 
Q 2572 2116 2134 2116 
L 1075 2116 
L 1075 541 
z
" transform="scale(0.015625)"/>
        <path id="ArialMT-75" d="M 2597 0 
L 2597 488 
Q 2209 -75 1544 -75 
Q 1250 -75 995 37 
Q 741 150 617 320 
Q 494 491 444 738 
Q 409 903 409 1263 
L 409 3319 
L 972 3319 
L 972 1478 
Q 972 1038 1006 884 
Q 1059 663 1231 536 
Q 1403 409 1656 409 
Q 1909 409 2131 539 
Q 2353 669 2445 892 
Q 2538 1116 2538 1541 
L 2538 3319 
L 3100 3319 
L 3100 0 
L 2597 0 
z
" transform="scale(0.015625)"/>
        <path id="ArialMT-6e" d="M 422 0 
L 422 3319 
L 928 3319 
L 928 2847 
Q 1294 3394 1984 3394 
Q 2284 3394 2536 3286 
Q 2788 3178 2913 3003 
Q 3038 2828 3088 2588 
Q 3119 2431 3119 2041 
L 3119 0 
L 2556 0 
L 2556 2019 
Q 2556 2363 2490 2533 
Q 2425 2703 2258 2804 
Q 2091 2906 1866 2906 
Q 1506 2906 1245 2678 
Q 984 2450 984 1813 
L 984 0 
L 422 0 
z
" transform="scale(0.015625)"/>
        <path id="ArialMT-64" d="M 2575 0 
L 2575 419 
Q 2259 -75 1647 -75 
Q 1250 -75 917 144 
Q 584 363 401 755 
Q 219 1147 219 1656 
Q 219 2153 384 2558 
Q 550 2963 881 3178 
Q 1213 3394 1622 3394 
Q 1922 3394 2156 3267 
Q 2391 3141 2538 2938 
L 2538 4581 
L 3097 4581 
L 3097 0 
L 2575 0 
z
M 797 1656 
Q 797 1019 1065 703 
Q 1334 388 1700 388 
Q 2069 388 2326 689 
Q 2584 991 2584 1609 
Q 2584 2291 2321 2609 
Q 2059 2928 1675 2928 
Q 1300 2928 1048 2622 
Q 797 2316 797 1656 
z
" transform="scale(0.015625)"/>
        <path id="ArialMT-20" transform="scale(0.015625)"/>
        <path id="ArialMT-59" d="M 1784 0 
L 1784 1941 
L 19 4581 
L 756 4581 
L 1659 3200 
Q 1909 2813 2125 2425 
Q 2331 2784 2625 3234 
L 3513 4581 
L 4219 4581 
L 2391 1941 
L 2391 0 
L 1784 0 
z
" transform="scale(0.015625)"/>
       </defs>
       <use xlink:href="#ArialMT-394"/>
       <use xlink:href="#ArialMT-42" transform="translate(66.796875 0)"/>
       <use xlink:href="#ArialMT-75" transform="translate(133.496094 0)"/>
       <use xlink:href="#ArialMT-6e" transform="translate(189.111328 0)"/>
       <use xlink:href="#ArialMT-64" transform="translate(244.726562 0)"/>
       <use xlink:href="#ArialMT-20" transform="translate(300.341797 0)"/>
       <use xlink:href="#ArialMT-31" transform="translate(328.125 0)"/>
       <use xlink:href="#ArialMT-30" transform="translate(383.740234 0)"/>
       <use xlink:href="#ArialMT-59" transform="translate(439.355469 0)"/>
      </g>
     </g>
    </g>
    <g id="ytick_3">
     <g id="line2d_18"/>
     <g id="text_18">
      <!-- TTF Return -->
      <g style="fill: #44546a" transform="translate(12.218906 158.972734) scale(0.09 -0.09)">
       <defs>
        <path id="ArialMT-46" d="M 525 0 
L 525 4581 
L 3616 4581 
L 3616 4041 
L 1131 4041 
L 1131 2622 
L 3281 2622 
L 3281 2081 
L 1131 2081 
L 1131 0 
L 525 0 
z
" transform="scale(0.015625)"/>
        <path id="ArialMT-52" d="M 503 0 
L 503 4581 
L 2534 4581 
Q 3147 4581 3465 4457 
Q 3784 4334 3975 4021 
Q 4166 3709 4166 3331 
Q 4166 2844 3850 2509 
Q 3534 2175 2875 2084 
Q 3116 1969 3241 1856 
Q 3506 1613 3744 1247 
L 4541 0 
L 3778 0 
L 3172 953 
Q 2906 1366 2734 1584 
Q 2563 1803 2427 1890 
Q 2291 1978 2150 2013 
Q 2047 2034 1813 2034 
L 1109 2034 
L 1109 0 
L 503 0 
z
M 1109 2559 
L 2413 2559 
Q 2828 2559 3062 2645 
Q 3297 2731 3419 2920 
Q 3541 3109 3541 3331 
Q 3541 3656 3305 3865 
Q 3069 4075 2559 4075 
L 1109 4075 
L 1109 2559 
z
" transform="scale(0.015625)"/>
        <path id="ArialMT-65" d="M 2694 1069 
L 3275 997 
Q 3138 488 2766 206 
Q 2394 -75 1816 -75 
Q 1088 -75 661 373 
Q 234 822 234 1631 
Q 234 2469 665 2931 
Q 1097 3394 1784 3394 
Q 2450 3394 2872 2941 
Q 3294 2488 3294 1666 
Q 3294 1616 3291 1516 
L 816 1516 
Q 847 969 1125 678 
Q 1403 388 1819 388 
Q 2128 388 2347 550 
Q 2566 713 2694 1069 
z
M 847 1978 
L 2700 1978 
Q 2663 2397 2488 2606 
Q 2219 2931 1791 2931 
Q 1403 2931 1139 2672 
Q 875 2413 847 1978 
z
" transform="scale(0.015625)"/>
        <path id="ArialMT-74" d="M 1650 503 
L 1731 6 
Q 1494 -44 1306 -44 
Q 1000 -44 831 53 
Q 663 150 594 308 
Q 525 466 525 972 
L 525 2881 
L 113 2881 
L 113 3319 
L 525 3319 
L 525 4141 
L 1084 4478 
L 1084 3319 
L 1650 3319 
L 1650 2881 
L 1084 2881 
L 1084 941 
Q 1084 700 1114 631 
Q 1144 563 1211 522 
Q 1278 481 1403 481 
Q 1497 481 1650 503 
z
" transform="scale(0.015625)"/>
        <path id="ArialMT-72" d="M 416 0 
L 416 3319 
L 922 3319 
L 922 2816 
Q 1116 3169 1280 3281 
Q 1444 3394 1641 3394 
Q 1925 3394 2219 3213 
L 2025 2691 
Q 1819 2813 1613 2813 
Q 1428 2813 1281 2702 
Q 1134 2591 1072 2394 
Q 978 2094 978 1738 
L 978 0 
L 416 0 
z
" transform="scale(0.015625)"/>
       </defs>
       <use xlink:href="#ArialMT-54"/>
       <use xlink:href="#ArialMT-54" transform="translate(61.083984 0)"/>
       <use xlink:href="#ArialMT-46" transform="translate(122.167969 0)"/>
       <use xlink:href="#ArialMT-20" transform="translate(183.251953 0)"/>
       <use xlink:href="#ArialMT-52" transform="translate(211.035156 0)"/>
       <use xlink:href="#ArialMT-65" transform="translate(283.251953 0)"/>
       <use xlink:href="#ArialMT-74" transform="translate(338.867188 0)"/>
       <use xlink:href="#ArialMT-75" transform="translate(366.650391 0)"/>
       <use xlink:href="#ArialMT-72" transform="translate(422.265625 0)"/>
       <use xlink:href="#ArialMT-6e" transform="translate(455.566406 0)"/>
      </g>
     </g>
    </g>
    <g id="ytick_4">
     <g id="line2d_19"/>
     <g id="text_19">
      <!-- Brent Return -->
      <g style="fill: #44546a" transform="translate(7.2 212.204734) scale(0.09 -0.09)">
       <use xlink:href="#ArialMT-42"/>
       <use xlink:href="#ArialMT-72" transform="translate(66.699219 0)"/>
       <use xlink:href="#ArialMT-65" transform="translate(100 0)"/>
       <use xlink:href="#ArialMT-6e" transform="translate(155.615234 0)"/>
       <use xlink:href="#ArialMT-74" transform="translate(211.230469 0)"/>
       <use xlink:href="#ArialMT-20" transform="translate(239.013672 0)"/>
       <use xlink:href="#ArialMT-52" transform="translate(266.796875 0)"/>
       <use xlink:href="#ArialMT-65" transform="translate(339.013672 0)"/>
       <use xlink:href="#ArialMT-74" transform="translate(394.628906 0)"/>
       <use xlink:href="#ArialMT-75" transform="translate(422.412109 0)"/>
       <use xlink:href="#ArialMT-72" transform="translate(478.027344 0)"/>
       <use xlink:href="#ArialMT-6e" transform="translate(511.328125 0)"/>
      </g>
     </g>
    </g>
    <g id="ytick_5">
     <g id="line2d_20"/>
     <g id="text_20">
      <!-- EUA Return -->
      <g style="fill: #44546a" transform="translate(10.69875 265.436734) scale(0.09 -0.09)">
       <defs>
        <path id="ArialMT-45" d="M 506 0 
L 506 4581 
L 3819 4581 
L 3819 4041 
L 1113 4041 
L 1113 2638 
L 3647 2638 
L 3647 2100 
L 1113 2100 
L 1113 541 
L 3925 541 
L 3925 0 
L 506 0 
z
" transform="scale(0.015625)"/>
        <path id="ArialMT-55" d="M 3500 4581 
L 4106 4581 
L 4106 1934 
Q 4106 1244 3950 837 
Q 3794 431 3386 176 
Q 2978 -78 2316 -78 
Q 1672 -78 1262 144 
Q 853 366 678 786 
Q 503 1206 503 1934 
L 503 4581 
L 1109 4581 
L 1109 1938 
Q 1109 1341 1220 1058 
Q 1331 775 1601 622 
Q 1872 469 2263 469 
Q 2931 469 3215 772 
Q 3500 1075 3500 1938 
L 3500 4581 
z
" transform="scale(0.015625)"/>
        <path id="ArialMT-41" d="M -9 0 
L 1750 4581 
L 2403 4581 
L 4278 0 
L 3588 0 
L 3053 1388 
L 1138 1388 
L 634 0 
L -9 0 
z
M 1313 1881 
L 2866 1881 
L 2388 3150 
Q 2169 3728 2063 4100 
Q 1975 3659 1816 3225 
L 1313 1881 
z
" transform="scale(0.015625)"/>
       </defs>
       <use xlink:href="#ArialMT-45"/>
       <use xlink:href="#ArialMT-55" transform="translate(66.699219 0)"/>
       <use xlink:href="#ArialMT-41" transform="translate(138.916016 0)"/>
       <use xlink:href="#ArialMT-20" transform="translate(200.115234 0)"/>
       <use xlink:href="#ArialMT-52" transform="translate(227.898438 0)"/>
       <use xlink:href="#ArialMT-65" transform="translate(300.115234 0)"/>
       <use xlink:href="#ArialMT-74" transform="translate(355.730469 0)"/>
       <use xlink:href="#ArialMT-75" transform="translate(383.513672 0)"/>
       <use xlink:href="#ArialMT-72" transform="translate(439.128906 0)"/>
       <use xlink:href="#ArialMT-6e" transform="translate(472.429688 0)"/>
      </g>
     </g>
    </g>
   </g>
   <g id="line2d_21">
    <path d="M 426.344896 288.831719 
L 426.344896 22.671719 
" clip-path="url(#p7dffdf640d)" style="fill: none; stroke: #5b5b5b; stroke-opacity: 0.35; stroke-linecap: square"/>
   </g>
   <g id="line2d_22">
    <path d="M 790.968229 288.831719 
L 790.968229 22.671719 
" clip-path="url(#p7dffdf640d)" style="fill: none; stroke: #5b5b5b; stroke-opacity: 0.35; stroke-linecap: square"/>
   </g>
   <g id="text_21">
    <!-- - -->
    <g style="fill: #ffffff" transform="translate(169.443719 51.879906) scale(0.1 -0.1)">
     <defs>
      <path id="Arial-BoldMT-2d" d="M 359 1222 
L 359 2100 
L 2084 2100 
L 2084 1222 
L 359 1222 
z
" transform="scale(0.015625)"/>
     </defs>
     <use xlink:href="#Arial-BoldMT-2d"/>
    </g>
   </g>
   <g id="text_22">
    <!-- - -->
    <g style="fill: #ffffff" transform="translate(242.368385 51.879906) scale(0.1 -0.1)">
     <use xlink:href="#Arial-BoldMT-2d"/>
    </g>
   </g>
   <g id="text_23">
    <!-- - -->
    <g style="fill: #ffffff" transform="translate(315.293052 51.879906) scale(0.1 -0.1)">
     <use xlink:href="#Arial-BoldMT-2d"/>
    </g>
   </g>
   <g id="text_24">
    <!-- - -->
    <g style="fill: #ffffff" transform="translate(388.217719 51.879906) scale(0.1 -0.1)">
     <use xlink:href="#Arial-BoldMT-2d"/>
    </g>
   </g>
   <g id="text_25">
    <!-- + -->
    <g style="fill: #ffffff" transform="translate(95.263583 105.111906) scale(0.1 -0.1)">
     <defs>
      <path id="Arial-BoldMT-2b" d="M 1466 659 
L 1466 1850 
L 266 1850 
L 266 2672 
L 1466 2672 
L 1466 3863 
L 2266 3863 
L 2266 2672 
L 3469 2672 
L 3469 1850 
L 2266 1850 
L 2266 659 
L 1466 659 
z
" transform="scale(0.015625)"/>
     </defs>
     <use xlink:href="#Arial-BoldMT-2b"/>
    </g>
   </g>
   <g id="text_26">
    <!-- + -->
    <g style="fill: #ffffff" transform="translate(168.18825 105.111906) scale(0.1 -0.1)">
     <use xlink:href="#Arial-BoldMT-2b"/>
    </g>
   </g>
   <g id="text_27">
    <!-- + -->
    <g style="fill: #ffffff" transform="translate(241.112917 105.111906) scale(0.1 -0.1)">
     <use xlink:href="#Arial-BoldMT-2b"/>
    </g>
   </g>
   <g id="text_28">
    <!-- + -->
    <g style="fill: #ffffff" transform="translate(314.037583 105.111906) scale(0.1 -0.1)">
     <use xlink:href="#Arial-BoldMT-2b"/>
    </g>
   </g>
   <g id="text_29">
    <!-- + -->
    <g style="fill: #ffffff" transform="translate(386.96225 105.111906) scale(0.1 -0.1)">
     <use xlink:href="#Arial-BoldMT-2b"/>
    </g>
   </g>
   <g id="text_30">
    <!-- - -->
    <g style="fill: #ffffff" transform="translate(534.067052 105.111906) scale(0.1 -0.1)">
     <use xlink:href="#Arial-BoldMT-2d"/>
    </g>
   </g>
   <g id="text_31">
    <!-- - -->
    <g style="fill: #ffffff" transform="translate(606.991719 105.111906) scale(0.1 -0.1)">
     <use xlink:href="#Arial-BoldMT-2d"/>
    </g>
   </g>
   <g id="text_32">
    <!-- - -->
    <g style="fill: #ffffff" transform="translate(679.916385 105.111906) scale(0.1 -0.1)">
     <use xlink:href="#Arial-BoldMT-2d"/>
    </g>
   </g>
   <g id="text_33">
    <!-- - -->
    <g style="fill: #ffffff" transform="translate(825.765719 105.111906) scale(0.1 -0.1)">
     <use xlink:href="#Arial-BoldMT-2d"/>
    </g>
   </g>
   <g id="text_34">
    <!-- - -->
    <g style="fill: #ffffff" transform="translate(242.368385 158.343906) scale(0.1 -0.1)">
     <use xlink:href="#Arial-BoldMT-2d"/>
    </g>
   </g>
   <g id="text_35">
    <!-- - -->
    <g style="fill: #ffffff" transform="translate(825.765719 158.343906) scale(0.1 -0.1)">
     <use xlink:href="#Arial-BoldMT-2d"/>
    </g>
   </g>
   <g id="text_36">
    <!-- - -->
    <g style="fill: #ffffff" transform="translate(971.615052 158.343906) scale(0.1 -0.1)">
     <use xlink:href="#Arial-BoldMT-2d"/>
    </g>
   </g>
   <g id="text_37">
    <!-- - -->
    <g style="fill: #ffffff" transform="translate(1044.539719 158.343906) scale(0.1 -0.1)">
     <use xlink:href="#Arial-BoldMT-2d"/>
    </g>
   </g>
   <g id="text_38">
    <!-- - -->
    <g style="fill: #ffffff" transform="translate(1117.464385 158.343906) scale(0.1 -0.1)">
     <use xlink:href="#Arial-BoldMT-2d"/>
    </g>
   </g>
   <g id="text_39">
    <!-- - -->
    <g style="fill: #ffffff" transform="translate(534.067052 211.575906) scale(0.1 -0.1)">
     <use xlink:href="#Arial-BoldMT-2d"/>
    </g>
   </g>
   <g id="text_40">
    <!-- - -->
    <g style="fill: #ffffff" transform="translate(679.916385 211.575906) scale(0.1 -0.1)">
     <use xlink:href="#Arial-BoldMT-2d"/>
    </g>
   </g>
   <g id="text_41">
    <!-- - -->
    <g style="fill: #ffffff" transform="translate(825.765719 211.575906) scale(0.1 -0.1)">
     <use xlink:href="#Arial-BoldMT-2d"/>
    </g>
   </g>
   <g id="text_42">
    <!-- - -->
    <g style="fill: #ffffff" transform="translate(898.690385 211.575906) scale(0.1 -0.1)">
     <use xlink:href="#Arial-BoldMT-2d"/>
    </g>
   </g>
   <g id="text_43">
    <!-- - -->
    <g style="fill: #ffffff" transform="translate(971.615052 211.575906) scale(0.1 -0.1)">
     <use xlink:href="#Arial-BoldMT-2d"/>
    </g>
   </g>
   <g id="text_44">
    <!-- - -->
    <g style="fill: #ffffff" transform="translate(1044.539719 211.575906) scale(0.1 -0.1)">
     <use xlink:href="#Arial-BoldMT-2d"/>
    </g>
   </g>
   <g id="text_45">
    <!-- - -->
    <g style="fill: #ffffff" transform="translate(1117.464385 211.575906) scale(0.1 -0.1)">
     <use xlink:href="#Arial-BoldMT-2d"/>
    </g>
   </g>
   <g id="text_46">
    <!-- + -->
    <g style="fill: #ffffff" transform="translate(168.18825 264.807906) scale(0.1 -0.1)">
     <use xlink:href="#Arial-BoldMT-2b"/>
    </g>
   </g>
   <g id="text_47">
    <!-- - -->
    <g style="fill: #ffffff" transform="translate(606.991719 264.807906) scale(0.1 -0.1)">
     <use xlink:href="#Arial-BoldMT-2d"/>
    </g>
   </g>
   <g id="text_48">
    <!-- - -->
    <g style="fill: #ffffff" transform="translate(679.916385 264.807906) scale(0.1 -0.1)">
     <use xlink:href="#Arial-BoldMT-2d"/>
    </g>
   </g>
   <g id="text_49">
    <!-- + -->
    <g style="fill: #ffffff" transform="translate(824.51025 264.807906) scale(0.1 -0.1)">
     <use xlink:href="#Arial-BoldMT-2b"/>
    </g>
   </g>
   <g id="text_50">
    <!-- + -->
    <g style="fill: #ffffff" transform="translate(1116.208917 264.807906) scale(0.1 -0.1)">
     <use xlink:href="#Arial-BoldMT-2b"/>
    </g>
   </g>
   <g id="text_51">
    <!-- Pre-crisis -->
    <g style="fill: #44546a" transform="translate(223.52026 356.49055) scale(0.09 -0.09)">
     <defs>
      <path id="Arial-BoldMT-50" d="M 466 0 
L 466 4581 
L 1950 4581 
Q 2794 4581 3050 4513 
Q 3444 4409 3709 4064 
Q 3975 3719 3975 3172 
Q 3975 2750 3822 2462 
Q 3669 2175 3433 2011 
Q 3197 1847 2953 1794 
Q 2622 1728 1994 1728 
L 1391 1728 
L 1391 0 
L 466 0 
z
M 1391 3806 
L 1391 2506 
L 1897 2506 
Q 2444 2506 2628 2578 
Q 2813 2650 2917 2803 
Q 3022 2956 3022 3159 
Q 3022 3409 2875 3571 
Q 2728 3734 2503 3775 
Q 2338 3806 1838 3806 
L 1391 3806 
z
" transform="scale(0.015625)"/>
      <path id="Arial-BoldMT-72" d="M 1300 0 
L 422 0 
L 422 3319 
L 1238 3319 
L 1238 2847 
Q 1447 3181 1614 3287 
Q 1781 3394 1994 3394 
Q 2294 3394 2572 3228 
L 2300 2463 
Q 2078 2606 1888 2606 
Q 1703 2606 1575 2504 
Q 1447 2403 1373 2137 
Q 1300 1872 1300 1025 
L 1300 0 
z
" transform="scale(0.015625)"/>
      <path id="Arial-BoldMT-65" d="M 2381 1056 
L 3256 909 
Q 3088 428 2723 176 
Q 2359 -75 1813 -75 
Q 947 -75 531 491 
Q 203 944 203 1634 
Q 203 2459 634 2926 
Q 1066 3394 1725 3394 
Q 2466 3394 2894 2905 
Q 3322 2416 3303 1406 
L 1103 1406 
Q 1113 1016 1316 798 
Q 1519 581 1822 581 
Q 2028 581 2168 693 
Q 2309 806 2381 1056 
z
M 2431 1944 
Q 2422 2325 2234 2523 
Q 2047 2722 1778 2722 
Q 1491 2722 1303 2513 
Q 1116 2303 1119 1944 
L 2431 1944 
z
" transform="scale(0.015625)"/>
      <path id="Arial-BoldMT-63" d="M 3353 2338 
L 2488 2181 
Q 2444 2441 2289 2572 
Q 2134 2703 1888 2703 
Q 1559 2703 1364 2476 
Q 1169 2250 1169 1719 
Q 1169 1128 1367 884 
Q 1566 641 1900 641 
Q 2150 641 2309 783 
Q 2469 925 2534 1272 
L 3397 1125 
Q 3263 531 2881 228 
Q 2500 -75 1859 -75 
Q 1131 -75 698 384 
Q 266 844 266 1656 
Q 266 2478 700 2936 
Q 1134 3394 1875 3394 
Q 2481 3394 2839 3133 
Q 3197 2872 3353 2338 
z
" transform="scale(0.015625)"/>
      <path id="Arial-BoldMT-69" d="M 459 3769 
L 459 4581 
L 1338 4581 
L 1338 3769 
L 459 3769 
z
M 459 0 
L 459 3319 
L 1338 3319 
L 1338 0 
L 459 0 
z
" transform="scale(0.015625)"/>
      <path id="Arial-BoldMT-73" d="M 150 947 
L 1031 1081 
Q 1088 825 1259 692 
Q 1431 559 1741 559 
Q 2081 559 2253 684 
Q 2369 772 2369 919 
Q 2369 1019 2306 1084 
Q 2241 1147 2013 1200 
Q 950 1434 666 1628 
Q 272 1897 272 2375 
Q 272 2806 612 3100 
Q 953 3394 1669 3394 
Q 2350 3394 2681 3172 
Q 3013 2950 3138 2516 
L 2309 2363 
Q 2256 2556 2107 2659 
Q 1959 2763 1684 2763 
Q 1338 2763 1188 2666 
Q 1088 2597 1088 2488 
Q 1088 2394 1175 2328 
Q 1294 2241 1995 2081 
Q 2697 1922 2975 1691 
Q 3250 1456 3250 1038 
Q 3250 581 2869 253 
Q 2488 -75 1741 -75 
Q 1063 -75 667 200 
Q 272 475 150 947 
z
" transform="scale(0.015625)"/>
     </defs>
     <use xlink:href="#Arial-BoldMT-50"/>
     <use xlink:href="#Arial-BoldMT-72" transform="translate(66.699219 0)"/>
     <use xlink:href="#Arial-BoldMT-65" transform="translate(105.615234 0)"/>
     <use xlink:href="#Arial-BoldMT-2d" transform="translate(161.230469 0)"/>
     <use xlink:href="#Arial-BoldMT-63" transform="translate(194.53125 0)"/>
     <use xlink:href="#Arial-BoldMT-72" transform="translate(250.146484 0)"/>
     <use xlink:href="#Arial-BoldMT-69" transform="translate(289.0625 0)"/>
     <use xlink:href="#Arial-BoldMT-73" transform="translate(316.845703 0)"/>
     <use xlink:href="#Arial-BoldMT-69" transform="translate(372.460938 0)"/>
     <use xlink:href="#Arial-BoldMT-73" transform="translate(400.244141 0)"/>
    </g>
    <!-- 2012-2019 -->
    <g style="fill: #44546a" transform="translate(222.515495 365.997081) scale(0.09 -0.09)">
     <defs>
      <path id="Arial-BoldMT-32" d="M 3238 816 
L 3238 0 
L 159 0 
Q 209 463 459 877 
Q 709 1291 1447 1975 
Q 2041 2528 2175 2725 
Q 2356 2997 2356 3263 
Q 2356 3556 2198 3714 
Q 2041 3872 1763 3872 
Q 1488 3872 1325 3706 
Q 1163 3541 1138 3156 
L 263 3244 
Q 341 3969 753 4284 
Q 1166 4600 1784 4600 
Q 2463 4600 2850 4234 
Q 3238 3869 3238 3325 
Q 3238 3016 3127 2736 
Q 3016 2456 2775 2150 
Q 2616 1947 2200 1565 
Q 1784 1184 1673 1059 
Q 1563 934 1494 816 
L 3238 816 
z
" transform="scale(0.015625)"/>
      <path id="Arial-BoldMT-30" d="M 1756 4600 
Q 2422 4600 2797 4125 
Q 3244 3563 3244 2259 
Q 3244 959 2794 391 
Q 2422 -78 1756 -78 
Q 1088 -78 678 436 
Q 269 950 269 2269 
Q 269 3563 719 4131 
Q 1091 4600 1756 4600 
z
M 1756 3872 
Q 1597 3872 1472 3770 
Q 1347 3669 1278 3406 
Q 1188 3066 1188 2259 
Q 1188 1453 1269 1151 
Q 1350 850 1473 750 
Q 1597 650 1756 650 
Q 1916 650 2041 751 
Q 2166 853 2234 1116 
Q 2325 1453 2325 2259 
Q 2325 3066 2244 3367 
Q 2163 3669 2039 3770 
Q 1916 3872 1756 3872 
z
" transform="scale(0.015625)"/>
      <path id="Arial-BoldMT-31" d="M 2519 0 
L 1641 0 
L 1641 3309 
Q 1159 2859 506 2644 
L 506 3441 
Q 850 3553 1253 3867 
Q 1656 4181 1806 4600 
L 2519 4600 
L 2519 0 
z
" transform="scale(0.015625)"/>
      <path id="Arial-BoldMT-39" d="M 291 1059 
L 1141 1153 
Q 1172 894 1303 769 
Q 1434 644 1650 644 
Q 1922 644 2112 894 
Q 2303 1144 2356 1931 
Q 2025 1547 1528 1547 
Q 988 1547 595 1964 
Q 203 2381 203 3050 
Q 203 3747 617 4173 
Q 1031 4600 1672 4600 
Q 2369 4600 2816 4061 
Q 3263 3522 3263 2288 
Q 3263 1031 2797 475 
Q 2331 -81 1584 -81 
Q 1047 -81 715 205 
Q 384 491 291 1059 
z
M 2278 2978 
Q 2278 3403 2083 3637 
Q 1888 3872 1631 3872 
Q 1388 3872 1227 3680 
Q 1066 3488 1066 3050 
Q 1066 2606 1241 2398 
Q 1416 2191 1678 2191 
Q 1931 2191 2104 2391 
Q 2278 2591 2278 2978 
z
" transform="scale(0.015625)"/>
     </defs>
     <use xlink:href="#Arial-BoldMT-32"/>
     <use xlink:href="#Arial-BoldMT-30" transform="translate(55.615234 0)"/>
     <use xlink:href="#Arial-BoldMT-31" transform="translate(111.230469 0)"/>
     <use xlink:href="#Arial-BoldMT-32" transform="translate(166.845703 0)"/>
     <use xlink:href="#Arial-BoldMT-2d" transform="translate(222.460938 0)"/>
     <use xlink:href="#Arial-BoldMT-32" transform="translate(255.761719 0)"/>
     <use xlink:href="#Arial-BoldMT-30" transform="translate(311.376953 0)"/>
     <use xlink:href="#Arial-BoldMT-31" transform="translate(366.992188 0)"/>
     <use xlink:href="#Arial-BoldMT-39" transform="translate(422.607422 0)"/>
    </g>
   </g>
   <g id="text_52">
    <!-- COVID &amp; energy crisis -->
    <g style="fill: #44546a" transform="translate(560.889766 356.600237) scale(0.09 -0.09)">
     <defs>
      <path id="Arial-BoldMT-43" d="M 3397 1684 
L 4294 1400 
Q 4088 650 3608 286 
Q 3128 -78 2391 -78 
Q 1478 -78 890 545 
Q 303 1169 303 2250 
Q 303 3394 893 4026 
Q 1484 4659 2447 4659 
Q 3288 4659 3813 4163 
Q 4125 3869 4281 3319 
L 3366 3100 
Q 3284 3456 3026 3662 
Q 2769 3869 2400 3869 
Q 1891 3869 1573 3503 
Q 1256 3138 1256 2319 
Q 1256 1450 1568 1081 
Q 1881 713 2381 713 
Q 2750 713 3015 947 
Q 3281 1181 3397 1684 
z
" transform="scale(0.015625)"/>
      <path id="Arial-BoldMT-4f" d="M 278 2263 
Q 278 2963 488 3438 
Q 644 3788 914 4066 
Q 1184 4344 1506 4478 
Q 1934 4659 2494 4659 
Q 3506 4659 4114 4031 
Q 4722 3403 4722 2284 
Q 4722 1175 4119 548 
Q 3516 -78 2506 -78 
Q 1484 -78 881 545 
Q 278 1169 278 2263 
z
M 1231 2294 
Q 1231 1516 1590 1114 
Q 1950 713 2503 713 
Q 3056 713 3411 1111 
Q 3766 1509 3766 2306 
Q 3766 3094 3420 3481 
Q 3075 3869 2503 3869 
Q 1931 3869 1581 3476 
Q 1231 3084 1231 2294 
z
" transform="scale(0.015625)"/>
      <path id="Arial-BoldMT-56" d="M 1634 0 
L -3 4581 
L 1000 4581 
L 2159 1191 
L 3281 4581 
L 4263 4581 
L 2622 0 
L 1634 0 
z
" transform="scale(0.015625)"/>
      <path id="Arial-BoldMT-49" d="M 438 0 
L 438 4581 
L 1363 4581 
L 1363 0 
L 438 0 
z
" transform="scale(0.015625)"/>
      <path id="Arial-BoldMT-44" d="M 463 4581 
L 2153 4581 
Q 2725 4581 3025 4494 
Q 3428 4375 3715 4072 
Q 4003 3769 4153 3330 
Q 4303 2891 4303 2247 
Q 4303 1681 4163 1272 
Q 3991 772 3672 463 
Q 3431 228 3022 97 
Q 2716 0 2203 0 
L 463 0 
L 463 4581 
z
M 1388 3806 
L 1388 772 
L 2078 772 
Q 2466 772 2638 816 
Q 2863 872 3011 1006 
Q 3159 1141 3253 1448 
Q 3347 1756 3347 2288 
Q 3347 2819 3253 3103 
Q 3159 3388 2990 3547 
Q 2822 3706 2563 3763 
Q 2369 3806 1803 3806 
L 1388 3806 
z
" transform="scale(0.015625)"/>
      <path id="Arial-BoldMT-20" transform="scale(0.015625)"/>
      <path id="Arial-BoldMT-26" d="M 4519 559 
L 3988 -119 
Q 3597 72 3238 406 
Q 2959 156 2646 37 
Q 2334 -81 1903 -81 
Q 1047 -81 616 400 
Q 281 772 281 1256 
Q 281 1697 543 2048 
Q 806 2400 1328 2659 
Q 1094 2938 975 3189 
Q 856 3441 856 3666 
Q 856 4081 1189 4370 
Q 1522 4659 2138 4659 
Q 2731 4659 3065 4356 
Q 3400 4053 3400 3616 
Q 3400 3338 3234 3088 
Q 3069 2838 2566 2522 
L 3203 1681 
Q 3316 1881 3397 2203 
L 4191 2022 
Q 4072 1600 3984 1404 
Q 3897 1209 3797 1078 
Q 3944 941 4176 777 
Q 4409 613 4519 559 
z
M 2128 3050 
L 2366 3231 
Q 2628 3434 2628 3634 
Q 2628 3803 2501 3922 
Q 2375 4041 2159 4041 
Q 1950 4041 1831 3936 
Q 1713 3831 1713 3694 
Q 1713 3531 1913 3300 
L 2128 3050 
z
M 1784 2097 
Q 1481 1944 1331 1728 
Q 1181 1513 1181 1288 
Q 1181 1003 1367 823 
Q 1553 644 1866 644 
Q 2072 644 2262 725 
Q 2453 806 2678 994 
L 1784 2097 
z
" transform="scale(0.015625)"/>
      <path id="Arial-BoldMT-6e" d="M 3478 0 
L 2600 0 
L 2600 1694 
Q 2600 2231 2544 2389 
Q 2488 2547 2361 2634 
Q 2234 2722 2056 2722 
Q 1828 2722 1647 2597 
Q 1466 2472 1398 2265 
Q 1331 2059 1331 1503 
L 1331 0 
L 453 0 
L 453 3319 
L 1269 3319 
L 1269 2831 
Q 1703 3394 2363 3394 
Q 2653 3394 2893 3289 
Q 3134 3184 3257 3021 
Q 3381 2859 3429 2653 
Q 3478 2447 3478 2063 
L 3478 0 
z
" transform="scale(0.015625)"/>
      <path id="Arial-BoldMT-67" d="M 378 -219 
L 1381 -341 
Q 1406 -516 1497 -581 
Q 1622 -675 1891 -675 
Q 2234 -675 2406 -572 
Q 2522 -503 2581 -350 
Q 2622 -241 2622 53 
L 2622 538 
Q 2228 0 1628 0 
Q 959 0 569 566 
Q 263 1013 263 1678 
Q 263 2513 664 2953 
Q 1066 3394 1663 3394 
Q 2278 3394 2678 2853 
L 2678 3319 
L 3500 3319 
L 3500 341 
Q 3500 -247 3403 -537 
Q 3306 -828 3131 -993 
Q 2956 -1159 2664 -1253 
Q 2372 -1347 1925 -1347 
Q 1081 -1347 728 -1058 
Q 375 -769 375 -325 
Q 375 -281 378 -219 
z
M 1163 1728 
Q 1163 1200 1367 954 
Q 1572 709 1872 709 
Q 2194 709 2416 961 
Q 2638 1213 2638 1706 
Q 2638 2222 2425 2472 
Q 2213 2722 1888 2722 
Q 1572 2722 1367 2476 
Q 1163 2231 1163 1728 
z
" transform="scale(0.015625)"/>
      <path id="Arial-BoldMT-79" d="M 44 3319 
L 978 3319 
L 1772 963 
L 2547 3319 
L 3456 3319 
L 2284 125 
L 2075 -453 
Q 1959 -744 1854 -897 
Q 1750 -1050 1614 -1145 
Q 1478 -1241 1279 -1294 
Q 1081 -1347 831 -1347 
Q 578 -1347 334 -1294 
L 256 -606 
Q 463 -647 628 -647 
Q 934 -647 1081 -467 
Q 1228 -288 1306 -9 
L 44 3319 
z
" transform="scale(0.015625)"/>
     </defs>
     <use xlink:href="#Arial-BoldMT-43"/>
     <use xlink:href="#Arial-BoldMT-4f" transform="translate(72.216797 0)"/>
     <use xlink:href="#Arial-BoldMT-56" transform="translate(150 0)"/>
     <use xlink:href="#Arial-BoldMT-49" transform="translate(216.699219 0)"/>
     <use xlink:href="#Arial-BoldMT-44" transform="translate(244.482422 0)"/>
     <use xlink:href="#Arial-BoldMT-20" transform="translate(316.699219 0)"/>
     <use xlink:href="#Arial-BoldMT-26" transform="translate(344.482422 0)"/>
     <use xlink:href="#Arial-BoldMT-20" transform="translate(416.699219 0)"/>
     <use xlink:href="#Arial-BoldMT-65" transform="translate(444.482422 0)"/>
     <use xlink:href="#Arial-BoldMT-6e" transform="translate(500.097656 0)"/>
     <use xlink:href="#Arial-BoldMT-65" transform="translate(561.181641 0)"/>
     <use xlink:href="#Arial-BoldMT-72" transform="translate(616.796875 0)"/>
     <use xlink:href="#Arial-BoldMT-67" transform="translate(655.712891 0)"/>
     <use xlink:href="#Arial-BoldMT-79" transform="translate(716.796875 0)"/>
     <use xlink:href="#Arial-BoldMT-20" transform="translate(772.412109 0)"/>
     <use xlink:href="#Arial-BoldMT-63" transform="translate(800.195312 0)"/>
     <use xlink:href="#Arial-BoldMT-72" transform="translate(855.810547 0)"/>
     <use xlink:href="#Arial-BoldMT-69" transform="translate(894.726562 0)"/>
     <use xlink:href="#Arial-BoldMT-73" transform="translate(922.509766 0)"/>
     <use xlink:href="#Arial-BoldMT-69" transform="translate(978.125 0)"/>
     <use xlink:href="#Arial-BoldMT-73" transform="translate(1005.908203 0)"/>
    </g>
    <!-- 2020-2022 -->
    <g style="fill: #44546a" transform="translate(587.138828 366.224894) scale(0.09 -0.09)">
     <use xlink:href="#Arial-BoldMT-32"/>
     <use xlink:href="#Arial-BoldMT-30" transform="translate(55.615234 0)"/>
     <use xlink:href="#Arial-BoldMT-32" transform="translate(111.230469 0)"/>
     <use xlink:href="#Arial-BoldMT-30" transform="translate(166.845703 0)"/>
     <use xlink:href="#Arial-BoldMT-2d" transform="translate(222.460938 0)"/>
     <use xlink:href="#Arial-BoldMT-32" transform="translate(255.761719 0)"/>
     <use xlink:href="#Arial-BoldMT-30" transform="translate(311.376953 0)"/>
     <use xlink:href="#Arial-BoldMT-32" transform="translate(366.992188 0)"/>
     <use xlink:href="#Arial-BoldMT-32" transform="translate(422.607422 0)"/>
    </g>
   </g>
   <g id="text_53">
    <!-- Post-crisis repricing -->
    <g style="fill: #44546a" transform="translate(929.767708 356.49055) scale(0.09 -0.09)">
     <defs>
      <path id="Arial-BoldMT-6f" d="M 256 1706 
Q 256 2144 472 2553 
Q 688 2963 1083 3178 
Q 1478 3394 1966 3394 
Q 2719 3394 3200 2905 
Q 3681 2416 3681 1669 
Q 3681 916 3195 420 
Q 2709 -75 1972 -75 
Q 1516 -75 1102 131 
Q 688 338 472 736 
Q 256 1134 256 1706 
z
M 1156 1659 
Q 1156 1166 1390 903 
Q 1625 641 1969 641 
Q 2313 641 2545 903 
Q 2778 1166 2778 1666 
Q 2778 2153 2545 2415 
Q 2313 2678 1969 2678 
Q 1625 2678 1390 2415 
Q 1156 2153 1156 1659 
z
" transform="scale(0.015625)"/>
      <path id="Arial-BoldMT-74" d="M 1981 3319 
L 1981 2619 
L 1381 2619 
L 1381 1281 
Q 1381 875 1398 808 
Q 1416 741 1477 697 
Q 1538 653 1625 653 
Q 1747 653 1978 738 
L 2053 56 
Q 1747 -75 1359 -75 
Q 1122 -75 931 4 
Q 741 84 652 211 
Q 563 338 528 553 
Q 500 706 500 1172 
L 500 2619 
L 97 2619 
L 97 3319 
L 500 3319 
L 500 3978 
L 1381 4491 
L 1381 3319 
L 1981 3319 
z
" transform="scale(0.015625)"/>
      <path id="Arial-BoldMT-70" d="M 434 3319 
L 1253 3319 
L 1253 2831 
Q 1413 3081 1684 3237 
Q 1956 3394 2288 3394 
Q 2866 3394 3269 2941 
Q 3672 2488 3672 1678 
Q 3672 847 3265 386 
Q 2859 -75 2281 -75 
Q 2006 -75 1782 34 
Q 1559 144 1313 409 
L 1313 -1263 
L 434 -1263 
L 434 3319 
z
M 1303 1716 
Q 1303 1156 1525 889 
Q 1747 622 2066 622 
Q 2372 622 2575 867 
Q 2778 1113 2778 1672 
Q 2778 2194 2568 2447 
Q 2359 2700 2050 2700 
Q 1728 2700 1515 2451 
Q 1303 2203 1303 1716 
z
" transform="scale(0.015625)"/>
     </defs>
     <use xlink:href="#Arial-BoldMT-50"/>
     <use xlink:href="#Arial-BoldMT-6f" transform="translate(66.699219 0)"/>
     <use xlink:href="#Arial-BoldMT-73" transform="translate(127.783203 0)"/>
     <use xlink:href="#Arial-BoldMT-74" transform="translate(183.398438 0)"/>
     <use xlink:href="#Arial-BoldMT-2d" transform="translate(216.699219 0)"/>
     <use xlink:href="#Arial-BoldMT-63" transform="translate(250 0)"/>
     <use xlink:href="#Arial-BoldMT-72" transform="translate(305.615234 0)"/>
     <use xlink:href="#Arial-BoldMT-69" transform="translate(344.53125 0)"/>
     <use xlink:href="#Arial-BoldMT-73" transform="translate(372.314453 0)"/>
     <use xlink:href="#Arial-BoldMT-69" transform="translate(427.929688 0)"/>
     <use xlink:href="#Arial-BoldMT-73" transform="translate(455.712891 0)"/>
     <use xlink:href="#Arial-BoldMT-20" transform="translate(511.328125 0)"/>
     <use xlink:href="#Arial-BoldMT-72" transform="translate(539.111328 0)"/>
     <use xlink:href="#Arial-BoldMT-65" transform="translate(578.027344 0)"/>
     <use xlink:href="#Arial-BoldMT-70" transform="translate(633.642578 0)"/>
     <use xlink:href="#Arial-BoldMT-72" transform="translate(694.726562 0)"/>
     <use xlink:href="#Arial-BoldMT-69" transform="translate(733.642578 0)"/>
     <use xlink:href="#Arial-BoldMT-63" transform="translate(761.425781 0)"/>
     <use xlink:href="#Arial-BoldMT-69" transform="translate(817.041016 0)"/>
     <use xlink:href="#Arial-BoldMT-6e" transform="translate(844.824219 0)"/>
     <use xlink:href="#Arial-BoldMT-67" transform="translate(905.908203 0)"/>
    </g>
    <!-- 2023-2026 -->
    <g style="fill: #44546a" transform="translate(951.762161 366.115206) scale(0.09 -0.09)">
     <defs>
      <path id="Arial-BoldMT-33" d="M 241 1216 
L 1091 1319 
Q 1131 994 1309 822 
Q 1488 650 1741 650 
Q 2013 650 2198 856 
Q 2384 1063 2384 1413 
Q 2384 1744 2206 1937 
Q 2028 2131 1772 2131 
Q 1603 2131 1369 2066 
L 1466 2781 
Q 1822 2772 2009 2936 
Q 2197 3100 2197 3372 
Q 2197 3603 2059 3740 
Q 1922 3878 1694 3878 
Q 1469 3878 1309 3722 
Q 1150 3566 1116 3266 
L 306 3403 
Q 391 3819 561 4067 
Q 731 4316 1036 4458 
Q 1341 4600 1719 4600 
Q 2366 4600 2756 4188 
Q 3078 3850 3078 3425 
Q 3078 2822 2419 2463 
Q 2813 2378 3048 2084 
Q 3284 1791 3284 1375 
Q 3284 772 2843 347 
Q 2403 -78 1747 -78 
Q 1125 -78 715 280 
Q 306 638 241 1216 
z
" transform="scale(0.015625)"/>
      <path id="Arial-BoldMT-36" d="M 3247 3459 
L 2397 3366 
Q 2366 3628 2234 3753 
Q 2103 3878 1894 3878 
Q 1616 3878 1423 3628 
Q 1231 3378 1181 2588 
Q 1509 2975 1997 2975 
Q 2547 2975 2939 2556 
Q 3331 2138 3331 1475 
Q 3331 772 2918 347 
Q 2506 -78 1859 -78 
Q 1166 -78 719 461 
Q 272 1000 272 2228 
Q 272 3488 737 4044 
Q 1203 4600 1947 4600 
Q 2469 4600 2811 4308 
Q 3153 4016 3247 3459 
z
M 1256 1544 
Q 1256 1116 1453 883 
Q 1650 650 1903 650 
Q 2147 650 2309 840 
Q 2472 1031 2472 1466 
Q 2472 1913 2297 2120 
Q 2122 2328 1859 2328 
Q 1606 2328 1431 2129 
Q 1256 1931 1256 1544 
z
" transform="scale(0.015625)"/>
     </defs>
     <use xlink:href="#Arial-BoldMT-32"/>
     <use xlink:href="#Arial-BoldMT-30" transform="translate(55.615234 0)"/>
     <use xlink:href="#Arial-BoldMT-32" transform="translate(111.230469 0)"/>
     <use xlink:href="#Arial-BoldMT-33" transform="translate(166.845703 0)"/>
     <use xlink:href="#Arial-BoldMT-2d" transform="translate(222.460938 0)"/>
     <use xlink:href="#Arial-BoldMT-32" transform="translate(255.761719 0)"/>
     <use xlink:href="#Arial-BoldMT-30" transform="translate(311.376953 0)"/>
     <use xlink:href="#Arial-BoldMT-32" transform="translate(366.992188 0)"/>
     <use xlink:href="#Arial-BoldMT-36" transform="translate(422.607422 0)"/>
    </g>
   </g>
   <g id="text_54">
    <!-- QR Subsample Significance Summary -->
    <g style="fill: #26418f" transform="translate(498.116953 16.671719) scale(0.13 -0.13)">
     <defs>
      <path id="ArialMT-51" d="M 3966 491 
Q 4388 200 4744 66 
L 4566 -356 
Q 4072 -178 3581 206 
Q 3072 -78 2456 -78 
Q 1834 -78 1328 222 
Q 822 522 548 1065 
Q 275 1609 275 2291 
Q 275 2969 550 3525 
Q 825 4081 1333 4372 
Q 1841 4663 2469 4663 
Q 3103 4663 3612 4361 
Q 4122 4059 4389 3517 
Q 4656 2975 4656 2294 
Q 4656 1728 4484 1276 
Q 4313 825 3966 491 
z
M 2631 1266 
Q 3156 1119 3497 828 
Q 4031 1316 4031 2294 
Q 4031 2850 3842 3265 
Q 3653 3681 3289 3911 
Q 2925 4141 2472 4141 
Q 1794 4141 1347 3677 
Q 900 3213 900 2291 
Q 900 1397 1342 919 
Q 1784 441 2472 441 
Q 2797 441 3084 563 
Q 2800 747 2484 825 
L 2631 1266 
z
" transform="scale(0.015625)"/>
      <path id="ArialMT-62" d="M 941 0 
L 419 0 
L 419 4581 
L 981 4581 
L 981 2947 
Q 1338 3394 1891 3394 
Q 2197 3394 2470 3270 
Q 2744 3147 2920 2923 
Q 3097 2700 3197 2384 
Q 3297 2069 3297 1709 
Q 3297 856 2875 390 
Q 2453 -75 1863 -75 
Q 1275 -75 941 416 
L 941 0 
z
M 934 1684 
Q 934 1088 1097 822 
Q 1363 388 1816 388 
Q 2184 388 2453 708 
Q 2722 1028 2722 1663 
Q 2722 2313 2464 2622 
Q 2206 2931 1841 2931 
Q 1472 2931 1203 2611 
Q 934 2291 934 1684 
z
" transform="scale(0.015625)"/>
      <path id="ArialMT-73" d="M 197 991 
L 753 1078 
Q 800 744 1014 566 
Q 1228 388 1613 388 
Q 2000 388 2187 545 
Q 2375 703 2375 916 
Q 2375 1106 2209 1216 
Q 2094 1291 1634 1406 
Q 1016 1563 777 1677 
Q 538 1791 414 1992 
Q 291 2194 291 2438 
Q 291 2659 392 2848 
Q 494 3038 669 3163 
Q 800 3259 1026 3326 
Q 1253 3394 1513 3394 
Q 1903 3394 2198 3281 
Q 2494 3169 2634 2976 
Q 2775 2784 2828 2463 
L 2278 2388 
Q 2241 2644 2061 2787 
Q 1881 2931 1553 2931 
Q 1166 2931 1000 2803 
Q 834 2675 834 2503 
Q 834 2394 903 2306 
Q 972 2216 1119 2156 
Q 1203 2125 1616 2013 
Q 2213 1853 2448 1751 
Q 2684 1650 2818 1456 
Q 2953 1263 2953 975 
Q 2953 694 2789 445 
Q 2625 197 2315 61 
Q 2006 -75 1616 -75 
Q 969 -75 630 194 
Q 291 463 197 991 
z
" transform="scale(0.015625)"/>
      <path id="ArialMT-61" d="M 2588 409 
Q 2275 144 1986 34 
Q 1697 -75 1366 -75 
Q 819 -75 525 192 
Q 231 459 231 875 
Q 231 1119 342 1320 
Q 453 1522 633 1644 
Q 813 1766 1038 1828 
Q 1203 1872 1538 1913 
Q 2219 1994 2541 2106 
Q 2544 2222 2544 2253 
Q 2544 2597 2384 2738 
Q 2169 2928 1744 2928 
Q 1347 2928 1158 2789 
Q 969 2650 878 2297 
L 328 2372 
Q 403 2725 575 2942 
Q 747 3159 1072 3276 
Q 1397 3394 1825 3394 
Q 2250 3394 2515 3294 
Q 2781 3194 2906 3042 
Q 3031 2891 3081 2659 
Q 3109 2516 3109 2141 
L 3109 1391 
Q 3109 606 3145 398 
Q 3181 191 3288 0 
L 2700 0 
Q 2613 175 2588 409 
z
M 2541 1666 
Q 2234 1541 1622 1453 
Q 1275 1403 1131 1340 
Q 988 1278 909 1158 
Q 831 1038 831 891 
Q 831 666 1001 516 
Q 1172 366 1500 366 
Q 1825 366 2078 508 
Q 2331 650 2450 897 
Q 2541 1088 2541 1459 
L 2541 1666 
z
" transform="scale(0.015625)"/>
      <path id="ArialMT-6d" d="M 422 0 
L 422 3319 
L 925 3319 
L 925 2853 
Q 1081 3097 1340 3245 
Q 1600 3394 1931 3394 
Q 2300 3394 2536 3241 
Q 2772 3088 2869 2813 
Q 3263 3394 3894 3394 
Q 4388 3394 4653 3120 
Q 4919 2847 4919 2278 
L 4919 0 
L 4359 0 
L 4359 2091 
Q 4359 2428 4304 2576 
Q 4250 2725 4106 2815 
Q 3963 2906 3769 2906 
Q 3419 2906 3187 2673 
Q 2956 2441 2956 1928 
L 2956 0 
L 2394 0 
L 2394 2156 
Q 2394 2531 2256 2718 
Q 2119 2906 1806 2906 
Q 1569 2906 1367 2781 
Q 1166 2656 1075 2415 
Q 984 2175 984 1722 
L 984 0 
L 422 0 
z
" transform="scale(0.015625)"/>
      <path id="ArialMT-70" d="M 422 -1272 
L 422 3319 
L 934 3319 
L 934 2888 
Q 1116 3141 1344 3267 
Q 1572 3394 1897 3394 
Q 2322 3394 2647 3175 
Q 2972 2956 3137 2557 
Q 3303 2159 3303 1684 
Q 3303 1175 3120 767 
Q 2938 359 2589 142 
Q 2241 -75 1856 -75 
Q 1575 -75 1351 44 
Q 1128 163 984 344 
L 984 -1272 
L 422 -1272 
z
M 931 1641 
Q 931 1000 1190 694 
Q 1450 388 1819 388 
Q 2194 388 2461 705 
Q 2728 1022 2728 1688 
Q 2728 2322 2467 2637 
Q 2206 2953 1844 2953 
Q 1484 2953 1207 2617 
Q 931 2281 931 1641 
z
" transform="scale(0.015625)"/>
      <path id="ArialMT-6c" d="M 409 0 
L 409 4581 
L 972 4581 
L 972 0 
L 409 0 
z
" transform="scale(0.015625)"/>
      <path id="ArialMT-69" d="M 425 3934 
L 425 4581 
L 988 4581 
L 988 3934 
L 425 3934 
z
M 425 0 
L 425 3319 
L 988 3319 
L 988 0 
L 425 0 
z
" transform="scale(0.015625)"/>
      <path id="ArialMT-67" d="M 319 -275 
L 866 -356 
Q 900 -609 1056 -725 
Q 1266 -881 1628 -881 
Q 2019 -881 2231 -725 
Q 2444 -569 2519 -288 
Q 2563 -116 2559 434 
Q 2191 0 1641 0 
Q 956 0 581 494 
Q 206 988 206 1678 
Q 206 2153 378 2554 
Q 550 2956 876 3175 
Q 1203 3394 1644 3394 
Q 2231 3394 2613 2919 
L 2613 3319 
L 3131 3319 
L 3131 450 
Q 3131 -325 2973 -648 
Q 2816 -972 2473 -1159 
Q 2131 -1347 1631 -1347 
Q 1038 -1347 672 -1080 
Q 306 -813 319 -275 
z
M 784 1719 
Q 784 1066 1043 766 
Q 1303 466 1694 466 
Q 2081 466 2343 764 
Q 2606 1063 2606 1700 
Q 2606 2309 2336 2618 
Q 2066 2928 1684 2928 
Q 1309 2928 1046 2623 
Q 784 2319 784 1719 
z
" transform="scale(0.015625)"/>
      <path id="ArialMT-66" d="M 556 0 
L 556 2881 
L 59 2881 
L 59 3319 
L 556 3319 
L 556 3672 
Q 556 4006 616 4169 
Q 697 4388 901 4523 
Q 1106 4659 1475 4659 
Q 1713 4659 2000 4603 
L 1916 4113 
Q 1741 4144 1584 4144 
Q 1328 4144 1222 4034 
Q 1116 3925 1116 3625 
L 1116 3319 
L 1763 3319 
L 1763 2881 
L 1116 2881 
L 1116 0 
L 556 0 
z
" transform="scale(0.015625)"/>
      <path id="ArialMT-63" d="M 2588 1216 
L 3141 1144 
Q 3050 572 2676 248 
Q 2303 -75 1759 -75 
Q 1078 -75 664 370 
Q 250 816 250 1647 
Q 250 2184 428 2587 
Q 606 2991 970 3192 
Q 1334 3394 1763 3394 
Q 2303 3394 2647 3120 
Q 2991 2847 3088 2344 
L 2541 2259 
Q 2463 2594 2264 2762 
Q 2066 2931 1784 2931 
Q 1359 2931 1093 2626 
Q 828 2322 828 1663 
Q 828 994 1084 691 
Q 1341 388 1753 388 
Q 2084 388 2306 591 
Q 2528 794 2588 1216 
z
" transform="scale(0.015625)"/>
      <path id="ArialMT-79" d="M 397 -1278 
L 334 -750 
Q 519 -800 656 -800 
Q 844 -800 956 -737 
Q 1069 -675 1141 -563 
Q 1194 -478 1313 -144 
Q 1328 -97 1363 -6 
L 103 3319 
L 709 3319 
L 1400 1397 
Q 1534 1031 1641 628 
Q 1738 1016 1872 1384 
L 2581 3319 
L 3144 3319 
L 1881 -56 
Q 1678 -603 1566 -809 
Q 1416 -1088 1222 -1217 
Q 1028 -1347 759 -1347 
Q 597 -1347 397 -1278 
z
" transform="scale(0.015625)"/>
     </defs>
     <use xlink:href="#ArialMT-51"/>
     <use xlink:href="#ArialMT-52" transform="translate(77.783203 0)"/>
     <use xlink:href="#ArialMT-20" transform="translate(150 0)"/>
     <use xlink:href="#ArialMT-53" transform="translate(177.783203 0)"/>
     <use xlink:href="#ArialMT-75" transform="translate(244.482422 0)"/>
     <use xlink:href="#ArialMT-62" transform="translate(300.097656 0)"/>
     <use xlink:href="#ArialMT-73" transform="translate(355.712891 0)"/>
     <use xlink:href="#ArialMT-61" transform="translate(405.712891 0)"/>
     <use xlink:href="#ArialMT-6d" transform="translate(461.328125 0)"/>
     <use xlink:href="#ArialMT-70" transform="translate(544.628906 0)"/>
     <use xlink:href="#ArialMT-6c" transform="translate(600.244141 0)"/>
     <use xlink:href="#ArialMT-65" transform="translate(622.460938 0)"/>
     <use xlink:href="#ArialMT-20" transform="translate(678.076172 0)"/>
     <use xlink:href="#ArialMT-53" transform="translate(705.859375 0)"/>
     <use xlink:href="#ArialMT-69" transform="translate(772.558594 0)"/>
     <use xlink:href="#ArialMT-67" transform="translate(794.775391 0)"/>
     <use xlink:href="#ArialMT-6e" transform="translate(850.390625 0)"/>
     <use xlink:href="#ArialMT-69" transform="translate(906.005859 0)"/>
     <use xlink:href="#ArialMT-66" transform="translate(928.222656 0)"/>
     <use xlink:href="#ArialMT-69" transform="translate(956.005859 0)"/>
     <use xlink:href="#ArialMT-63" transform="translate(978.222656 0)"/>
     <use xlink:href="#ArialMT-61" transform="translate(1028.222656 0)"/>
     <use xlink:href="#ArialMT-6e" transform="translate(1083.837891 0)"/>
     <use xlink:href="#ArialMT-63" transform="translate(1139.453125 0)"/>
     <use xlink:href="#ArialMT-65" transform="translate(1189.453125 0)"/>
     <use xlink:href="#ArialMT-20" transform="translate(1245.068359 0)"/>
     <use xlink:href="#ArialMT-53" transform="translate(1272.851562 0)"/>
     <use xlink:href="#ArialMT-75" transform="translate(1339.550781 0)"/>
     <use xlink:href="#ArialMT-6d" transform="translate(1395.166016 0)"/>
     <use xlink:href="#ArialMT-6d" transform="translate(1478.466797 0)"/>
     <use xlink:href="#ArialMT-61" transform="translate(1561.767578 0)"/>
     <use xlink:href="#ArialMT-72" transform="translate(1617.382812 0)"/>
     <use xlink:href="#ArialMT-79" transform="translate(1650.683594 0)"/>
    </g>
   </g>
  </g>
 </g>
 <defs>
  <clipPath id="p7dffdf640d">
   <rect x="61.721562" y="22.671719" width="1093.87" height="266.16"/>
  </clipPath>
 </defs>
</svg>
