<?xml version="1.0" encoding="utf-8" standalone="no"?>
<!DOCTYPE svg PUBLIC "-//W3C//DTD SVG 1.1//EN"
  "http://www.w3.org/Graphics/SVG/1.1/DTD/svg11.dtd">
<svg xmlns:xlink="http://www.w3.org/1999/xlink" width="748.640625pt" height="416.562344pt" viewBox="0 0 748.640625 416.562344" xmlns="http://www.w3.org/2000/svg" version="1.1">
 <metadata>
  <rdf:RDF xmlns:dc="http://purl.org/dc/elements/1.1/" xmlns:cc="http://creativecommons.org/ns#" xmlns:rdf="http://www.w3.org/1999/02/22-rdf-syntax-ns#">
   <cc:Work>
    <dc:type rdf:resource="http://purl.org/dc/dcmitype/StillImage"/>
    <dc:date>2026-06-07T18:45:22.291943</dc:date>
    <dc:format>image/svg+xml</dc:format>
    <dc:creator>
     <cc:Agent>
      <dc:title>Matplotlib v3.10.8, https://matplotlib.org/</dc:title>
     </cc:Agent>
    </dc:creator>
   </cc:Work>
  </rdf:RDF>
 </metadata>
 <defs>
  <style type="text/css">*{stroke-linejoin: round; stroke-linecap: butt}</style>
 </defs>
 <g id="figure_1">
  <g id="patch_1">
   <path d="M 0 416.562344 
L 748.640625 416.562344 
L 748.640625 0 
L 0 0 
z
" style="fill: #ffffff"/>
  </g>
  <g id="axes_1">
   <g id="patch_2">
    <path d="M 71.050625 380.071719 
L 741.440625 380.071719 
L 741.440625 22.671719 
L 71.050625 22.671719 
z
" style="fill: #ffffff"/>
   </g>
   <g id="FillBetweenPolyCollection_1">
    <defs>
     <path id="m72c51a5677" d="M 101.522898 -262.547434 
L 101.522898 -175.669001 
L 229.827204 -135.156912 
L 390.207587 -92.54541 
L 710.968352 -52.73608 
L 710.968352 -345.237963 
L 710.968352 -345.237963 
L 390.207587 -366.820371 
L 229.827204 -310.861299 
L 101.522898 -262.547434 
z
" style="stroke: #26418f; stroke-opacity: 0.15"/>
    </defs>
    <g clip-path="url(#pc214a9fde4)">
     <use xlink:href="#m72c51a5677" x="0" y="416.562344" style="fill: #26418f; fill-opacity: 0.15; stroke: #26418f; stroke-opacity: 0.15"/>
    </g>
   </g>
   <g id="FillBetweenPolyCollection_2">
    <defs>
     <path id="mbc4f6e493f" d="M 101.522898 -209.006589 
L 101.522898 -154.992274 
L 229.827204 -123.305685 
L 390.207587 -116.40084 
L 710.968352 -142.351526 
L 710.968352 -333.425747 
L 710.968352 -333.425747 
L 390.207587 -286.962431 
L 229.827204 -248.911723 
L 101.522898 -209.006589 
z
" style="stroke: #86bc25; stroke-opacity: 0.15"/>
    </defs>
    <g clip-path="url(#pc214a9fde4)">
     <use xlink:href="#mbc4f6e493f" x="0" y="416.562344" style="fill: #86bc25; fill-opacity: 0.15; stroke: #86bc25; stroke-opacity: 0.15"/>
    </g>
   </g>
   <g id="FillBetweenPolyCollection_3">
    <defs>
     <path id="m1e59f5470c" d="M 101.522898 -224.95698 
L 101.522898 -124.252336 
L 229.827204 -112.349185 
L 390.207587 -111.827675 
L 710.968352 -64.462207 
L 710.968352 -340.209107 
L 710.968352 -340.209107 
L 390.207587 -377.64517 
L 229.827204 -306.271385 
L 101.522898 -224.95698 
z
" style="stroke: #b5121b; stroke-opacity: 0.15"/>
    </defs>
    <g clip-path="url(#pc214a9fde4)">
     <use xlink:href="#m1e59f5470c" x="0" y="416.562344" style="fill: #b5121b; fill-opacity: 0.15; stroke: #b5121b; stroke-opacity: 0.15"/>
    </g>
   </g>
   <g id="line2d_1">
    <path d="M 71.050625 232.124243 
L 741.440625 232.124243 
" clip-path="url(#pc214a9fde4)" style="fill: none; stroke-dasharray: 3.7,1.6; stroke-dashoffset: 0; stroke: #222222"/>
   </g>
   <g id="matplotlib.axis_1">
    <g id="xtick_1">
     <g id="line2d_2">
      <defs>
       <path id="m6fc38f1f24" d="M 0 0 
L 0 3.5 
" style="stroke: #44546a; stroke-width: 0.8"/>
      </defs>
      <g>
       <use xlink:href="#m6fc38f1f24" x="101.522898" y="380.071719" style="fill: #44546a; stroke: #44546a; stroke-width: 0.8"/>
      </g>
     </g>
     <g id="text_1">
      <!-- 1 -->
      <g style="fill: #44546a" transform="translate(99.020476 393.51375) scale(0.09 -0.09)">
       <defs>
        <path id="ArialMT-31" d="M 2384 0 
L 1822 0 
L 1822 3584 
Q 1619 3391 1289 3197 
Q 959 3003 697 2906 
L 697 3450 
Q 1169 3672 1522 3987 
Q 1875 4303 2022 4600 
L 2384 4600 
L 2384 0 
z
" transform="scale(0.015625)"/>
       </defs>
       <use xlink:href="#ArialMT-31"/>
      </g>
     </g>
    </g>
    <g id="xtick_2">
     <g id="line2d_3">
      <g>
       <use xlink:href="#m6fc38f1f24" x="229.827204" y="380.071719" style="fill: #44546a; stroke: #44546a; stroke-width: 0.8"/>
      </g>
     </g>
     <g id="text_2">
      <!-- 5 -->
      <g style="fill: #44546a" transform="translate(227.324782 393.51375) scale(0.09 -0.09)">
       <defs>
        <path id="ArialMT-35" d="M 266 1200 
L 856 1250 
Q 922 819 1161 601 
Q 1400 384 1738 384 
Q 2144 384 2425 690 
Q 2706 997 2706 1503 
Q 2706 1984 2436 2262 
Q 2166 2541 1728 2541 
Q 1456 2541 1237 2417 
Q 1019 2294 894 2097 
L 366 2166 
L 809 4519 
L 3088 4519 
L 3088 3981 
L 1259 3981 
L 1013 2750 
Q 1425 3038 1878 3038 
Q 2478 3038 2890 2622 
Q 3303 2206 3303 1553 
Q 3303 931 2941 478 
Q 2500 -78 1738 -78 
Q 1113 -78 717 272 
Q 322 622 266 1200 
z
" transform="scale(0.015625)"/>
       </defs>
       <use xlink:href="#ArialMT-35"/>
      </g>
     </g>
    </g>
    <g id="xtick_3">
     <g id="line2d_4">
      <g>
       <use xlink:href="#m6fc38f1f24" x="390.207587" y="380.071719" style="fill: #44546a; stroke: #44546a; stroke-width: 0.8"/>
      </g>
     </g>
     <g id="text_3">
      <!-- 10 -->
      <g style="fill: #44546a" transform="translate(385.202743 393.51375) scale(0.09 -0.09)">
       <defs>
        <path id="ArialMT-30" d="M 266 2259 
Q 266 3072 433 3567 
Q 600 4063 929 4331 
Q 1259 4600 1759 4600 
Q 2128 4600 2406 4451 
Q 2684 4303 2865 4023 
Q 3047 3744 3150 3342 
Q 3253 2941 3253 2259 
Q 3253 1453 3087 958 
Q 2922 463 2592 192 
Q 2263 -78 1759 -78 
Q 1097 -78 719 397 
Q 266 969 266 2259 
z
M 844 2259 
Q 844 1131 1108 757 
Q 1372 384 1759 384 
Q 2147 384 2411 759 
Q 2675 1134 2675 2259 
Q 2675 3391 2411 3762 
Q 2147 4134 1753 4134 
Q 1366 4134 1134 3806 
Q 844 3388 844 2259 
z
" transform="scale(0.015625)"/>
       </defs>
       <use xlink:href="#ArialMT-31"/>
       <use xlink:href="#ArialMT-30" transform="translate(55.615234 0)"/>
      </g>
     </g>
    </g>
    <g id="xtick_4">
     <g id="line2d_5">
      <g>
       <use xlink:href="#m6fc38f1f24" x="710.968352" y="380.071719" style="fill: #44546a; stroke: #44546a; stroke-width: 0.8"/>
      </g>
     </g>
     <g id="text_4">
      <!-- 20 -->
      <g style="fill: #44546a" transform="translate(705.963509 393.51375) scale(0.09 -0.09)">
       <defs>
        <path id="ArialMT-32" d="M 3222 541 
L 3222 0 
L 194 0 
Q 188 203 259 391 
Q 375 700 629 1000 
Q 884 1300 1366 1694 
Q 2113 2306 2375 2664 
Q 2638 3022 2638 3341 
Q 2638 3675 2398 3904 
Q 2159 4134 1775 4134 
Q 1369 4134 1125 3890 
Q 881 3647 878 3216 
L 300 3275 
Q 359 3922 746 4261 
Q 1134 4600 1788 4600 
Q 2447 4600 2831 4234 
Q 3216 3869 3216 3328 
Q 3216 3053 3103 2787 
Q 2991 2522 2730 2228 
Q 2469 1934 1863 1422 
Q 1356 997 1212 845 
Q 1069 694 975 541 
L 3222 541 
z
" transform="scale(0.015625)"/>
       </defs>
       <use xlink:href="#ArialMT-32"/>
       <use xlink:href="#ArialMT-30" transform="translate(55.615234 0)"/>
      </g>
     </g>
    </g>
    <g id="text_5">
     <!-- Horizon -->
     <g style="fill: #44546a" transform="translate(387.294688 407.176094) scale(0.11 -0.11)">
      <defs>
       <path id="ArialMT-48" d="M 513 0 
L 513 4581 
L 1119 4581 
L 1119 2700 
L 3500 2700 
L 3500 4581 
L 4106 4581 
L 4106 0 
L 3500 0 
L 3500 2159 
L 1119 2159 
L 1119 0 
L 513 0 
z
" transform="scale(0.015625)"/>
       <path id="ArialMT-6f" d="M 213 1659 
Q 213 2581 725 3025 
Q 1153 3394 1769 3394 
Q 2453 3394 2887 2945 
Q 3322 2497 3322 1706 
Q 3322 1066 3130 698 
Q 2938 331 2570 128 
Q 2203 -75 1769 -75 
Q 1072 -75 642 372 
Q 213 819 213 1659 
z
M 791 1659 
Q 791 1022 1069 705 
Q 1347 388 1769 388 
Q 2188 388 2466 706 
Q 2744 1025 2744 1678 
Q 2744 2294 2464 2611 
Q 2184 2928 1769 2928 
Q 1347 2928 1069 2612 
Q 791 2297 791 1659 
z
" transform="scale(0.015625)"/>
       <path id="ArialMT-72" d="M 416 0 
L 416 3319 
L 922 3319 
L 922 2816 
Q 1116 3169 1280 3281 
Q 1444 3394 1641 3394 
Q 1925 3394 2219 3213 
L 2025 2691 
Q 1819 2813 1613 2813 
Q 1428 2813 1281 2702 
Q 1134 2591 1072 2394 
Q 978 2094 978 1738 
L 978 0 
L 416 0 
z
" transform="scale(0.015625)"/>
       <path id="ArialMT-69" d="M 425 3934 
L 425 4581 
L 988 4581 
L 988 3934 
L 425 3934 
z
M 425 0 
L 425 3319 
L 988 3319 
L 988 0 
L 425 0 
z
" transform="scale(0.015625)"/>
       <path id="ArialMT-7a" d="M 125 0 
L 125 456 
L 2238 2881 
Q 1878 2863 1603 2863 
L 250 2863 
L 250 3319 
L 2963 3319 
L 2963 2947 
L 1166 841 
L 819 456 
Q 1197 484 1528 484 
L 3063 484 
L 3063 0 
L 125 0 
z
" transform="scale(0.015625)"/>
       <path id="ArialMT-6e" d="M 422 0 
L 422 3319 
L 928 3319 
L 928 2847 
Q 1294 3394 1984 3394 
Q 2284 3394 2536 3286 
Q 2788 3178 2913 3003 
Q 3038 2828 3088 2588 
Q 3119 2431 3119 2041 
L 3119 0 
L 2556 0 
L 2556 2019 
Q 2556 2363 2490 2533 
Q 2425 2703 2258 2804 
Q 2091 2906 1866 2906 
Q 1506 2906 1245 2678 
Q 984 2450 984 1813 
L 984 0 
L 422 0 
z
" transform="scale(0.015625)"/>
      </defs>
      <use xlink:href="#ArialMT-48"/>
      <use xlink:href="#ArialMT-6f" transform="translate(72.216797 0)"/>
      <use xlink:href="#ArialMT-72" transform="translate(127.832031 0)"/>
      <use xlink:href="#ArialMT-69" transform="translate(161.132812 0)"/>
      <use xlink:href="#ArialMT-7a" transform="translate(183.349609 0)"/>
      <use xlink:href="#ArialMT-6f" transform="translate(233.349609 0)"/>
      <use xlink:href="#ArialMT-6e" transform="translate(288.964844 0)"/>
     </g>
    </g>
   </g>
   <g id="matplotlib.axis_2">
    <g id="ytick_1">
     <g id="line2d_6">
      <path d="M 71.050625 365.551757 
L 741.440625 365.551757 
" clip-path="url(#pc214a9fde4)" style="fill: none; stroke: #d9d9d9; stroke-opacity: 0.45; stroke-width: 0.7; stroke-linecap: square"/>
     </g>
     <g id="line2d_7">
      <defs>
       <path id="mf4474bf69d" d="M 0 0 
L -3.5 0 
" style="stroke: #44546a; stroke-width: 0.8"/>
      </defs>
      <g>
       <use xlink:href="#mf4474bf69d" x="71.050625" y="365.551757" style="fill: #44546a; stroke: #44546a; stroke-width: 0.8"/>
      </g>
     </g>
     <g id="text_6">
      <!-- −0.000075 -->
      <g style="fill: #44546a" transform="translate(21.259844 368.772773) scale(0.09 -0.09)">
       <defs>
        <path id="ArialMT-2212" d="M 3381 1997 
L 356 1997 
L 356 2522 
L 3381 2522 
L 3381 1997 
z
" transform="scale(0.015625)"/>
        <path id="ArialMT-2e" d="M 581 0 
L 581 641 
L 1222 641 
L 1222 0 
L 581 0 
z
" transform="scale(0.015625)"/>
        <path id="ArialMT-37" d="M 303 3981 
L 303 4522 
L 3269 4522 
L 3269 4084 
Q 2831 3619 2401 2847 
Q 1972 2075 1738 1259 
Q 1569 684 1522 0 
L 944 0 
Q 953 541 1156 1306 
Q 1359 2072 1739 2783 
Q 2119 3494 2547 3981 
L 303 3981 
z
" transform="scale(0.015625)"/>
       </defs>
       <use xlink:href="#ArialMT-2212"/>
       <use xlink:href="#ArialMT-30" transform="translate(58.398438 0)"/>
       <use xlink:href="#ArialMT-2e" transform="translate(114.013672 0)"/>
       <use xlink:href="#ArialMT-30" transform="translate(141.796875 0)"/>
       <use xlink:href="#ArialMT-30" transform="translate(197.412109 0)"/>
       <use xlink:href="#ArialMT-30" transform="translate(253.027344 0)"/>
       <use xlink:href="#ArialMT-30" transform="translate(308.642578 0)"/>
       <use xlink:href="#ArialMT-37" transform="translate(364.257812 0)"/>
       <use xlink:href="#ArialMT-35" transform="translate(419.873047 0)"/>
      </g>
     </g>
    </g>
    <g id="ytick_2">
     <g id="line2d_8">
      <path d="M 71.050625 321.075919 
L 741.440625 321.075919 
" clip-path="url(#pc214a9fde4)" style="fill: none; stroke: #d9d9d9; stroke-opacity: 0.45; stroke-width: 0.7; stroke-linecap: square"/>
     </g>
     <g id="line2d_9">
      <g>
       <use xlink:href="#mf4474bf69d" x="71.050625" y="321.075919" style="fill: #44546a; stroke: #44546a; stroke-width: 0.8"/>
      </g>
     </g>
     <g id="text_7">
      <!-- −0.000050 -->
      <g style="fill: #44546a" transform="translate(21.259844 324.296935) scale(0.09 -0.09)">
       <use xlink:href="#ArialMT-2212"/>
       <use xlink:href="#ArialMT-30" transform="translate(58.398438 0)"/>
       <use xlink:href="#ArialMT-2e" transform="translate(114.013672 0)"/>
       <use xlink:href="#ArialMT-30" transform="translate(141.796875 0)"/>
       <use xlink:href="#ArialMT-30" transform="translate(197.412109 0)"/>
       <use xlink:href="#ArialMT-30" transform="translate(253.027344 0)"/>
       <use xlink:href="#ArialMT-30" transform="translate(308.642578 0)"/>
       <use xlink:href="#ArialMT-35" transform="translate(364.257812 0)"/>
       <use xlink:href="#ArialMT-30" transform="translate(419.873047 0)"/>
      </g>
     </g>
    </g>
    <g id="ytick_3">
     <g id="line2d_10">
      <path d="M 71.050625 276.600081 
L 741.440625 276.600081 
" clip-path="url(#pc214a9fde4)" style="fill: none; stroke: #d9d9d9; stroke-opacity: 0.45; stroke-width: 0.7; stroke-linecap: square"/>
     </g>
     <g id="line2d_11">
      <g>
       <use xlink:href="#mf4474bf69d" x="71.050625" y="276.600081" style="fill: #44546a; stroke: #44546a; stroke-width: 0.8"/>
      </g>
     </g>
     <g id="text_8">
      <!-- −0.000025 -->
      <g style="fill: #44546a" transform="translate(21.259844 279.821097) scale(0.09 -0.09)">
       <use xlink:href="#ArialMT-2212"/>
       <use xlink:href="#ArialMT-30" transform="translate(58.398438 0)"/>
       <use xlink:href="#ArialMT-2e" transform="translate(114.013672 0)"/>
       <use xlink:href="#ArialMT-30" transform="translate(141.796875 0)"/>
       <use xlink:href="#ArialMT-30" transform="translate(197.412109 0)"/>
       <use xlink:href="#ArialMT-30" transform="translate(253.027344 0)"/>
       <use xlink:href="#ArialMT-30" transform="translate(308.642578 0)"/>
       <use xlink:href="#ArialMT-32" transform="translate(364.257812 0)"/>
       <use xlink:href="#ArialMT-35" transform="translate(419.873047 0)"/>
      </g>
     </g>
    </g>
    <g id="ytick_4">
     <g id="line2d_12">
      <path d="M 71.050625 232.124243 
L 741.440625 232.124243 
" clip-path="url(#pc214a9fde4)" style="fill: none; stroke: #d9d9d9; stroke-opacity: 0.45; stroke-width: 0.7; stroke-linecap: square"/>
     </g>
     <g id="line2d_13">
      <g>
       <use xlink:href="#mf4474bf69d" x="71.050625" y="232.124243" style="fill: #44546a; stroke: #44546a; stroke-width: 0.8"/>
      </g>
     </g>
     <g id="text_9">
      <!-- 0.000000 -->
      <g style="fill: #44546a" transform="translate(26.516406 235.345259) scale(0.09 -0.09)">
       <use xlink:href="#ArialMT-30"/>
       <use xlink:href="#ArialMT-2e" transform="translate(55.615234 0)"/>
       <use xlink:href="#ArialMT-30" transform="translate(83.398438 0)"/>
       <use xlink:href="#ArialMT-30" transform="translate(139.013672 0)"/>
       <use xlink:href="#ArialMT-30" transform="translate(194.628906 0)"/>
       <use xlink:href="#ArialMT-30" transform="translate(250.244141 0)"/>
       <use xlink:href="#ArialMT-30" transform="translate(305.859375 0)"/>
       <use xlink:href="#ArialMT-30" transform="translate(361.474609 0)"/>
      </g>
     </g>
    </g>
    <g id="ytick_5">
     <g id="line2d_14">
      <path d="M 71.050625 187.648405 
L 741.440625 187.648405 
" clip-path="url(#pc214a9fde4)" style="fill: none; stroke: #d9d9d9; stroke-opacity: 0.45; stroke-width: 0.7; stroke-linecap: square"/>
     </g>
     <g id="line2d_15">
      <g>
       <use xlink:href="#mf4474bf69d" x="71.050625" y="187.648405" style="fill: #44546a; stroke: #44546a; stroke-width: 0.8"/>
      </g>
     </g>
     <g id="text_10">
      <!-- 0.000025 -->
      <g style="fill: #44546a" transform="translate(26.516406 190.86942) scale(0.09 -0.09)">
       <use xlink:href="#ArialMT-30"/>
       <use xlink:href="#ArialMT-2e" transform="translate(55.615234 0)"/>
       <use xlink:href="#ArialMT-30" transform="translate(83.398438 0)"/>
       <use xlink:href="#ArialMT-30" transform="translate(139.013672 0)"/>
       <use xlink:href="#ArialMT-30" transform="translate(194.628906 0)"/>
       <use xlink:href="#ArialMT-30" transform="translate(250.244141 0)"/>
       <use xlink:href="#ArialMT-32" transform="translate(305.859375 0)"/>
       <use xlink:href="#ArialMT-35" transform="translate(361.474609 0)"/>
      </g>
     </g>
    </g>
    <g id="ytick_6">
     <g id="line2d_16">
      <path d="M 71.050625 143.172567 
L 741.440625 143.172567 
" clip-path="url(#pc214a9fde4)" style="fill: none; stroke: #d9d9d9; stroke-opacity: 0.45; stroke-width: 0.7; stroke-linecap: square"/>
     </g>
     <g id="line2d_17">
      <g>
       <use xlink:href="#mf4474bf69d" x="71.050625" y="143.172567" style="fill: #44546a; stroke: #44546a; stroke-width: 0.8"/>
      </g>
     </g>
     <g id="text_11">
      <!-- 0.000050 -->
      <g style="fill: #44546a" transform="translate(26.516406 146.393582) scale(0.09 -0.09)">
       <use xlink:href="#ArialMT-30"/>
       <use xlink:href="#ArialMT-2e" transform="translate(55.615234 0)"/>
       <use xlink:href="#ArialMT-30" transform="translate(83.398438 0)"/>
       <use xlink:href="#ArialMT-30" transform="translate(139.013672 0)"/>
       <use xlink:href="#ArialMT-30" transform="translate(194.628906 0)"/>
       <use xlink:href="#ArialMT-30" transform="translate(250.244141 0)"/>
       <use xlink:href="#ArialMT-35" transform="translate(305.859375 0)"/>
       <use xlink:href="#ArialMT-30" transform="translate(361.474609 0)"/>
      </g>
     </g>
    </g>
    <g id="ytick_7">
     <g id="line2d_18">
      <path d="M 71.050625 98.696729 
L 741.440625 98.696729 
" clip-path="url(#pc214a9fde4)" style="fill: none; stroke: #d9d9d9; stroke-opacity: 0.45; stroke-width: 0.7; stroke-linecap: square"/>
     </g>
     <g id="line2d_19">
      <g>
       <use xlink:href="#mf4474bf69d" x="71.050625" y="98.696729" style="fill: #44546a; stroke: #44546a; stroke-width: 0.8"/>
      </g>
     </g>
     <g id="text_12">
      <!-- 0.000075 -->
      <g style="fill: #44546a" transform="translate(26.516406 101.917744) scale(0.09 -0.09)">
       <use xlink:href="#ArialMT-30"/>
       <use xlink:href="#ArialMT-2e" transform="translate(55.615234 0)"/>
       <use xlink:href="#ArialMT-30" transform="translate(83.398438 0)"/>
       <use xlink:href="#ArialMT-30" transform="translate(139.013672 0)"/>
       <use xlink:href="#ArialMT-30" transform="translate(194.628906 0)"/>
       <use xlink:href="#ArialMT-30" transform="translate(250.244141 0)"/>
       <use xlink:href="#ArialMT-37" transform="translate(305.859375 0)"/>
       <use xlink:href="#ArialMT-35" transform="translate(361.474609 0)"/>
      </g>
     </g>
    </g>
    <g id="ytick_8">
     <g id="line2d_20">
      <path d="M 71.050625 54.22089 
L 741.440625 54.22089 
" clip-path="url(#pc214a9fde4)" style="fill: none; stroke: #d9d9d9; stroke-opacity: 0.45; stroke-width: 0.7; stroke-linecap: square"/>
     </g>
     <g id="line2d_21">
      <g>
       <use xlink:href="#mf4474bf69d" x="71.050625" y="54.22089" style="fill: #44546a; stroke: #44546a; stroke-width: 0.8"/>
      </g>
     </g>
     <g id="text_13">
      <!-- 0.000100 -->
      <g style="fill: #44546a" transform="translate(26.516406 57.441906) scale(0.09 -0.09)">
       <use xlink:href="#ArialMT-30"/>
       <use xlink:href="#ArialMT-2e" transform="translate(55.615234 0)"/>
       <use xlink:href="#ArialMT-30" transform="translate(83.398438 0)"/>
       <use xlink:href="#ArialMT-30" transform="translate(139.013672 0)"/>
       <use xlink:href="#ArialMT-30" transform="translate(194.628906 0)"/>
       <use xlink:href="#ArialMT-31" transform="translate(250.244141 0)"/>
       <use xlink:href="#ArialMT-30" transform="translate(305.859375 0)"/>
       <use xlink:href="#ArialMT-30" transform="translate(361.474609 0)"/>
      </g>
     </g>
    </g>
    <g id="text_14">
     <!-- QLP coefficient -->
     <g style="fill: #44546a" transform="translate(15.073594 238.474375) rotate(-90) scale(0.11 -0.11)">
      <defs>
       <path id="ArialMT-51" d="M 3966 491 
Q 4388 200 4744 66 
L 4566 -356 
Q 4072 -178 3581 206 
Q 3072 -78 2456 -78 
Q 1834 -78 1328 222 
Q 822 522 548 1065 
Q 275 1609 275 2291 
Q 275 2969 550 3525 
Q 825 4081 1333 4372 
Q 1841 4663 2469 4663 
Q 3103 4663 3612 4361 
Q 4122 4059 4389 3517 
Q 4656 2975 4656 2294 
Q 4656 1728 4484 1276 
Q 4313 825 3966 491 
z
M 2631 1266 
Q 3156 1119 3497 828 
Q 4031 1316 4031 2294 
Q 4031 2850 3842 3265 
Q 3653 3681 3289 3911 
Q 2925 4141 2472 4141 
Q 1794 4141 1347 3677 
Q 900 3213 900 2291 
Q 900 1397 1342 919 
Q 1784 441 2472 441 
Q 2797 441 3084 563 
Q 2800 747 2484 825 
L 2631 1266 
z
" transform="scale(0.015625)"/>
       <path id="ArialMT-4c" d="M 469 0 
L 469 4581 
L 1075 4581 
L 1075 541 
L 3331 541 
L 3331 0 
L 469 0 
z
" transform="scale(0.015625)"/>
       <path id="ArialMT-50" d="M 494 0 
L 494 4581 
L 2222 4581 
Q 2678 4581 2919 4538 
Q 3256 4481 3484 4323 
Q 3713 4166 3852 3881 
Q 3991 3597 3991 3256 
Q 3991 2672 3619 2267 
Q 3247 1863 2275 1863 
L 1100 1863 
L 1100 0 
L 494 0 
z
M 1100 2403 
L 2284 2403 
Q 2872 2403 3119 2622 
Q 3366 2841 3366 3238 
Q 3366 3525 3220 3729 
Q 3075 3934 2838 4000 
Q 2684 4041 2272 4041 
L 1100 4041 
L 1100 2403 
z
" transform="scale(0.015625)"/>
       <path id="ArialMT-20" transform="scale(0.015625)"/>
       <path id="ArialMT-63" d="M 2588 1216 
L 3141 1144 
Q 3050 572 2676 248 
Q 2303 -75 1759 -75 
Q 1078 -75 664 370 
Q 250 816 250 1647 
Q 250 2184 428 2587 
Q 606 2991 970 3192 
Q 1334 3394 1763 3394 
Q 2303 3394 2647 3120 
Q 2991 2847 3088 2344 
L 2541 2259 
Q 2463 2594 2264 2762 
Q 2066 2931 1784 2931 
Q 1359 2931 1093 2626 
Q 828 2322 828 1663 
Q 828 994 1084 691 
Q 1341 388 1753 388 
Q 2084 388 2306 591 
Q 2528 794 2588 1216 
z
" transform="scale(0.015625)"/>
       <path id="ArialMT-65" d="M 2694 1069 
L 3275 997 
Q 3138 488 2766 206 
Q 2394 -75 1816 -75 
Q 1088 -75 661 373 
Q 234 822 234 1631 
Q 234 2469 665 2931 
Q 1097 3394 1784 3394 
Q 2450 3394 2872 2941 
Q 3294 2488 3294 1666 
Q 3294 1616 3291 1516 
L 816 1516 
Q 847 969 1125 678 
Q 1403 388 1819 388 
Q 2128 388 2347 550 
Q 2566 713 2694 1069 
z
M 847 1978 
L 2700 1978 
Q 2663 2397 2488 2606 
Q 2219 2931 1791 2931 
Q 1403 2931 1139 2672 
Q 875 2413 847 1978 
z
" transform="scale(0.015625)"/>
       <path id="ArialMT-66" d="M 556 0 
L 556 2881 
L 59 2881 
L 59 3319 
L 556 3319 
L 556 3672 
Q 556 4006 616 4169 
Q 697 4388 901 4523 
Q 1106 4659 1475 4659 
Q 1713 4659 2000 4603 
L 1916 4113 
Q 1741 4144 1584 4144 
Q 1328 4144 1222 4034 
Q 1116 3925 1116 3625 
L 1116 3319 
L 1763 3319 
L 1763 2881 
L 1116 2881 
L 1116 0 
L 556 0 
z
" transform="scale(0.015625)"/>
       <path id="ArialMT-74" d="M 1650 503 
L 1731 6 
Q 1494 -44 1306 -44 
Q 1000 -44 831 53 
Q 663 150 594 308 
Q 525 466 525 972 
L 525 2881 
L 113 2881 
L 113 3319 
L 525 3319 
L 525 4141 
L 1084 4478 
L 1084 3319 
L 1650 3319 
L 1650 2881 
L 1084 2881 
L 1084 941 
Q 1084 700 1114 631 
Q 1144 563 1211 522 
Q 1278 481 1403 481 
Q 1497 481 1650 503 
z
" transform="scale(0.015625)"/>
      </defs>
      <use xlink:href="#ArialMT-51"/>
      <use xlink:href="#ArialMT-4c" transform="translate(77.783203 0)"/>
      <use xlink:href="#ArialMT-50" transform="translate(133.398438 0)"/>
      <use xlink:href="#ArialMT-20" transform="translate(198.347656 0)"/>
      <use xlink:href="#ArialMT-63" transform="translate(226.130859 0)"/>
      <use xlink:href="#ArialMT-6f" transform="translate(276.130859 0)"/>
      <use xlink:href="#ArialMT-65" transform="translate(331.746094 0)"/>
      <use xlink:href="#ArialMT-66" transform="translate(387.361328 0)"/>
      <use xlink:href="#ArialMT-66" transform="translate(413.394531 0)"/>
      <use xlink:href="#ArialMT-69" transform="translate(441.177734 0)"/>
      <use xlink:href="#ArialMT-63" transform="translate(463.394531 0)"/>
      <use xlink:href="#ArialMT-69" transform="translate(513.394531 0)"/>
      <use xlink:href="#ArialMT-65" transform="translate(535.611328 0)"/>
      <use xlink:href="#ArialMT-6e" transform="translate(591.226562 0)"/>
      <use xlink:href="#ArialMT-74" transform="translate(646.841797 0)"/>
     </g>
    </g>
   </g>
   <g id="line2d_22">
    <path d="M 101.522898 186.888804 
L 229.827204 170.307985 
L 390.207587 178.896997 
L 710.968352 184.608529 
" clip-path="url(#pc214a9fde4)" style="fill: none; stroke: #26418f; stroke-width: 2; stroke-linecap: square"/>
    <defs>
     <path id="md0ca420b2b" d="M 0 3 
C 0.795609 3 1.55874 2.683901 2.12132 2.12132 
C 2.683901 1.55874 3 0.795609 3 0 
C 3 -0.795609 2.683901 -1.55874 2.12132 -2.12132 
C 1.55874 -2.683901 0.795609 -3 0 -3 
C -0.795609 -3 -1.55874 -2.683901 -2.12132 -2.12132 
C -2.683901 -1.55874 -3 -0.795609 -3 0 
C -3 0.795609 -2.683901 1.55874 -2.12132 2.12132 
C -1.55874 2.683901 -0.795609 3 0 3 
z
" style="stroke: #26418f"/>
    </defs>
    <g clip-path="url(#pc214a9fde4)">
     <use xlink:href="#md0ca420b2b" x="101.522898" y="186.888804" style="fill: #26418f; stroke: #26418f"/>
     <use xlink:href="#md0ca420b2b" x="229.827204" y="170.307985" style="fill: #26418f; stroke: #26418f"/>
     <use xlink:href="#md0ca420b2b" x="390.207587" y="178.896997" style="fill: #26418f; stroke: #26418f"/>
     <use xlink:href="#md0ca420b2b" x="710.968352" y="184.608529" style="fill: #26418f; stroke: #26418f"/>
    </g>
   </g>
   <g id="line2d_23">
    <path d="M 101.522898 235.840498 
L 229.827204 229.679741 
L 390.207587 209.322689 
L 710.968352 174.011921 
" clip-path="url(#pc214a9fde4)" style="fill: none; stroke: #86bc25; stroke-width: 2; stroke-linecap: square"/>
    <defs>
     <path id="m5028bd0a96" d="M 0 3 
C 0.795609 3 1.55874 2.683901 2.12132 2.12132 
C 2.683901 1.55874 3 0.795609 3 0 
C 3 -0.795609 2.683901 -1.55874 2.12132 -2.12132 
C 1.55874 -2.683901 0.795609 -3 0 -3 
C -0.795609 -3 -1.55874 -2.683901 -2.12132 -2.12132 
C -2.683901 -1.55874 -3 -0.795609 -3 0 
C -3 0.795609 -2.683901 1.55874 -2.12132 2.12132 
C -1.55874 2.683901 -0.795609 3 0 3 
z
" style="stroke: #86bc25"/>
    </defs>
    <g clip-path="url(#pc214a9fde4)">
     <use xlink:href="#m5028bd0a96" x="101.522898" y="235.840498" style="fill: #86bc25; stroke: #86bc25"/>
     <use xlink:href="#m5028bd0a96" x="229.827204" y="229.679741" style="fill: #86bc25; stroke: #86bc25"/>
     <use xlink:href="#m5028bd0a96" x="390.207587" y="209.322689" style="fill: #86bc25; stroke: #86bc25"/>
     <use xlink:href="#m5028bd0a96" x="710.968352" y="174.011921" style="fill: #86bc25; stroke: #86bc25"/>
    </g>
   </g>
   <g id="line2d_24">
    <path d="M 101.522898 248.882568 
L 229.827204 208.411075 
L 390.207587 208.16619 
L 710.968352 188.412018 
" clip-path="url(#pc214a9fde4)" style="fill: none; stroke: #b5121b; stroke-width: 2; stroke-linecap: square"/>
    <defs>
     <path id="m0c75c1f28f" d="M 0 3 
C 0.795609 3 1.55874 2.683901 2.12132 2.12132 
C 2.683901 1.55874 3 0.795609 3 0 
C 3 -0.795609 2.683901 -1.55874 2.12132 -2.12132 
C 1.55874 -2.683901 0.795609 -3 0 -3 
C -0.795609 -3 -1.55874 -2.683901 -2.12132 -2.12132 
C -2.683901 -1.55874 -3 -0.795609 -3 0 
C -3 0.795609 -2.683901 1.55874 -2.12132 2.12132 
C -1.55874 2.683901 -0.795609 3 0 3 
z
" style="stroke: #b5121b"/>
    </defs>
    <g clip-path="url(#pc214a9fde4)">
     <use xlink:href="#m0c75c1f28f" x="101.522898" y="248.882568" style="fill: #b5121b; stroke: #b5121b"/>
     <use xlink:href="#m0c75c1f28f" x="229.827204" y="208.411075" style="fill: #b5121b; stroke: #b5121b"/>
     <use xlink:href="#m0c75c1f28f" x="390.207587" y="208.16619" style="fill: #b5121b; stroke: #b5121b"/>
     <use xlink:href="#m0c75c1f28f" x="710.968352" y="188.412018" style="fill: #b5121b; stroke: #b5121b"/>
    </g>
   </g>
   <g id="patch_3">
    <path d="M 71.050625 380.071719 
L 71.050625 22.671719 
" style="fill: none; stroke: #5b5b5b; stroke-width: 0.8; stroke-linejoin: miter; stroke-linecap: square"/>
   </g>
   <g id="patch_4">
    <path d="M 71.050625 380.071719 
L 741.440625 380.071719 
" style="fill: none; stroke: #5b5b5b; stroke-width: 0.8; stroke-linejoin: miter; stroke-linecap: square"/>
   </g>
   <g id="text_15">
    <!-- Dynamic QLP Responses: ΔVSTOXX -->
    <g style="fill: #26418f" transform="translate(298.091719 16.671719) scale(0.13 -0.13)">
     <defs>
      <path id="ArialMT-44" d="M 494 0 
L 494 4581 
L 2072 4581 
Q 2606 4581 2888 4516 
Q 3281 4425 3559 4188 
Q 3922 3881 4101 3404 
Q 4281 2928 4281 2316 
Q 4281 1794 4159 1391 
Q 4038 988 3847 723 
Q 3656 459 3429 307 
Q 3203 156 2883 78 
Q 2563 0 2147 0 
L 494 0 
z
M 1100 541 
L 2078 541 
Q 2531 541 2789 625 
Q 3047 709 3200 863 
Q 3416 1078 3536 1442 
Q 3656 1806 3656 2325 
Q 3656 3044 3420 3430 
Q 3184 3816 2847 3947 
Q 2603 4041 2063 4041 
L 1100 4041 
L 1100 541 
z
" transform="scale(0.015625)"/>
      <path id="ArialMT-79" d="M 397 -1278 
L 334 -750 
Q 519 -800 656 -800 
Q 844 -800 956 -737 
Q 1069 -675 1141 -563 
Q 1194 -478 1313 -144 
Q 1328 -97 1363 -6 
L 103 3319 
L 709 3319 
L 1400 1397 
Q 1534 1031 1641 628 
Q 1738 1016 1872 1384 
L 2581 3319 
L 3144 3319 
L 1881 -56 
Q 1678 -603 1566 -809 
Q 1416 -1088 1222 -1217 
Q 1028 -1347 759 -1347 
Q 597 -1347 397 -1278 
z
" transform="scale(0.015625)"/>
      <path id="ArialMT-61" d="M 2588 409 
Q 2275 144 1986 34 
Q 1697 -75 1366 -75 
Q 819 -75 525 192 
Q 231 459 231 875 
Q 231 1119 342 1320 
Q 453 1522 633 1644 
Q 813 1766 1038 1828 
Q 1203 1872 1538 1913 
Q 2219 1994 2541 2106 
Q 2544 2222 2544 2253 
Q 2544 2597 2384 2738 
Q 2169 2928 1744 2928 
Q 1347 2928 1158 2789 
Q 969 2650 878 2297 
L 328 2372 
Q 403 2725 575 2942 
Q 747 3159 1072 3276 
Q 1397 3394 1825 3394 
Q 2250 3394 2515 3294 
Q 2781 3194 2906 3042 
Q 3031 2891 3081 2659 
Q 3109 2516 3109 2141 
L 3109 1391 
Q 3109 606 3145 398 
Q 3181 191 3288 0 
L 2700 0 
Q 2613 175 2588 409 
z
M 2541 1666 
Q 2234 1541 1622 1453 
Q 1275 1403 1131 1340 
Q 988 1278 909 1158 
Q 831 1038 831 891 
Q 831 666 1001 516 
Q 1172 366 1500 366 
Q 1825 366 2078 508 
Q 2331 650 2450 897 
Q 2541 1088 2541 1459 
L 2541 1666 
z
" transform="scale(0.015625)"/>
      <path id="ArialMT-6d" d="M 422 0 
L 422 3319 
L 925 3319 
L 925 2853 
Q 1081 3097 1340 3245 
Q 1600 3394 1931 3394 
Q 2300 3394 2536 3241 
Q 2772 3088 2869 2813 
Q 3263 3394 3894 3394 
Q 4388 3394 4653 3120 
Q 4919 2847 4919 2278 
L 4919 0 
L 4359 0 
L 4359 2091 
Q 4359 2428 4304 2576 
Q 4250 2725 4106 2815 
Q 3963 2906 3769 2906 
Q 3419 2906 3187 2673 
Q 2956 2441 2956 1928 
L 2956 0 
L 2394 0 
L 2394 2156 
Q 2394 2531 2256 2718 
Q 2119 2906 1806 2906 
Q 1569 2906 1367 2781 
Q 1166 2656 1075 2415 
Q 984 2175 984 1722 
L 984 0 
L 422 0 
z
" transform="scale(0.015625)"/>
      <path id="ArialMT-52" d="M 503 0 
L 503 4581 
L 2534 4581 
Q 3147 4581 3465 4457 
Q 3784 4334 3975 4021 
Q 4166 3709 4166 3331 
Q 4166 2844 3850 2509 
Q 3534 2175 2875 2084 
Q 3116 1969 3241 1856 
Q 3506 1613 3744 1247 
L 4541 0 
L 3778 0 
L 3172 953 
Q 2906 1366 2734 1584 
Q 2563 1803 2427 1890 
Q 2291 1978 2150 2013 
Q 2047 2034 1813 2034 
L 1109 2034 
L 1109 0 
L 503 0 
z
M 1109 2559 
L 2413 2559 
Q 2828 2559 3062 2645 
Q 3297 2731 3419 2920 
Q 3541 3109 3541 3331 
Q 3541 3656 3305 3865 
Q 3069 4075 2559 4075 
L 1109 4075 
L 1109 2559 
z
" transform="scale(0.015625)"/>
      <path id="ArialMT-73" d="M 197 991 
L 753 1078 
Q 800 744 1014 566 
Q 1228 388 1613 388 
Q 2000 388 2187 545 
Q 2375 703 2375 916 
Q 2375 1106 2209 1216 
Q 2094 1291 1634 1406 
Q 1016 1563 777 1677 
Q 538 1791 414 1992 
Q 291 2194 291 2438 
Q 291 2659 392 2848 
Q 494 3038 669 3163 
Q 800 3259 1026 3326 
Q 1253 3394 1513 3394 
Q 1903 3394 2198 3281 
Q 2494 3169 2634 2976 
Q 2775 2784 2828 2463 
L 2278 2388 
Q 2241 2644 2061 2787 
Q 1881 2931 1553 2931 
Q 1166 2931 1000 2803 
Q 834 2675 834 2503 
Q 834 2394 903 2306 
Q 972 2216 1119 2156 
Q 1203 2125 1616 2013 
Q 2213 1853 2448 1751 
Q 2684 1650 2818 1456 
Q 2953 1263 2953 975 
Q 2953 694 2789 445 
Q 2625 197 2315 61 
Q 2006 -75 1616 -75 
Q 969 -75 630 194 
Q 291 463 197 991 
z
" transform="scale(0.015625)"/>
      <path id="ArialMT-70" d="M 422 -1272 
L 422 3319 
L 934 3319 
L 934 2888 
Q 1116 3141 1344 3267 
Q 1572 3394 1897 3394 
Q 2322 3394 2647 3175 
Q 2972 2956 3137 2557 
Q 3303 2159 3303 1684 
Q 3303 1175 3120 767 
Q 2938 359 2589 142 
Q 2241 -75 1856 -75 
Q 1575 -75 1351 44 
Q 1128 163 984 344 
L 984 -1272 
L 422 -1272 
z
M 931 1641 
Q 931 1000 1190 694 
Q 1450 388 1819 388 
Q 2194 388 2461 705 
Q 2728 1022 2728 1688 
Q 2728 2322 2467 2637 
Q 2206 2953 1844 2953 
Q 1484 2953 1207 2617 
Q 931 2281 931 1641 
z
" transform="scale(0.015625)"/>
      <path id="ArialMT-3a" d="M 578 2678 
L 578 3319 
L 1219 3319 
L 1219 2678 
L 578 2678 
z
M 578 0 
L 578 641 
L 1219 641 
L 1219 0 
L 578 0 
z
" transform="scale(0.015625)"/>
      <path id="ArialMT-394" d="M -6 0 
L 1753 4581 
L 2406 4581 
L 4281 0 
L -6 0 
z
M 834 541 
L 3381 541 
L 2391 3150 
Q 2169 3738 2066 4100 
Q 1981 3675 1819 3225 
L 834 541 
z
" transform="scale(0.015625)"/>
      <path id="ArialMT-56" d="M 1803 0 
L 28 4581 
L 684 4581 
L 1875 1253 
Q 2019 853 2116 503 
Q 2222 878 2363 1253 
L 3600 4581 
L 4219 4581 
L 2425 0 
L 1803 0 
z
" transform="scale(0.015625)"/>
      <path id="ArialMT-53" d="M 288 1472 
L 859 1522 
Q 900 1178 1048 958 
Q 1197 738 1509 602 
Q 1822 466 2213 466 
Q 2559 466 2825 569 
Q 3091 672 3220 851 
Q 3350 1031 3350 1244 
Q 3350 1459 3225 1620 
Q 3100 1781 2813 1891 
Q 2628 1963 1997 2114 
Q 1366 2266 1113 2400 
Q 784 2572 623 2826 
Q 463 3081 463 3397 
Q 463 3744 659 4045 
Q 856 4347 1234 4503 
Q 1613 4659 2075 4659 
Q 2584 4659 2973 4495 
Q 3363 4331 3572 4012 
Q 3781 3694 3797 3291 
L 3216 3247 
Q 3169 3681 2898 3903 
Q 2628 4125 2100 4125 
Q 1550 4125 1298 3923 
Q 1047 3722 1047 3438 
Q 1047 3191 1225 3031 
Q 1400 2872 2139 2705 
Q 2878 2538 3153 2413 
Q 3553 2228 3743 1945 
Q 3934 1663 3934 1294 
Q 3934 928 3725 604 
Q 3516 281 3123 101 
Q 2731 -78 2241 -78 
Q 1619 -78 1198 103 
Q 778 284 539 648 
Q 300 1013 288 1472 
z
" transform="scale(0.015625)"/>
      <path id="ArialMT-54" d="M 1659 0 
L 1659 4041 
L 150 4041 
L 150 4581 
L 3781 4581 
L 3781 4041 
L 2266 4041 
L 2266 0 
L 1659 0 
z
" transform="scale(0.015625)"/>
      <path id="ArialMT-4f" d="M 309 2231 
Q 309 3372 921 4017 
Q 1534 4663 2503 4663 
Q 3138 4663 3647 4359 
Q 4156 4056 4423 3514 
Q 4691 2972 4691 2284 
Q 4691 1588 4409 1038 
Q 4128 488 3612 205 
Q 3097 -78 2500 -78 
Q 1853 -78 1343 234 
Q 834 547 571 1087 
Q 309 1628 309 2231 
z
M 934 2222 
Q 934 1394 1379 917 
Q 1825 441 2497 441 
Q 3181 441 3623 922 
Q 4066 1403 4066 2288 
Q 4066 2847 3877 3264 
Q 3688 3681 3323 3911 
Q 2959 4141 2506 4141 
Q 1863 4141 1398 3698 
Q 934 3256 934 2222 
z
" transform="scale(0.015625)"/>
      <path id="ArialMT-58" d="M 28 0 
L 1800 2388 
L 238 4581 
L 959 4581 
L 1791 3406 
Q 2050 3041 2159 2844 
Q 2313 3094 2522 3366 
L 3444 4581 
L 4103 4581 
L 2494 2422 
L 4228 0 
L 3478 0 
L 2325 1634 
Q 2228 1775 2125 1941 
Q 1972 1691 1906 1597 
L 756 0 
L 28 0 
z
" transform="scale(0.015625)"/>
     </defs>
     <use xlink:href="#ArialMT-44"/>
     <use xlink:href="#ArialMT-79" transform="translate(72.216797 0)"/>
     <use xlink:href="#ArialMT-6e" transform="translate(122.216797 0)"/>
     <use xlink:href="#ArialMT-61" transform="translate(177.832031 0)"/>
     <use xlink:href="#ArialMT-6d" transform="translate(233.447266 0)"/>
     <use xlink:href="#ArialMT-69" transform="translate(316.748047 0)"/>
     <use xlink:href="#ArialMT-63" transform="translate(338.964844 0)"/>
     <use xlink:href="#ArialMT-20" transform="translate(388.964844 0)"/>
     <use xlink:href="#ArialMT-51" transform="translate(416.748047 0)"/>
     <use xlink:href="#ArialMT-4c" transform="translate(494.53125 0)"/>
     <use xlink:href="#ArialMT-50" transform="translate(550.146484 0)"/>
     <use xlink:href="#ArialMT-20" transform="translate(615.095703 0)"/>
     <use xlink:href="#ArialMT-52" transform="translate(642.878906 0)"/>
     <use xlink:href="#ArialMT-65" transform="translate(715.095703 0)"/>
     <use xlink:href="#ArialMT-73" transform="translate(770.710938 0)"/>
     <use xlink:href="#ArialMT-70" transform="translate(820.710938 0)"/>
     <use xlink:href="#ArialMT-6f" transform="translate(876.326172 0)"/>
     <use xlink:href="#ArialMT-6e" transform="translate(931.941406 0)"/>
     <use xlink:href="#ArialMT-73" transform="translate(987.556641 0)"/>
     <use xlink:href="#ArialMT-65" transform="translate(1037.556641 0)"/>
     <use xlink:href="#ArialMT-73" transform="translate(1093.171875 0)"/>
     <use xlink:href="#ArialMT-3a" transform="translate(1143.171875 0)"/>
     <use xlink:href="#ArialMT-20" transform="translate(1170.955078 0)"/>
     <use xlink:href="#ArialMT-394" transform="translate(1193.238281 0)"/>
     <use xlink:href="#ArialMT-56" transform="translate(1260.035156 0)"/>
     <use xlink:href="#ArialMT-53" transform="translate(1326.734375 0)"/>
     <use xlink:href="#ArialMT-54" transform="translate(1393.433594 0)"/>
     <use xlink:href="#ArialMT-4f" transform="translate(1452.767578 0)"/>
     <use xlink:href="#ArialMT-58" transform="translate(1530.550781 0)"/>
     <use xlink:href="#ArialMT-58" transform="translate(1597.25 0)"/>
    </g>
   </g>
   <g id="PathCollection_1">
    <defs>
     <path id="md187f78211" d="M 0 3.082207 
C 0.817411 3.082207 1.601453 2.757446 2.179449 2.179449 
C 2.757446 1.601453 3.082207 0.817411 3.082207 0 
C 3.082207 -0.817411 2.757446 -1.601453 2.179449 -2.179449 
C 1.601453 -2.757446 0.817411 -3.082207 0 -3.082207 
C -0.817411 -3.082207 -1.601453 -2.757446 -2.179449 -2.179449 
C -2.757446 -1.601453 -3.082207 -0.817411 -3.082207 0 
C -3.082207 0.817411 -2.757446 1.601453 -2.179449 2.179449 
C -1.601453 2.757446 -0.817411 3.082207 0 3.082207 
z
" style="stroke: #26418f; stroke-opacity: 0.9; stroke-width: 1.3"/>
    </defs>
    <g clip-path="url(#pc214a9fde4)">
     <use xlink:href="#md187f78211" x="101.522898" y="186.888804" style="fill: #ffffff; fill-opacity: 0.9; stroke: #26418f; stroke-opacity: 0.9; stroke-width: 1.3"/>
    </g>
   </g>
   <g id="PathCollection_2">
    <g clip-path="url(#pc214a9fde4)">
     <use xlink:href="#md187f78211" x="229.827204" y="170.307985" style="fill: #ffffff; fill-opacity: 0.9; stroke: #26418f; stroke-opacity: 0.9; stroke-width: 1.3"/>
    </g>
   </g>
   <g id="PathCollection_3">
    <g clip-path="url(#pc214a9fde4)">
     <use xlink:href="#md187f78211" x="390.207587" y="178.896997" style="fill: #ffffff; fill-opacity: 0.9; stroke: #26418f; stroke-opacity: 0.9; stroke-width: 1.3"/>
    </g>
   </g>
   <g id="PathCollection_4">
    <g clip-path="url(#pc214a9fde4)">
     <use xlink:href="#md187f78211" x="710.968352" y="184.608529" style="fill: #ffffff; fill-opacity: 0.9; stroke: #26418f; stroke-opacity: 0.9; stroke-width: 1.3"/>
    </g>
   </g>
   <g id="PathCollection_5">
    <defs>
     <path id="m49d45ce682" d="M 0 3.082207 
C 0.817411 3.082207 1.601453 2.757446 2.179449 2.179449 
C 2.757446 1.601453 3.082207 0.817411 3.082207 0 
C 3.082207 -0.817411 2.757446 -1.601453 2.179449 -2.179449 
C 1.601453 -2.757446 0.817411 -3.082207 0 -3.082207 
C -0.817411 -3.082207 -1.601453 -2.757446 -2.179449 -2.179449 
C -2.757446 -1.601453 -3.082207 -0.817411 -3.082207 0 
C -3.082207 0.817411 -2.757446 1.601453 -2.179449 2.179449 
C -1.601453 2.757446 -0.817411 3.082207 0 3.082207 
z
" style="stroke: #86bc25; stroke-opacity: 0.9; stroke-width: 1.3"/>
    </defs>
    <g clip-path="url(#pc214a9fde4)">
     <use xlink:href="#m49d45ce682" x="101.522898" y="235.840498" style="fill: #ffffff; fill-opacity: 0.9; stroke: #86bc25; stroke-opacity: 0.9; stroke-width: 1.3"/>
    </g>
   </g>
   <g id="PathCollection_6">
    <g clip-path="url(#pc214a9fde4)">
     <use xlink:href="#m49d45ce682" x="229.827204" y="229.679741" style="fill: #ffffff; fill-opacity: 0.9; stroke: #86bc25; stroke-opacity: 0.9; stroke-width: 1.3"/>
    </g>
   </g>
   <g id="PathCollection_7">
    <g clip-path="url(#pc214a9fde4)">
     <use xlink:href="#m49d45ce682" x="390.207587" y="209.322689" style="fill: #ffffff; fill-opacity: 0.9; stroke: #86bc25; stroke-opacity: 0.9; stroke-width: 1.3"/>
    </g>
   </g>
   <g id="PathCollection_8">
    <g clip-path="url(#pc214a9fde4)">
     <use xlink:href="#m49d45ce682" x="710.968352" y="174.011921" style="fill: #ffffff; fill-opacity: 0.9; stroke: #86bc25; stroke-opacity: 0.9; stroke-width: 1.3"/>
    </g>
   </g>
   <g id="PathCollection_9">
    <defs>
     <path id="maebf7568c9" d="M 0 3.082207 
C 0.817411 3.082207 1.601453 2.757446 2.179449 2.179449 
C 2.757446 1.601453 3.082207 0.817411 3.082207 0 
C 3.082207 -0.817411 2.757446 -1.601453 2.179449 -2.179449 
C 1.601453 -2.757446 0.817411 -3.082207 0 -3.082207 
C -0.817411 -3.082207 -1.601453 -2.757446 -2.179449 -2.179449 
C -2.757446 -1.601453 -3.082207 -0.817411 -3.082207 0 
C -3.082207 0.817411 -2.757446 1.601453 -2.179449 2.179449 
C -1.601453 2.757446 -0.817411 3.082207 0 3.082207 
z
" style="stroke: #b5121b; stroke-opacity: 0.9; stroke-width: 1.3"/>
    </defs>
    <g clip-path="url(#pc214a9fde4)">
     <use xlink:href="#maebf7568c9" x="101.522898" y="248.882568" style="fill: #ffffff; fill-opacity: 0.9; stroke: #b5121b; stroke-opacity: 0.9; stroke-width: 1.3"/>
    </g>
   </g>
   <g id="PathCollection_10">
    <g clip-path="url(#pc214a9fde4)">
     <use xlink:href="#maebf7568c9" x="229.827204" y="208.411075" style="fill: #ffffff; fill-opacity: 0.9; stroke: #b5121b; stroke-opacity: 0.9; stroke-width: 1.3"/>
    </g>
   </g>
   <g id="PathCollection_11">
    <g clip-path="url(#pc214a9fde4)">
     <use xlink:href="#maebf7568c9" x="390.207587" y="208.16619" style="fill: #ffffff; fill-opacity: 0.9; stroke: #b5121b; stroke-opacity: 0.9; stroke-width: 1.3"/>
    </g>
   </g>
   <g id="PathCollection_12">
    <g clip-path="url(#pc214a9fde4)">
     <use xlink:href="#maebf7568c9" x="710.968352" y="188.412018" style="fill: #ffffff; fill-opacity: 0.9; stroke: #b5121b; stroke-opacity: 0.9; stroke-width: 1.3"/>
    </g>
   </g>
   <g id="legend_1">
    <g id="line2d_25">
     <path d="M 542.761406 34.06375 
L 551.761406 34.06375 
L 560.761406 34.06375 
" style="fill: none; stroke: #26418f; stroke-width: 2; stroke-linecap: square"/>
     <g>
      <use xlink:href="#md0ca420b2b" x="551.761406" y="34.06375" style="fill: #26418f; stroke: #26418f"/>
     </g>
    </g>
    <g id="text_16">
     <!-- τ=0.10 -->
     <g style="fill: #44546a" transform="translate(567.961406 37.21375) scale(0.09 -0.09)">
      <defs>
       <path id="ArialMT-3c4" d="M 1581 2863 
L 1581 0 
L 1019 0 
L 1019 2863 
L 144 2863 
L 144 3319 
L 2381 3319 
L 2381 2863 
L 1581 2863 
z
" transform="scale(0.015625)"/>
       <path id="ArialMT-3d" d="M 3381 2694 
L 356 2694 
L 356 3219 
L 3381 3219 
L 3381 2694 
z
M 3381 1303 
L 356 1303 
L 356 1828 
L 3381 1828 
L 3381 1303 
z
" transform="scale(0.015625)"/>
      </defs>
      <use xlink:href="#ArialMT-3c4"/>
      <use xlink:href="#ArialMT-3d" transform="translate(39.501953 0)"/>
      <use xlink:href="#ArialMT-30" transform="translate(97.900391 0)"/>
      <use xlink:href="#ArialMT-2e" transform="translate(153.515625 0)"/>
      <use xlink:href="#ArialMT-31" transform="translate(181.298828 0)"/>
      <use xlink:href="#ArialMT-30" transform="translate(236.914062 0)"/>
     </g>
    </g>
    <g id="line2d_26">
     <path d="M 612.287813 34.06375 
L 621.287813 34.06375 
L 630.287813 34.06375 
" style="fill: none; stroke: #86bc25; stroke-width: 2; stroke-linecap: square"/>
     <g>
      <use xlink:href="#m5028bd0a96" x="621.287813" y="34.06375" style="fill: #86bc25; stroke: #86bc25"/>
     </g>
    </g>
    <g id="text_17">
     <!-- τ=0.50 -->
     <g style="fill: #44546a" transform="translate(637.487813 37.21375) scale(0.09 -0.09)">
      <use xlink:href="#ArialMT-3c4"/>
      <use xlink:href="#ArialMT-3d" transform="translate(39.501953 0)"/>
      <use xlink:href="#ArialMT-30" transform="translate(97.900391 0)"/>
      <use xlink:href="#ArialMT-2e" transform="translate(153.515625 0)"/>
      <use xlink:href="#ArialMT-35" transform="translate(181.298828 0)"/>
      <use xlink:href="#ArialMT-30" transform="translate(236.914062 0)"/>
     </g>
    </g>
    <g id="line2d_27">
     <path d="M 681.814219 34.06375 
L 690.814219 34.06375 
L 699.814219 34.06375 
" style="fill: none; stroke: #b5121b; stroke-width: 2; stroke-linecap: square"/>
     <g>
      <use xlink:href="#m0c75c1f28f" x="690.814219" y="34.06375" style="fill: #b5121b; stroke: #b5121b"/>
     </g>
    </g>
    <g id="text_18">
     <!-- τ=0.90 -->
     <g style="fill: #44546a" transform="translate(707.014219 37.21375) scale(0.09 -0.09)">
      <defs>
       <path id="ArialMT-39" d="M 350 1059 
L 891 1109 
Q 959 728 1153 556 
Q 1347 384 1650 384 
Q 1909 384 2104 503 
Q 2300 622 2425 820 
Q 2550 1019 2634 1356 
Q 2719 1694 2719 2044 
Q 2719 2081 2716 2156 
Q 2547 1888 2255 1720 
Q 1963 1553 1622 1553 
Q 1053 1553 659 1965 
Q 266 2378 266 3053 
Q 266 3750 677 4175 
Q 1088 4600 1706 4600 
Q 2153 4600 2523 4359 
Q 2894 4119 3086 3673 
Q 3278 3228 3278 2384 
Q 3278 1506 3087 986 
Q 2897 466 2520 194 
Q 2144 -78 1638 -78 
Q 1100 -78 759 220 
Q 419 519 350 1059 
z
M 2653 3081 
Q 2653 3566 2395 3850 
Q 2138 4134 1775 4134 
Q 1400 4134 1122 3828 
Q 844 3522 844 3034 
Q 844 2597 1108 2323 
Q 1372 2050 1759 2050 
Q 2150 2050 2401 2323 
Q 2653 2597 2653 3081 
z
" transform="scale(0.015625)"/>
      </defs>
      <use xlink:href="#ArialMT-3c4"/>
      <use xlink:href="#ArialMT-3d" transform="translate(39.501953 0)"/>
      <use xlink:href="#ArialMT-30" transform="translate(97.900391 0)"/>
      <use xlink:href="#ArialMT-2e" transform="translate(153.515625 0)"/>
      <use xlink:href="#ArialMT-39" transform="translate(181.298828 0)"/>
      <use xlink:href="#ArialMT-30" transform="translate(236.914062 0)"/>
     </g>
    </g>
   </g>
  </g>
 </g>
 <defs>
  <clipPath id="pc214a9fde4">
   <rect x="71.050625" y="22.671719" width="670.39" height="357.4"/>
  </clipPath>
 </defs>
</svg>
