<?xml version="1.0" encoding="utf-8" standalone="no"?>
<!DOCTYPE svg PUBLIC "-//W3C//DTD SVG 1.1//EN"
  "http://www.w3.org/Graphics/SVG/1.1/DTD/svg11.dtd">
<svg xmlns:xlink="http://www.w3.org/1999/xlink" width="748.675781pt" height="416.562344pt" viewBox="0 0 748.675781 416.562344" xmlns="http://www.w3.org/2000/svg" version="1.1">
 <metadata>
  <rdf:RDF xmlns:dc="http://purl.org/dc/elements/1.1/" xmlns:cc="http://creativecommons.org/ns#" xmlns:rdf="http://www.w3.org/1999/02/22-rdf-syntax-ns#">
   <cc:Work>
    <dc:type rdf:resource="http://purl.org/dc/dcmitype/StillImage"/>
    <dc:date>2026-06-07T18:45:23.379152</dc:date>
    <dc:format>image/svg+xml</dc:format>
    <dc:creator>
     <cc:Agent>
      <dc:title>Matplotlib v3.10.8, https://matplotlib.org/</dc:title>
     </cc:Agent>
    </dc:creator>
   </cc:Work>
  </rdf:RDF>
 </metadata>
 <defs>
  <style type="text/css">*{stroke-linejoin: round; stroke-linecap: butt}</style>
 </defs>
 <g id="figure_1">
  <g id="patch_1">
   <path d="M 0 416.562344 
L 748.675781 416.562344 
L 748.675781 0 
L 0 0 
z
" style="fill: #ffffff"/>
  </g>
  <g id="axes_1">
   <g id="patch_2">
    <path d="M 66.045781 380.071719 
L 741.475781 380.071719 
L 741.475781 22.671719 
L 66.045781 22.671719 
z
" style="fill: #ffffff"/>
   </g>
   <g id="FillBetweenPolyCollection_1">
    <defs>
     <path id="m85916f38b3" d="M 96.747145 -237.223469 
L 96.747145 -156.916843 
L 226.016044 -117.693764 
L 387.602169 -101.822026 
L 710.774418 -100.89619 
L 710.774418 -377.64517 
L 710.774418 -377.64517 
L 387.602169 -320.104426 
L 226.016044 -285.805237 
L 96.747145 -237.223469 
z
" style="stroke: #26418f; stroke-opacity: 0.15"/>
    </defs>
    <g clip-path="url(#p0836332388)">
     <use xlink:href="#m85916f38b3" x="0" y="416.562344" style="fill: #26418f; fill-opacity: 0.15; stroke: #26418f; stroke-opacity: 0.15"/>
    </g>
   </g>
   <g id="FillBetweenPolyCollection_2">
    <defs>
     <path id="m7a7fd5c153" d="M 96.747145 -245.677218 
L 96.747145 -209.484525 
L 226.016044 -190.628678 
L 387.602169 -171.033231 
L 710.774418 -189.171027 
L 710.774418 -337.871492 
L 710.774418 -337.871492 
L 387.602169 -321.061453 
L 226.016044 -257.229473 
L 96.747145 -245.677218 
z
" style="stroke: #86bc25; stroke-opacity: 0.15"/>
    </defs>
    <g clip-path="url(#p0836332388)">
     <use xlink:href="#m7a7fd5c153" x="0" y="416.562344" style="fill: #86bc25; fill-opacity: 0.15; stroke: #86bc25; stroke-opacity: 0.15"/>
    </g>
   </g>
   <g id="FillBetweenPolyCollection_3">
    <defs>
     <path id="m30c7655c02" d="M 96.747145 -256.097926 
L 96.747145 -166.622668 
L 226.016044 -128.162036 
L 387.602169 -121.569249 
L 710.774418 -52.73608 
L 710.774418 -256.099257 
L 710.774418 -256.099257 
L 387.602169 -330.409009 
L 226.016044 -298.539545 
L 96.747145 -256.097926 
z
" style="stroke: #b5121b; stroke-opacity: 0.15"/>
    </defs>
    <g clip-path="url(#p0836332388)">
     <use xlink:href="#m30c7655c02" x="0" y="416.562344" style="fill: #b5121b; fill-opacity: 0.15; stroke: #b5121b; stroke-opacity: 0.15"/>
    </g>
   </g>
   <g id="line2d_1">
    <path d="M 66.045781 184.337173 
L 741.475781 184.337173 
" clip-path="url(#p0836332388)" style="fill: none; stroke-dasharray: 3.7,1.6; stroke-dashoffset: 0; stroke: #222222"/>
   </g>
   <g id="matplotlib.axis_1">
    <g id="xtick_1">
     <g id="line2d_2">
      <defs>
       <path id="m7710132121" d="M 0 0 
L 0 3.5 
" style="stroke: #44546a; stroke-width: 0.8"/>
      </defs>
      <g>
       <use xlink:href="#m7710132121" x="96.747145" y="380.071719" style="fill: #44546a; stroke: #44546a; stroke-width: 0.8"/>
      </g>
     </g>
     <g id="text_1">
      <!-- 1 -->
      <g style="fill: #44546a" transform="translate(94.244723 393.51375) scale(0.09 -0.09)">
       <defs>
        <path id="ArialMT-31" d="M 2384 0 
L 1822 0 
L 1822 3584 
Q 1619 3391 1289 3197 
Q 959 3003 697 2906 
L 697 3450 
Q 1169 3672 1522 3987 
Q 1875 4303 2022 4600 
L 2384 4600 
L 2384 0 
z
" transform="scale(0.015625)"/>
       </defs>
       <use xlink:href="#ArialMT-31"/>
      </g>
     </g>
    </g>
    <g id="xtick_2">
     <g id="line2d_3">
      <g>
       <use xlink:href="#m7710132121" x="226.016044" y="380.071719" style="fill: #44546a; stroke: #44546a; stroke-width: 0.8"/>
      </g>
     </g>
     <g id="text_2">
      <!-- 5 -->
      <g style="fill: #44546a" transform="translate(223.513623 393.51375) scale(0.09 -0.09)">
       <defs>
        <path id="ArialMT-35" d="M 266 1200 
L 856 1250 
Q 922 819 1161 601 
Q 1400 384 1738 384 
Q 2144 384 2425 690 
Q 2706 997 2706 1503 
Q 2706 1984 2436 2262 
Q 2166 2541 1728 2541 
Q 1456 2541 1237 2417 
Q 1019 2294 894 2097 
L 366 2166 
L 809 4519 
L 3088 4519 
L 3088 3981 
L 1259 3981 
L 1013 2750 
Q 1425 3038 1878 3038 
Q 2478 3038 2890 2622 
Q 3303 2206 3303 1553 
Q 3303 931 2941 478 
Q 2500 -78 1738 -78 
Q 1113 -78 717 272 
Q 322 622 266 1200 
z
" transform="scale(0.015625)"/>
       </defs>
       <use xlink:href="#ArialMT-35"/>
      </g>
     </g>
    </g>
    <g id="xtick_3">
     <g id="line2d_4">
      <g>
       <use xlink:href="#m7710132121" x="387.602169" y="380.071719" style="fill: #44546a; stroke: #44546a; stroke-width: 0.8"/>
      </g>
     </g>
     <g id="text_3">
      <!-- 10 -->
      <g style="fill: #44546a" transform="translate(382.597325 393.51375) scale(0.09 -0.09)">
       <defs>
        <path id="ArialMT-30" d="M 266 2259 
Q 266 3072 433 3567 
Q 600 4063 929 4331 
Q 1259 4600 1759 4600 
Q 2128 4600 2406 4451 
Q 2684 4303 2865 4023 
Q 3047 3744 3150 3342 
Q 3253 2941 3253 2259 
Q 3253 1453 3087 958 
Q 2922 463 2592 192 
Q 2263 -78 1759 -78 
Q 1097 -78 719 397 
Q 266 969 266 2259 
z
M 844 2259 
Q 844 1131 1108 757 
Q 1372 384 1759 384 
Q 2147 384 2411 759 
Q 2675 1134 2675 2259 
Q 2675 3391 2411 3762 
Q 2147 4134 1753 4134 
Q 1366 4134 1134 3806 
Q 844 3388 844 2259 
z
" transform="scale(0.015625)"/>
       </defs>
       <use xlink:href="#ArialMT-31"/>
       <use xlink:href="#ArialMT-30" transform="translate(55.615234 0)"/>
      </g>
     </g>
    </g>
    <g id="xtick_4">
     <g id="line2d_5">
      <g>
       <use xlink:href="#m7710132121" x="710.774418" y="380.071719" style="fill: #44546a; stroke: #44546a; stroke-width: 0.8"/>
      </g>
     </g>
     <g id="text_4">
      <!-- 20 -->
      <g style="fill: #44546a" transform="translate(705.769574 393.51375) scale(0.09 -0.09)">
       <defs>
        <path id="ArialMT-32" d="M 3222 541 
L 3222 0 
L 194 0 
Q 188 203 259 391 
Q 375 700 629 1000 
Q 884 1300 1366 1694 
Q 2113 2306 2375 2664 
Q 2638 3022 2638 3341 
Q 2638 3675 2398 3904 
Q 2159 4134 1775 4134 
Q 1369 4134 1125 3890 
Q 881 3647 878 3216 
L 300 3275 
Q 359 3922 746 4261 
Q 1134 4600 1788 4600 
Q 2447 4600 2831 4234 
Q 3216 3869 3216 3328 
Q 3216 3053 3103 2787 
Q 2991 2522 2730 2228 
Q 2469 1934 1863 1422 
Q 1356 997 1212 845 
Q 1069 694 975 541 
L 3222 541 
z
" transform="scale(0.015625)"/>
       </defs>
       <use xlink:href="#ArialMT-32"/>
       <use xlink:href="#ArialMT-30" transform="translate(55.615234 0)"/>
      </g>
     </g>
    </g>
    <g id="text_5">
     <!-- Horizon -->
     <g style="fill: #44546a" transform="translate(384.809844 407.176094) scale(0.11 -0.11)">
      <defs>
       <path id="ArialMT-48" d="M 513 0 
L 513 4581 
L 1119 4581 
L 1119 2700 
L 3500 2700 
L 3500 4581 
L 4106 4581 
L 4106 0 
L 3500 0 
L 3500 2159 
L 1119 2159 
L 1119 0 
L 513 0 
z
" transform="scale(0.015625)"/>
       <path id="ArialMT-6f" d="M 213 1659 
Q 213 2581 725 3025 
Q 1153 3394 1769 3394 
Q 2453 3394 2887 2945 
Q 3322 2497 3322 1706 
Q 3322 1066 3130 698 
Q 2938 331 2570 128 
Q 2203 -75 1769 -75 
Q 1072 -75 642 372 
Q 213 819 213 1659 
z
M 791 1659 
Q 791 1022 1069 705 
Q 1347 388 1769 388 
Q 2188 388 2466 706 
Q 2744 1025 2744 1678 
Q 2744 2294 2464 2611 
Q 2184 2928 1769 2928 
Q 1347 2928 1069 2612 
Q 791 2297 791 1659 
z
" transform="scale(0.015625)"/>
       <path id="ArialMT-72" d="M 416 0 
L 416 3319 
L 922 3319 
L 922 2816 
Q 1116 3169 1280 3281 
Q 1444 3394 1641 3394 
Q 1925 3394 2219 3213 
L 2025 2691 
Q 1819 2813 1613 2813 
Q 1428 2813 1281 2702 
Q 1134 2591 1072 2394 
Q 978 2094 978 1738 
L 978 0 
L 416 0 
z
" transform="scale(0.015625)"/>
       <path id="ArialMT-69" d="M 425 3934 
L 425 4581 
L 988 4581 
L 988 3934 
L 425 3934 
z
M 425 0 
L 425 3319 
L 988 3319 
L 988 0 
L 425 0 
z
" transform="scale(0.015625)"/>
       <path id="ArialMT-7a" d="M 125 0 
L 125 456 
L 2238 2881 
Q 1878 2863 1603 2863 
L 250 2863 
L 250 3319 
L 2963 3319 
L 2963 2947 
L 1166 841 
L 819 456 
Q 1197 484 1528 484 
L 3063 484 
L 3063 0 
L 125 0 
z
" transform="scale(0.015625)"/>
       <path id="ArialMT-6e" d="M 422 0 
L 422 3319 
L 928 3319 
L 928 2847 
Q 1294 3394 1984 3394 
Q 2284 3394 2536 3286 
Q 2788 3178 2913 3003 
Q 3038 2828 3088 2588 
Q 3119 2431 3119 2041 
L 3119 0 
L 2556 0 
L 2556 2019 
Q 2556 2363 2490 2533 
Q 2425 2703 2258 2804 
Q 2091 2906 1866 2906 
Q 1506 2906 1245 2678 
Q 984 2450 984 1813 
L 984 0 
L 422 0 
z
" transform="scale(0.015625)"/>
      </defs>
      <use xlink:href="#ArialMT-48"/>
      <use xlink:href="#ArialMT-6f" transform="translate(72.216797 0)"/>
      <use xlink:href="#ArialMT-72" transform="translate(127.832031 0)"/>
      <use xlink:href="#ArialMT-69" transform="translate(161.132812 0)"/>
      <use xlink:href="#ArialMT-7a" transform="translate(183.349609 0)"/>
      <use xlink:href="#ArialMT-6f" transform="translate(233.349609 0)"/>
      <use xlink:href="#ArialMT-6e" transform="translate(288.964844 0)"/>
     </g>
    </g>
   </g>
   <g id="matplotlib.axis_2">
    <g id="ytick_1">
     <g id="line2d_6">
      <path d="M 66.045781 330.86861 
L 741.475781 330.86861 
" clip-path="url(#p0836332388)" style="fill: none; stroke: #d9d9d9; stroke-opacity: 0.45; stroke-width: 0.7; stroke-linecap: square"/>
     </g>
     <g id="line2d_7">
      <defs>
       <path id="mc25139edb2" d="M 0 0 
L -3.5 0 
" style="stroke: #44546a; stroke-width: 0.8"/>
      </defs>
      <g>
       <use xlink:href="#mc25139edb2" x="66.045781" y="330.86861" style="fill: #44546a; stroke: #44546a; stroke-width: 0.8"/>
      </g>
     </g>
     <g id="text_6">
      <!-- −0.00010 -->
      <g style="fill: #44546a" transform="translate(21.259844 334.089626) scale(0.09 -0.09)">
       <defs>
        <path id="ArialMT-2212" d="M 3381 1997 
L 356 1997 
L 356 2522 
L 3381 2522 
L 3381 1997 
z
" transform="scale(0.015625)"/>
        <path id="ArialMT-2e" d="M 581 0 
L 581 641 
L 1222 641 
L 1222 0 
L 581 0 
z
" transform="scale(0.015625)"/>
       </defs>
       <use xlink:href="#ArialMT-2212"/>
       <use xlink:href="#ArialMT-30" transform="translate(58.398438 0)"/>
       <use xlink:href="#ArialMT-2e" transform="translate(114.013672 0)"/>
       <use xlink:href="#ArialMT-30" transform="translate(141.796875 0)"/>
       <use xlink:href="#ArialMT-30" transform="translate(197.412109 0)"/>
       <use xlink:href="#ArialMT-30" transform="translate(253.027344 0)"/>
       <use xlink:href="#ArialMT-31" transform="translate(308.642578 0)"/>
       <use xlink:href="#ArialMT-30" transform="translate(364.257812 0)"/>
      </g>
     </g>
    </g>
    <g id="ytick_2">
     <g id="line2d_8">
      <path d="M 66.045781 257.602892 
L 741.475781 257.602892 
" clip-path="url(#p0836332388)" style="fill: none; stroke: #d9d9d9; stroke-opacity: 0.45; stroke-width: 0.7; stroke-linecap: square"/>
     </g>
     <g id="line2d_9">
      <g>
       <use xlink:href="#mc25139edb2" x="66.045781" y="257.602892" style="fill: #44546a; stroke: #44546a; stroke-width: 0.8"/>
      </g>
     </g>
     <g id="text_7">
      <!-- −0.00005 -->
      <g style="fill: #44546a" transform="translate(21.259844 260.823907) scale(0.09 -0.09)">
       <use xlink:href="#ArialMT-2212"/>
       <use xlink:href="#ArialMT-30" transform="translate(58.398438 0)"/>
       <use xlink:href="#ArialMT-2e" transform="translate(114.013672 0)"/>
       <use xlink:href="#ArialMT-30" transform="translate(141.796875 0)"/>
       <use xlink:href="#ArialMT-30" transform="translate(197.412109 0)"/>
       <use xlink:href="#ArialMT-30" transform="translate(253.027344 0)"/>
       <use xlink:href="#ArialMT-30" transform="translate(308.642578 0)"/>
       <use xlink:href="#ArialMT-35" transform="translate(364.257812 0)"/>
      </g>
     </g>
    </g>
    <g id="ytick_3">
     <g id="line2d_10">
      <path d="M 66.045781 184.337173 
L 741.475781 184.337173 
" clip-path="url(#p0836332388)" style="fill: none; stroke: #d9d9d9; stroke-opacity: 0.45; stroke-width: 0.7; stroke-linecap: square"/>
     </g>
     <g id="line2d_11">
      <g>
       <use xlink:href="#mc25139edb2" x="66.045781" y="184.337173" style="fill: #44546a; stroke: #44546a; stroke-width: 0.8"/>
      </g>
     </g>
     <g id="text_8">
      <!-- 0.00000 -->
      <g style="fill: #44546a" transform="translate(26.516406 187.558188) scale(0.09 -0.09)">
       <use xlink:href="#ArialMT-30"/>
       <use xlink:href="#ArialMT-2e" transform="translate(55.615234 0)"/>
       <use xlink:href="#ArialMT-30" transform="translate(83.398438 0)"/>
       <use xlink:href="#ArialMT-30" transform="translate(139.013672 0)"/>
       <use xlink:href="#ArialMT-30" transform="translate(194.628906 0)"/>
       <use xlink:href="#ArialMT-30" transform="translate(250.244141 0)"/>
       <use xlink:href="#ArialMT-30" transform="translate(305.859375 0)"/>
      </g>
     </g>
    </g>
    <g id="ytick_4">
     <g id="line2d_12">
      <path d="M 66.045781 111.071454 
L 741.475781 111.071454 
" clip-path="url(#p0836332388)" style="fill: none; stroke: #d9d9d9; stroke-opacity: 0.45; stroke-width: 0.7; stroke-linecap: square"/>
     </g>
     <g id="line2d_13">
      <g>
       <use xlink:href="#mc25139edb2" x="66.045781" y="111.071454" style="fill: #44546a; stroke: #44546a; stroke-width: 0.8"/>
      </g>
     </g>
     <g id="text_9">
      <!-- 0.00005 -->
      <g style="fill: #44546a" transform="translate(26.516406 114.29247) scale(0.09 -0.09)">
       <use xlink:href="#ArialMT-30"/>
       <use xlink:href="#ArialMT-2e" transform="translate(55.615234 0)"/>
       <use xlink:href="#ArialMT-30" transform="translate(83.398438 0)"/>
       <use xlink:href="#ArialMT-30" transform="translate(139.013672 0)"/>
       <use xlink:href="#ArialMT-30" transform="translate(194.628906 0)"/>
       <use xlink:href="#ArialMT-30" transform="translate(250.244141 0)"/>
       <use xlink:href="#ArialMT-35" transform="translate(305.859375 0)"/>
      </g>
     </g>
    </g>
    <g id="ytick_5">
     <g id="line2d_14">
      <path d="M 66.045781 37.805735 
L 741.475781 37.805735 
" clip-path="url(#p0836332388)" style="fill: none; stroke: #d9d9d9; stroke-opacity: 0.45; stroke-width: 0.7; stroke-linecap: square"/>
     </g>
     <g id="line2d_15">
      <g>
       <use xlink:href="#mc25139edb2" x="66.045781" y="37.805735" style="fill: #44546a; stroke: #44546a; stroke-width: 0.8"/>
      </g>
     </g>
     <g id="text_10">
      <!-- 0.00010 -->
      <g style="fill: #44546a" transform="translate(26.516406 41.026751) scale(0.09 -0.09)">
       <use xlink:href="#ArialMT-30"/>
       <use xlink:href="#ArialMT-2e" transform="translate(55.615234 0)"/>
       <use xlink:href="#ArialMT-30" transform="translate(83.398438 0)"/>
       <use xlink:href="#ArialMT-30" transform="translate(139.013672 0)"/>
       <use xlink:href="#ArialMT-30" transform="translate(194.628906 0)"/>
       <use xlink:href="#ArialMT-31" transform="translate(250.244141 0)"/>
       <use xlink:href="#ArialMT-30" transform="translate(305.859375 0)"/>
      </g>
     </g>
    </g>
    <g id="text_11">
     <!-- QLP coefficient -->
     <g style="fill: #44546a" transform="translate(15.073594 238.474375) rotate(-90) scale(0.11 -0.11)">
      <defs>
       <path id="ArialMT-51" d="M 3966 491 
Q 4388 200 4744 66 
L 4566 -356 
Q 4072 -178 3581 206 
Q 3072 -78 2456 -78 
Q 1834 -78 1328 222 
Q 822 522 548 1065 
Q 275 1609 275 2291 
Q 275 2969 550 3525 
Q 825 4081 1333 4372 
Q 1841 4663 2469 4663 
Q 3103 4663 3612 4361 
Q 4122 4059 4389 3517 
Q 4656 2975 4656 2294 
Q 4656 1728 4484 1276 
Q 4313 825 3966 491 
z
M 2631 1266 
Q 3156 1119 3497 828 
Q 4031 1316 4031 2294 
Q 4031 2850 3842 3265 
Q 3653 3681 3289 3911 
Q 2925 4141 2472 4141 
Q 1794 4141 1347 3677 
Q 900 3213 900 2291 
Q 900 1397 1342 919 
Q 1784 441 2472 441 
Q 2797 441 3084 563 
Q 2800 747 2484 825 
L 2631 1266 
z
" transform="scale(0.015625)"/>
       <path id="ArialMT-4c" d="M 469 0 
L 469 4581 
L 1075 4581 
L 1075 541 
L 3331 541 
L 3331 0 
L 469 0 
z
" transform="scale(0.015625)"/>
       <path id="ArialMT-50" d="M 494 0 
L 494 4581 
L 2222 4581 
Q 2678 4581 2919 4538 
Q 3256 4481 3484 4323 
Q 3713 4166 3852 3881 
Q 3991 3597 3991 3256 
Q 3991 2672 3619 2267 
Q 3247 1863 2275 1863 
L 1100 1863 
L 1100 0 
L 494 0 
z
M 1100 2403 
L 2284 2403 
Q 2872 2403 3119 2622 
Q 3366 2841 3366 3238 
Q 3366 3525 3220 3729 
Q 3075 3934 2838 4000 
Q 2684 4041 2272 4041 
L 1100 4041 
L 1100 2403 
z
" transform="scale(0.015625)"/>
       <path id="ArialMT-20" transform="scale(0.015625)"/>
       <path id="ArialMT-63" d="M 2588 1216 
L 3141 1144 
Q 3050 572 2676 248 
Q 2303 -75 1759 -75 
Q 1078 -75 664 370 
Q 250 816 250 1647 
Q 250 2184 428 2587 
Q 606 2991 970 3192 
Q 1334 3394 1763 3394 
Q 2303 3394 2647 3120 
Q 2991 2847 3088 2344 
L 2541 2259 
Q 2463 2594 2264 2762 
Q 2066 2931 1784 2931 
Q 1359 2931 1093 2626 
Q 828 2322 828 1663 
Q 828 994 1084 691 
Q 1341 388 1753 388 
Q 2084 388 2306 591 
Q 2528 794 2588 1216 
z
" transform="scale(0.015625)"/>
       <path id="ArialMT-65" d="M 2694 1069 
L 3275 997 
Q 3138 488 2766 206 
Q 2394 -75 1816 -75 
Q 1088 -75 661 373 
Q 234 822 234 1631 
Q 234 2469 665 2931 
Q 1097 3394 1784 3394 
Q 2450 3394 2872 2941 
Q 3294 2488 3294 1666 
Q 3294 1616 3291 1516 
L 816 1516 
Q 847 969 1125 678 
Q 1403 388 1819 388 
Q 2128 388 2347 550 
Q 2566 713 2694 1069 
z
M 847 1978 
L 2700 1978 
Q 2663 2397 2488 2606 
Q 2219 2931 1791 2931 
Q 1403 2931 1139 2672 
Q 875 2413 847 1978 
z
" transform="scale(0.015625)"/>
       <path id="ArialMT-66" d="M 556 0 
L 556 2881 
L 59 2881 
L 59 3319 
L 556 3319 
L 556 3672 
Q 556 4006 616 4169 
Q 697 4388 901 4523 
Q 1106 4659 1475 4659 
Q 1713 4659 2000 4603 
L 1916 4113 
Q 1741 4144 1584 4144 
Q 1328 4144 1222 4034 
Q 1116 3925 1116 3625 
L 1116 3319 
L 1763 3319 
L 1763 2881 
L 1116 2881 
L 1116 0 
L 556 0 
z
" transform="scale(0.015625)"/>
       <path id="ArialMT-74" d="M 1650 503 
L 1731 6 
Q 1494 -44 1306 -44 
Q 1000 -44 831 53 
Q 663 150 594 308 
Q 525 466 525 972 
L 525 2881 
L 113 2881 
L 113 3319 
L 525 3319 
L 525 4141 
L 1084 4478 
L 1084 3319 
L 1650 3319 
L 1650 2881 
L 1084 2881 
L 1084 941 
Q 1084 700 1114 631 
Q 1144 563 1211 522 
Q 1278 481 1403 481 
Q 1497 481 1650 503 
z
" transform="scale(0.015625)"/>
      </defs>
      <use xlink:href="#ArialMT-51"/>
      <use xlink:href="#ArialMT-4c" transform="translate(77.783203 0)"/>
      <use xlink:href="#ArialMT-50" transform="translate(133.398438 0)"/>
      <use xlink:href="#ArialMT-20" transform="translate(198.347656 0)"/>
      <use xlink:href="#ArialMT-63" transform="translate(226.130859 0)"/>
      <use xlink:href="#ArialMT-6f" transform="translate(276.130859 0)"/>
      <use xlink:href="#ArialMT-65" transform="translate(331.746094 0)"/>
      <use xlink:href="#ArialMT-66" transform="translate(387.361328 0)"/>
      <use xlink:href="#ArialMT-66" transform="translate(413.394531 0)"/>
      <use xlink:href="#ArialMT-69" transform="translate(441.177734 0)"/>
      <use xlink:href="#ArialMT-63" transform="translate(463.394531 0)"/>
      <use xlink:href="#ArialMT-69" transform="translate(513.394531 0)"/>
      <use xlink:href="#ArialMT-65" transform="translate(535.611328 0)"/>
      <use xlink:href="#ArialMT-6e" transform="translate(591.226562 0)"/>
      <use xlink:href="#ArialMT-74" transform="translate(646.841797 0)"/>
     </g>
    </g>
   </g>
   <g id="line2d_16">
    <path d="M 96.747145 213.426501 
L 226.016044 213.189326 
L 387.602169 217.766832 
L 710.774418 145.36454 
" clip-path="url(#p0836332388)" style="fill: none; stroke: #26418f; stroke-width: 2; stroke-linecap: square"/>
    <defs>
     <path id="m18a6155b23" d="M 0 3 
C 0.795609 3 1.55874 2.683901 2.12132 2.12132 
C 2.683901 1.55874 3 0.795609 3 0 
C 3 -0.795609 2.683901 -1.55874 2.12132 -2.12132 
C 1.55874 -2.683901 0.795609 -3 0 -3 
C -0.795609 -3 -1.55874 -2.683901 -2.12132 -2.12132 
C -2.683901 -1.55874 -3 -0.795609 -3 0 
C -3 0.795609 -2.683901 1.55874 -2.12132 2.12132 
C -1.55874 2.683901 -0.795609 3 0 3 
z
" style="stroke: #26418f"/>
    </defs>
    <g clip-path="url(#p0836332388)">
     <use xlink:href="#m18a6155b23" x="96.747145" y="213.426501" style="fill: #26418f; stroke: #26418f"/>
     <use xlink:href="#m18a6155b23" x="226.016044" y="213.189326" style="fill: #26418f; stroke: #26418f"/>
     <use xlink:href="#m18a6155b23" x="387.602169" y="217.766832" style="fill: #26418f; stroke: #26418f"/>
     <use xlink:href="#m18a6155b23" x="710.774418" y="145.36454" style="fill: #26418f; stroke: #26418f"/>
    </g>
   </g>
   <g id="line2d_17">
    <path d="M 96.747145 190.658346 
L 226.016044 187.057742 
L 387.602169 175.546163 
L 710.774418 150.122495 
" clip-path="url(#p0836332388)" style="fill: none; stroke: #86bc25; stroke-width: 2; stroke-linecap: square"/>
    <defs>
     <path id="mb13cf4c9b5" d="M 0 3 
C 0.795609 3 1.55874 2.683901 2.12132 2.12132 
C 2.683901 1.55874 3 0.795609 3 0 
C 3 -0.795609 2.683901 -1.55874 2.12132 -2.12132 
C 1.55874 -2.683901 0.795609 -3 0 -3 
C -0.795609 -3 -1.55874 -2.683901 -2.12132 -2.12132 
C -2.683901 -1.55874 -3 -0.795609 -3 0 
C -3 0.795609 -2.683901 1.55874 -2.12132 2.12132 
C -1.55874 2.683901 -0.795609 3 0 3 
z
" style="stroke: #86bc25"/>
    </defs>
    <g clip-path="url(#p0836332388)">
     <use xlink:href="#mb13cf4c9b5" x="96.747145" y="190.658346" style="fill: #86bc25; stroke: #86bc25"/>
     <use xlink:href="#mb13cf4c9b5" x="226.016044" y="187.057742" style="fill: #86bc25; stroke: #86bc25"/>
     <use xlink:href="#mb13cf4c9b5" x="387.602169" y="175.546163" style="fill: #86bc25; stroke: #86bc25"/>
     <use xlink:href="#mb13cf4c9b5" x="710.774418" y="150.122495" style="fill: #86bc25; stroke: #86bc25"/>
    </g>
   </g>
   <g id="line2d_18">
    <path d="M 96.747145 210.003026 
L 226.016044 188.729066 
L 387.602169 199.194317 
L 710.774418 220.713984 
" clip-path="url(#p0836332388)" style="fill: none; stroke: #b5121b; stroke-width: 2; stroke-linecap: square"/>
    <defs>
     <path id="mae5c218735" d="M 0 3 
C 0.795609 3 1.55874 2.683901 2.12132 2.12132 
C 2.683901 1.55874 3 0.795609 3 0 
C 3 -0.795609 2.683901 -1.55874 2.12132 -2.12132 
C 1.55874 -2.683901 0.795609 -3 0 -3 
C -0.795609 -3 -1.55874 -2.683901 -2.12132 -2.12132 
C -2.683901 -1.55874 -3 -0.795609 -3 0 
C -3 0.795609 -2.683901 1.55874 -2.12132 2.12132 
C -1.55874 2.683901 -0.795609 3 0 3 
z
" style="stroke: #b5121b"/>
    </defs>
    <g clip-path="url(#p0836332388)">
     <use xlink:href="#mae5c218735" x="96.747145" y="210.003026" style="fill: #b5121b; stroke: #b5121b"/>
     <use xlink:href="#mae5c218735" x="226.016044" y="188.729066" style="fill: #b5121b; stroke: #b5121b"/>
     <use xlink:href="#mae5c218735" x="387.602169" y="199.194317" style="fill: #b5121b; stroke: #b5121b"/>
     <use xlink:href="#mae5c218735" x="710.774418" y="220.713984" style="fill: #b5121b; stroke: #b5121b"/>
    </g>
   </g>
   <g id="patch_3">
    <path d="M 66.045781 380.071719 
L 66.045781 22.671719 
" style="fill: none; stroke: #5b5b5b; stroke-width: 0.8; stroke-linejoin: miter; stroke-linecap: square"/>
   </g>
   <g id="patch_4">
    <path d="M 66.045781 380.071719 
L 741.475781 380.071719 
" style="fill: none; stroke: #5b5b5b; stroke-width: 0.8; stroke-linejoin: miter; stroke-linecap: square"/>
   </g>
   <g id="text_12">
    <!-- Dynamic QLP Responses: TTF Return -->
    <g style="fill: #26418f" transform="translate(292.735703 16.671719) scale(0.13 -0.13)">
     <defs>
      <path id="ArialMT-44" d="M 494 0 
L 494 4581 
L 2072 4581 
Q 2606 4581 2888 4516 
Q 3281 4425 3559 4188 
Q 3922 3881 4101 3404 
Q 4281 2928 4281 2316 
Q 4281 1794 4159 1391 
Q 4038 988 3847 723 
Q 3656 459 3429 307 
Q 3203 156 2883 78 
Q 2563 0 2147 0 
L 494 0 
z
M 1100 541 
L 2078 541 
Q 2531 541 2789 625 
Q 3047 709 3200 863 
Q 3416 1078 3536 1442 
Q 3656 1806 3656 2325 
Q 3656 3044 3420 3430 
Q 3184 3816 2847 3947 
Q 2603 4041 2063 4041 
L 1100 4041 
L 1100 541 
z
" transform="scale(0.015625)"/>
      <path id="ArialMT-79" d="M 397 -1278 
L 334 -750 
Q 519 -800 656 -800 
Q 844 -800 956 -737 
Q 1069 -675 1141 -563 
Q 1194 -478 1313 -144 
Q 1328 -97 1363 -6 
L 103 3319 
L 709 3319 
L 1400 1397 
Q 1534 1031 1641 628 
Q 1738 1016 1872 1384 
L 2581 3319 
L 3144 3319 
L 1881 -56 
Q 1678 -603 1566 -809 
Q 1416 -1088 1222 -1217 
Q 1028 -1347 759 -1347 
Q 597 -1347 397 -1278 
z
" transform="scale(0.015625)"/>
      <path id="ArialMT-61" d="M 2588 409 
Q 2275 144 1986 34 
Q 1697 -75 1366 -75 
Q 819 -75 525 192 
Q 231 459 231 875 
Q 231 1119 342 1320 
Q 453 1522 633 1644 
Q 813 1766 1038 1828 
Q 1203 1872 1538 1913 
Q 2219 1994 2541 2106 
Q 2544 2222 2544 2253 
Q 2544 2597 2384 2738 
Q 2169 2928 1744 2928 
Q 1347 2928 1158 2789 
Q 969 2650 878 2297 
L 328 2372 
Q 403 2725 575 2942 
Q 747 3159 1072 3276 
Q 1397 3394 1825 3394 
Q 2250 3394 2515 3294 
Q 2781 3194 2906 3042 
Q 3031 2891 3081 2659 
Q 3109 2516 3109 2141 
L 3109 1391 
Q 3109 606 3145 398 
Q 3181 191 3288 0 
L 2700 0 
Q 2613 175 2588 409 
z
M 2541 1666 
Q 2234 1541 1622 1453 
Q 1275 1403 1131 1340 
Q 988 1278 909 1158 
Q 831 1038 831 891 
Q 831 666 1001 516 
Q 1172 366 1500 366 
Q 1825 366 2078 508 
Q 2331 650 2450 897 
Q 2541 1088 2541 1459 
L 2541 1666 
z
" transform="scale(0.015625)"/>
      <path id="ArialMT-6d" d="M 422 0 
L 422 3319 
L 925 3319 
L 925 2853 
Q 1081 3097 1340 3245 
Q 1600 3394 1931 3394 
Q 2300 3394 2536 3241 
Q 2772 3088 2869 2813 
Q 3263 3394 3894 3394 
Q 4388 3394 4653 3120 
Q 4919 2847 4919 2278 
L 4919 0 
L 4359 0 
L 4359 2091 
Q 4359 2428 4304 2576 
Q 4250 2725 4106 2815 
Q 3963 2906 3769 2906 
Q 3419 2906 3187 2673 
Q 2956 2441 2956 1928 
L 2956 0 
L 2394 0 
L 2394 2156 
Q 2394 2531 2256 2718 
Q 2119 2906 1806 2906 
Q 1569 2906 1367 2781 
Q 1166 2656 1075 2415 
Q 984 2175 984 1722 
L 984 0 
L 422 0 
z
" transform="scale(0.015625)"/>
      <path id="ArialMT-52" d="M 503 0 
L 503 4581 
L 2534 4581 
Q 3147 4581 3465 4457 
Q 3784 4334 3975 4021 
Q 4166 3709 4166 3331 
Q 4166 2844 3850 2509 
Q 3534 2175 2875 2084 
Q 3116 1969 3241 1856 
Q 3506 1613 3744 1247 
L 4541 0 
L 3778 0 
L 3172 953 
Q 2906 1366 2734 1584 
Q 2563 1803 2427 1890 
Q 2291 1978 2150 2013 
Q 2047 2034 1813 2034 
L 1109 2034 
L 1109 0 
L 503 0 
z
M 1109 2559 
L 2413 2559 
Q 2828 2559 3062 2645 
Q 3297 2731 3419 2920 
Q 3541 3109 3541 3331 
Q 3541 3656 3305 3865 
Q 3069 4075 2559 4075 
L 1109 4075 
L 1109 2559 
z
" transform="scale(0.015625)"/>
      <path id="ArialMT-73" d="M 197 991 
L 753 1078 
Q 800 744 1014 566 
Q 1228 388 1613 388 
Q 2000 388 2187 545 
Q 2375 703 2375 916 
Q 2375 1106 2209 1216 
Q 2094 1291 1634 1406 
Q 1016 1563 777 1677 
Q 538 1791 414 1992 
Q 291 2194 291 2438 
Q 291 2659 392 2848 
Q 494 3038 669 3163 
Q 800 3259 1026 3326 
Q 1253 3394 1513 3394 
Q 1903 3394 2198 3281 
Q 2494 3169 2634 2976 
Q 2775 2784 2828 2463 
L 2278 2388 
Q 2241 2644 2061 2787 
Q 1881 2931 1553 2931 
Q 1166 2931 1000 2803 
Q 834 2675 834 2503 
Q 834 2394 903 2306 
Q 972 2216 1119 2156 
Q 1203 2125 1616 2013 
Q 2213 1853 2448 1751 
Q 2684 1650 2818 1456 
Q 2953 1263 2953 975 
Q 2953 694 2789 445 
Q 2625 197 2315 61 
Q 2006 -75 1616 -75 
Q 969 -75 630 194 
Q 291 463 197 991 
z
" transform="scale(0.015625)"/>
      <path id="ArialMT-70" d="M 422 -1272 
L 422 3319 
L 934 3319 
L 934 2888 
Q 1116 3141 1344 3267 
Q 1572 3394 1897 3394 
Q 2322 3394 2647 3175 
Q 2972 2956 3137 2557 
Q 3303 2159 3303 1684 
Q 3303 1175 3120 767 
Q 2938 359 2589 142 
Q 2241 -75 1856 -75 
Q 1575 -75 1351 44 
Q 1128 163 984 344 
L 984 -1272 
L 422 -1272 
z
M 931 1641 
Q 931 1000 1190 694 
Q 1450 388 1819 388 
Q 2194 388 2461 705 
Q 2728 1022 2728 1688 
Q 2728 2322 2467 2637 
Q 2206 2953 1844 2953 
Q 1484 2953 1207 2617 
Q 931 2281 931 1641 
z
" transform="scale(0.015625)"/>
      <path id="ArialMT-3a" d="M 578 2678 
L 578 3319 
L 1219 3319 
L 1219 2678 
L 578 2678 
z
M 578 0 
L 578 641 
L 1219 641 
L 1219 0 
L 578 0 
z
" transform="scale(0.015625)"/>
      <path id="ArialMT-54" d="M 1659 0 
L 1659 4041 
L 150 4041 
L 150 4581 
L 3781 4581 
L 3781 4041 
L 2266 4041 
L 2266 0 
L 1659 0 
z
" transform="scale(0.015625)"/>
      <path id="ArialMT-46" d="M 525 0 
L 525 4581 
L 3616 4581 
L 3616 4041 
L 1131 4041 
L 1131 2622 
L 3281 2622 
L 3281 2081 
L 1131 2081 
L 1131 0 
L 525 0 
z
" transform="scale(0.015625)"/>
      <path id="ArialMT-75" d="M 2597 0 
L 2597 488 
Q 2209 -75 1544 -75 
Q 1250 -75 995 37 
Q 741 150 617 320 
Q 494 491 444 738 
Q 409 903 409 1263 
L 409 3319 
L 972 3319 
L 972 1478 
Q 972 1038 1006 884 
Q 1059 663 1231 536 
Q 1403 409 1656 409 
Q 1909 409 2131 539 
Q 2353 669 2445 892 
Q 2538 1116 2538 1541 
L 2538 3319 
L 3100 3319 
L 3100 0 
L 2597 0 
z
" transform="scale(0.015625)"/>
     </defs>
     <use xlink:href="#ArialMT-44"/>
     <use xlink:href="#ArialMT-79" transform="translate(72.216797 0)"/>
     <use xlink:href="#ArialMT-6e" transform="translate(122.216797 0)"/>
     <use xlink:href="#ArialMT-61" transform="translate(177.832031 0)"/>
     <use xlink:href="#ArialMT-6d" transform="translate(233.447266 0)"/>
     <use xlink:href="#ArialMT-69" transform="translate(316.748047 0)"/>
     <use xlink:href="#ArialMT-63" transform="translate(338.964844 0)"/>
     <use xlink:href="#ArialMT-20" transform="translate(388.964844 0)"/>
     <use xlink:href="#ArialMT-51" transform="translate(416.748047 0)"/>
     <use xlink:href="#ArialMT-4c" transform="translate(494.53125 0)"/>
     <use xlink:href="#ArialMT-50" transform="translate(550.146484 0)"/>
     <use xlink:href="#ArialMT-20" transform="translate(615.095703 0)"/>
     <use xlink:href="#ArialMT-52" transform="translate(642.878906 0)"/>
     <use xlink:href="#ArialMT-65" transform="translate(715.095703 0)"/>
     <use xlink:href="#ArialMT-73" transform="translate(770.710938 0)"/>
     <use xlink:href="#ArialMT-70" transform="translate(820.710938 0)"/>
     <use xlink:href="#ArialMT-6f" transform="translate(876.326172 0)"/>
     <use xlink:href="#ArialMT-6e" transform="translate(931.941406 0)"/>
     <use xlink:href="#ArialMT-73" transform="translate(987.556641 0)"/>
     <use xlink:href="#ArialMT-65" transform="translate(1037.556641 0)"/>
     <use xlink:href="#ArialMT-73" transform="translate(1093.171875 0)"/>
     <use xlink:href="#ArialMT-3a" transform="translate(1143.171875 0)"/>
     <use xlink:href="#ArialMT-20" transform="translate(1170.955078 0)"/>
     <use xlink:href="#ArialMT-54" transform="translate(1196.988281 0)"/>
     <use xlink:href="#ArialMT-54" transform="translate(1258.072266 0)"/>
     <use xlink:href="#ArialMT-46" transform="translate(1319.15625 0)"/>
     <use xlink:href="#ArialMT-20" transform="translate(1380.240234 0)"/>
     <use xlink:href="#ArialMT-52" transform="translate(1408.023438 0)"/>
     <use xlink:href="#ArialMT-65" transform="translate(1480.240234 0)"/>
     <use xlink:href="#ArialMT-74" transform="translate(1535.855469 0)"/>
     <use xlink:href="#ArialMT-75" transform="translate(1563.638672 0)"/>
     <use xlink:href="#ArialMT-72" transform="translate(1619.253906 0)"/>
     <use xlink:href="#ArialMT-6e" transform="translate(1652.554688 0)"/>
    </g>
   </g>
   <g id="PathCollection_1">
    <defs>
     <path id="me3d8bfe523" d="M 0 3.082207 
C 0.817411 3.082207 1.601453 2.757446 2.179449 2.179449 
C 2.757446 1.601453 3.082207 0.817411 3.082207 0 
C 3.082207 -0.817411 2.757446 -1.601453 2.179449 -2.179449 
C 1.601453 -2.757446 0.817411 -3.082207 0 -3.082207 
C -0.817411 -3.082207 -1.601453 -2.757446 -2.179449 -2.179449 
C -2.757446 -1.601453 -3.082207 -0.817411 -3.082207 0 
C -3.082207 0.817411 -2.757446 1.601453 -2.179449 2.179449 
C -1.601453 2.757446 -0.817411 3.082207 0 3.082207 
z
" style="stroke: #26418f; stroke-opacity: 0.9; stroke-width: 1.3"/>
    </defs>
    <g clip-path="url(#p0836332388)">
     <use xlink:href="#me3d8bfe523" x="96.747145" y="213.426501" style="fill: #ffffff; fill-opacity: 0.9; stroke: #26418f; stroke-opacity: 0.9; stroke-width: 1.3"/>
    </g>
   </g>
   <g id="PathCollection_2">
    <g clip-path="url(#p0836332388)">
     <use xlink:href="#me3d8bfe523" x="226.016044" y="213.189326" style="fill: #ffffff; fill-opacity: 0.9; stroke: #26418f; stroke-opacity: 0.9; stroke-width: 1.3"/>
    </g>
   </g>
   <g id="PathCollection_3">
    <g clip-path="url(#p0836332388)">
     <use xlink:href="#me3d8bfe523" x="387.602169" y="217.766832" style="fill: #ffffff; fill-opacity: 0.9; stroke: #26418f; stroke-opacity: 0.9; stroke-width: 1.3"/>
    </g>
   </g>
   <g id="PathCollection_4">
    <g clip-path="url(#p0836332388)">
     <use xlink:href="#me3d8bfe523" x="710.774418" y="145.36454" style="fill: #ffffff; fill-opacity: 0.9; stroke: #26418f; stroke-opacity: 0.9; stroke-width: 1.3"/>
    </g>
   </g>
   <g id="PathCollection_5">
    <defs>
     <path id="mfb3042555b" d="M 0 3.082207 
C 0.817411 3.082207 1.601453 2.757446 2.179449 2.179449 
C 2.757446 1.601453 3.082207 0.817411 3.082207 0 
C 3.082207 -0.817411 2.757446 -1.601453 2.179449 -2.179449 
C 1.601453 -2.757446 0.817411 -3.082207 0 -3.082207 
C -0.817411 -3.082207 -1.601453 -2.757446 -2.179449 -2.179449 
C -2.757446 -1.601453 -3.082207 -0.817411 -3.082207 0 
C -3.082207 0.817411 -2.757446 1.601453 -2.179449 2.179449 
C -1.601453 2.757446 -0.817411 3.082207 0 3.082207 
z
" style="stroke: #86bc25; stroke-opacity: 0.9; stroke-width: 1.3"/>
    </defs>
    <g clip-path="url(#p0836332388)">
     <use xlink:href="#mfb3042555b" x="96.747145" y="190.658346" style="fill: #ffffff; fill-opacity: 0.9; stroke: #86bc25; stroke-opacity: 0.9; stroke-width: 1.3"/>
    </g>
   </g>
   <g id="PathCollection_6">
    <g clip-path="url(#p0836332388)">
     <use xlink:href="#mfb3042555b" x="226.016044" y="187.057742" style="fill: #ffffff; fill-opacity: 0.9; stroke: #86bc25; stroke-opacity: 0.9; stroke-width: 1.3"/>
    </g>
   </g>
   <g id="PathCollection_7">
    <g clip-path="url(#p0836332388)">
     <use xlink:href="#mfb3042555b" x="387.602169" y="175.546163" style="fill: #ffffff; fill-opacity: 0.9; stroke: #86bc25; stroke-opacity: 0.9; stroke-width: 1.3"/>
    </g>
   </g>
   <g id="PathCollection_8">
    <g clip-path="url(#p0836332388)">
     <use xlink:href="#mfb3042555b" x="710.774418" y="150.122495" style="fill: #ffffff; fill-opacity: 0.9; stroke: #86bc25; stroke-opacity: 0.9; stroke-width: 1.3"/>
    </g>
   </g>
   <g id="PathCollection_9">
    <defs>
     <path id="mcee69a6604" d="M 0 3.082207 
C 0.817411 3.082207 1.601453 2.757446 2.179449 2.179449 
C 2.757446 1.601453 3.082207 0.817411 3.082207 0 
C 3.082207 -0.817411 2.757446 -1.601453 2.179449 -2.179449 
C 1.601453 -2.757446 0.817411 -3.082207 0 -3.082207 
C -0.817411 -3.082207 -1.601453 -2.757446 -2.179449 -2.179449 
C -2.757446 -1.601453 -3.082207 -0.817411 -3.082207 0 
C -3.082207 0.817411 -2.757446 1.601453 -2.179449 2.179449 
C -1.601453 2.757446 -0.817411 3.082207 0 3.082207 
z
" style="stroke: #b5121b; stroke-opacity: 0.9; stroke-width: 1.3"/>
    </defs>
    <g clip-path="url(#p0836332388)">
     <use xlink:href="#mcee69a6604" x="96.747145" y="210.003026" style="fill: #ffffff; fill-opacity: 0.9; stroke: #b5121b; stroke-opacity: 0.9; stroke-width: 1.3"/>
    </g>
   </g>
   <g id="PathCollection_10">
    <g clip-path="url(#p0836332388)">
     <use xlink:href="#mcee69a6604" x="226.016044" y="188.729066" style="fill: #ffffff; fill-opacity: 0.9; stroke: #b5121b; stroke-opacity: 0.9; stroke-width: 1.3"/>
    </g>
   </g>
   <g id="PathCollection_11">
    <g clip-path="url(#p0836332388)">
     <use xlink:href="#mcee69a6604" x="387.602169" y="199.194317" style="fill: #ffffff; fill-opacity: 0.9; stroke: #b5121b; stroke-opacity: 0.9; stroke-width: 1.3"/>
    </g>
   </g>
   <g id="PathCollection_12">
    <g clip-path="url(#p0836332388)">
     <use xlink:href="#mcee69a6604" x="710.774418" y="220.713984" style="fill: #ffffff; fill-opacity: 0.9; stroke: #b5121b; stroke-opacity: 0.9; stroke-width: 1.3"/>
    </g>
   </g>
   <g id="legend_1">
    <g id="line2d_19">
     <path d="M 74.145781 34.06375 
L 83.145781 34.06375 
L 92.145781 34.06375 
" style="fill: none; stroke: #26418f; stroke-width: 2; stroke-linecap: square"/>
     <g>
      <use xlink:href="#m18a6155b23" x="83.145781" y="34.06375" style="fill: #26418f; stroke: #26418f"/>
     </g>
    </g>
    <g id="text_13">
     <!-- τ=0.10 -->
     <g style="fill: #44546a" transform="translate(99.345781 37.21375) scale(0.09 -0.09)">
      <defs>
       <path id="ArialMT-3c4" d="M 1581 2863 
L 1581 0 
L 1019 0 
L 1019 2863 
L 144 2863 
L 144 3319 
L 2381 3319 
L 2381 2863 
L 1581 2863 
z
" transform="scale(0.015625)"/>
       <path id="ArialMT-3d" d="M 3381 2694 
L 356 2694 
L 356 3219 
L 3381 3219 
L 3381 2694 
z
M 3381 1303 
L 356 1303 
L 356 1828 
L 3381 1828 
L 3381 1303 
z
" transform="scale(0.015625)"/>
      </defs>
      <use xlink:href="#ArialMT-3c4"/>
      <use xlink:href="#ArialMT-3d" transform="translate(39.501953 0)"/>
      <use xlink:href="#ArialMT-30" transform="translate(97.900391 0)"/>
      <use xlink:href="#ArialMT-2e" transform="translate(153.515625 0)"/>
      <use xlink:href="#ArialMT-31" transform="translate(181.298828 0)"/>
      <use xlink:href="#ArialMT-30" transform="translate(236.914062 0)"/>
     </g>
    </g>
    <g id="line2d_20">
     <path d="M 143.672188 34.06375 
L 152.672188 34.06375 
L 161.672188 34.06375 
" style="fill: none; stroke: #86bc25; stroke-width: 2; stroke-linecap: square"/>
     <g>
      <use xlink:href="#mb13cf4c9b5" x="152.672188" y="34.06375" style="fill: #86bc25; stroke: #86bc25"/>
     </g>
    </g>
    <g id="text_14">
     <!-- τ=0.50 -->
     <g style="fill: #44546a" transform="translate(168.872187 37.21375) scale(0.09 -0.09)">
      <use xlink:href="#ArialMT-3c4"/>
      <use xlink:href="#ArialMT-3d" transform="translate(39.501953 0)"/>
      <use xlink:href="#ArialMT-30" transform="translate(97.900391 0)"/>
      <use xlink:href="#ArialMT-2e" transform="translate(153.515625 0)"/>
      <use xlink:href="#ArialMT-35" transform="translate(181.298828 0)"/>
      <use xlink:href="#ArialMT-30" transform="translate(236.914062 0)"/>
     </g>
    </g>
    <g id="line2d_21">
     <path d="M 213.198594 34.06375 
L 222.198594 34.06375 
L 231.198594 34.06375 
" style="fill: none; stroke: #b5121b; stroke-width: 2; stroke-linecap: square"/>
     <g>
      <use xlink:href="#mae5c218735" x="222.198594" y="34.06375" style="fill: #b5121b; stroke: #b5121b"/>
     </g>
    </g>
    <g id="text_15">
     <!-- τ=0.90 -->
     <g style="fill: #44546a" transform="translate(238.398594 37.21375) scale(0.09 -0.09)">
      <defs>
       <path id="ArialMT-39" d="M 350 1059 
L 891 1109 
Q 959 728 1153 556 
Q 1347 384 1650 384 
Q 1909 384 2104 503 
Q 2300 622 2425 820 
Q 2550 1019 2634 1356 
Q 2719 1694 2719 2044 
Q 2719 2081 2716 2156 
Q 2547 1888 2255 1720 
Q 1963 1553 1622 1553 
Q 1053 1553 659 1965 
Q 266 2378 266 3053 
Q 266 3750 677 4175 
Q 1088 4600 1706 4600 
Q 2153 4600 2523 4359 
Q 2894 4119 3086 3673 
Q 3278 3228 3278 2384 
Q 3278 1506 3087 986 
Q 2897 466 2520 194 
Q 2144 -78 1638 -78 
Q 1100 -78 759 220 
Q 419 519 350 1059 
z
M 2653 3081 
Q 2653 3566 2395 3850 
Q 2138 4134 1775 4134 
Q 1400 4134 1122 3828 
Q 844 3522 844 3034 
Q 844 2597 1108 2323 
Q 1372 2050 1759 2050 
Q 2150 2050 2401 2323 
Q 2653 2597 2653 3081 
z
" transform="scale(0.015625)"/>
      </defs>
      <use xlink:href="#ArialMT-3c4"/>
      <use xlink:href="#ArialMT-3d" transform="translate(39.501953 0)"/>
      <use xlink:href="#ArialMT-30" transform="translate(97.900391 0)"/>
      <use xlink:href="#ArialMT-2e" transform="translate(153.515625 0)"/>
      <use xlink:href="#ArialMT-39" transform="translate(181.298828 0)"/>
      <use xlink:href="#ArialMT-30" transform="translate(236.914062 0)"/>
     </g>
    </g>
   </g>
  </g>
 </g>
 <defs>
  <clipPath id="p0836332388">
   <rect x="66.045781" y="22.671719" width="675.43" height="357.4"/>
  </clipPath>
 </defs>
</svg>
